<svg width="120" height="40" viewBox="0 0 120 40" fill="none" xmlns="http://www.w3.org/2000/svg">
<path d="M110.444 0.00013H9.56145C9.19372 0.00013 8.8304 0.00013 8.46364 0.00213C8.15663 0.00413 7.85207 0.00994 7.54211 0.01483C6.86874 0.0227318 6.19695 0.0818063 5.53259 0.19154C4.86915 0.303663 4.2265 0.515046 3.62637 0.81854C3.02697 1.1246 2.47929 1.5223 2.00318 1.9972C1.52457 2.47077 1.12561 3.01815 0.82165 3.61829C0.516847 4.21724 0.305496 4.85907 0.194896 5.52161C0.083244 6.18332 0.0231632 6.85265 0.0151925 7.52361C0.00588648 7.83021 0.00490373 8.13783 0 8.44447V31.5587C0.00490373 31.8692 0.00588648 32.17 0.0151925 32.4806C0.0231657 33.1516 0.0832464 33.8209 0.194896 34.4825C0.30519 35.1455 0.516554 35.7877 0.82165 36.3868C1.12548 36.985 1.52449 37.5302 2.00318 38.0011C2.47748 38.4781 3.02552 38.8761 3.62637 39.1798C4.2265 39.4841 4.86908 39.6968 5.53259 39.8106C6.19707 39.9195 6.86879 39.9786 7.54211 39.9874C7.85207 39.9942 8.15663 39.9981 8.46364 39.9981C8.83039 40.0001 9.19374 40.0001 9.56145 40.0001H110.444C110.804 40.0001 111.171 40.0001 111.531 39.9981C111.837 39.9981 112.15 39.9942 112.455 39.9874C113.128 39.9791 113.798 39.92 114.461 39.8106C115.127 39.696 115.772 39.4834 116.375 39.1798C116.975 38.8759 117.522 38.478 117.996 38.0011C118.474 37.5284 118.874 36.9836 119.181 36.3868C119.484 35.7872 119.693 35.1451 119.802 34.4825C119.914 33.8208 119.976 33.1516 119.988 32.4806C119.992 32.17 119.992 31.8692 119.992 31.5587C120 31.1954 120 30.8341 120 30.4649V9.53626C120 9.17005 120 8.80677 119.992 8.44447C119.992 8.13783 119.992 7.83021 119.988 7.52357C119.976 6.85255 119.914 6.18337 119.802 5.52157C119.693 4.85941 119.484 4.21763 119.181 3.61825C118.562 2.41533 117.581 1.43616 116.375 0.81845C115.772 0.515697 115.127 0.30437 114.461 0.19145C113.798 0.0812328 113.128 0.0221378 112.455 0.01469C112.15 0.00981 111.837 0.00395 111.531 0.002C111.171 0 110.804 0 110.444 0V0.00013Z" fill="#A6A6A6"/>
<path d="M8.46856 39.125C8.16303 39.125 7.86487 39.1211 7.56174 39.1143C6.93376 39.1061 6.30725 39.0516 5.68735 38.9512C5.10932 38.8519 4.54937 38.6673 4.02596 38.4033C3.50735 38.1415 3.03433 37.7983 2.62504 37.3867C2.20981 36.98 1.86412 36.5082 1.60166 35.9902C1.33631 35.4688 1.15267 34.9099 1.05714 34.333C0.953972 33.7131 0.898156 33.0863 0.890169 32.458C0.883812 32.2471 0.875488 31.5449 0.875488 31.5449V8.44434C0.875488 8.44434 0.884353 7.75293 0.89022 7.5498C0.897867 6.92248 0.953358 6.29665 1.05621 5.67773C1.15192 5.09925 1.3357 4.53875 1.6012 4.01563C1.8627 3.49794 2.20647 3.02586 2.61919 2.61768C3.03145 2.20562 3.50597 1.8606 4.02547 1.59521C4.54767 1.33209 5.10657 1.14873 5.68343 1.05127C6.30537 0.949836 6.93405 0.894996 7.5642 0.88721L8.46906 0.875H111.526L112.442 0.8877C113.066 0.895099 113.689 0.94945 114.305 1.05029C114.888 1.14898 115.453 1.33362 115.981 1.59814C117.022 2.13299 117.869 2.97916 118.403 4.01807C118.664 4.53758 118.845 5.09351 118.939 5.66699C119.044 6.29099 119.102 6.92174 119.114 7.5542C119.117 7.8374 119.117 8.1416 119.117 8.44434C119.125 8.81934 119.125 9.17627 119.125 9.53613V30.4648C119.125 30.8281 119.125 31.1826 119.117 31.54C119.117 31.8652 119.117 32.1631 119.113 32.4697C119.101 33.0909 119.044 33.7104 118.941 34.3232C118.848 34.9043 118.665 35.4675 118.4 35.9932C118.136 36.5056 117.792 36.9733 117.381 37.3789C116.972 37.7927 116.498 38.1379 115.978 38.4014C115.451 38.6674 114.887 38.8527 114.305 38.9512C113.686 39.0522 113.059 39.1067 112.431 39.1143C112.137 39.1211 111.83 39.125 111.531 39.125L110.444 39.127L8.46856 39.125Z" fill="#070C11"/>
<path d="M24.8384 20.3003C24.8492 19.4657 25.0715 18.6473 25.4847 17.9213C25.8978 17.1954 26.4885 16.5854 27.2015 16.1483C26.7485 15.5031 26.1509 14.9722 25.4561 14.5976C24.7614 14.2231 23.9886 14.0152 23.1992 13.9906C21.5152 13.8143 19.8827 14.9954 19.0246 14.9954C18.1499 14.9954 16.8287 14.0081 15.406 14.0373C14.4857 14.0669 13.5889 14.3338 12.8028 14.8118C12.0167 15.2899 11.3682 15.9629 10.9205 16.7651C8.98105 20.1136 10.4277 25.0346 12.2855 27.7412C13.215 29.0666 14.3013 30.547 15.7228 30.4945C17.1137 30.437 17.6332 29.61 19.3122 29.61C20.9756 29.61 21.463 30.4945 22.9133 30.4611C24.4058 30.437 25.3462 29.1299 26.2431 27.792C26.911 26.8476 27.4249 25.8039 27.7658 24.6995C26.8987 24.3338 26.1587 23.7216 25.6381 22.9393C25.1175 22.157 24.8394 21.2392 24.8384 20.3003Z" fill="white"/>
<path d="M22.0994 12.2094C22.9132 11.2352 23.3142 9.98298 23.2171 8.71875C21.9738 8.84897 20.8253 9.44153 20.0005 10.3784C19.5972 10.836 19.2884 11.3685 19.0916 11.9452C18.8948 12.522 18.8139 13.1318 18.8536 13.7397C19.4754 13.7461 20.0907 13.6117 20.6529 13.3466C21.2151 13.0815 21.7097 12.6927 22.0994 12.2094Z" fill="white"/>
<path d="M42.421 27.1358H37.6743L36.5344 30.4922H34.5239L39.0199 18.0742H41.1088L45.6047 30.4922H43.5599L42.421 27.1358ZM38.166 25.587H41.9285L40.0737 20.1397H40.0218L38.166 25.587Z" fill="white"/>
<path d="M55.3145 25.9675C55.3145 28.781 53.8044 30.5886 51.5256 30.5886C50.9483 30.6187 50.3742 30.4861 49.869 30.206C49.3638 29.9258 48.9479 29.5095 48.6689 29.0046H48.6258V33.489H46.7622V21.4401H48.5661V22.946H48.6004C48.8922 22.4435 49.3151 22.0294 49.8241 21.7475C50.3332 21.4657 50.9093 21.3267 51.4913 21.3454C53.7956 21.3454 55.3145 23.1618 55.3145 25.9675ZM53.399 25.9675C53.399 24.1345 52.449 22.9294 50.9997 22.9294C49.5758 22.9294 48.618 24.1599 48.618 25.9675C48.618 27.7917 49.5758 29.0134 50.9997 29.0134C52.4491 29.0134 53.399 27.8171 53.399 25.9675Z" fill="white"/>
<path d="M65.3072 25.9675C65.3072 28.781 63.7971 30.5886 61.5182 30.5886C60.941 30.6187 60.3669 30.4861 59.8617 30.2059C59.3565 29.9258 58.9406 29.5095 58.6616 29.0046H58.6185V33.489H56.7549V21.4401H58.5588V22.946H58.593C58.8848 22.4435 59.3077 22.0293 59.8168 21.7475C60.3258 21.4657 60.902 21.3267 61.4839 21.3454C63.7883 21.3454 65.3072 23.1618 65.3072 25.9675ZM63.3917 25.9675C63.3917 24.1345 62.4417 22.9294 60.9924 22.9294C59.5684 22.9294 58.6107 24.1599 58.6107 25.9675C58.6107 27.7917 59.5684 29.0134 60.9924 29.0134C62.4417 29.0134 63.3917 27.8171 63.3917 25.9675H63.3917Z" fill="white"/>
<path d="M71.9118 27.0323C72.0499 28.2637 73.2495 29.0723 74.8889 29.0723C76.4597 29.0723 77.5898 28.2637 77.5898 27.1533C77.5898 26.1895 76.9082 25.6123 75.2943 25.2168L73.6804 24.8291C71.3937 24.2783 70.3322 23.2119 70.3322 21.4814C70.3322 19.3389 72.2046 17.8672 74.8634 17.8672C77.4948 17.8672 79.2987 19.3389 79.3594 21.4814H77.4781C77.3655 20.2422 76.3382 19.4941 74.8369 19.4941C73.3357 19.4941 72.3084 20.251 72.3084 21.3525C72.3084 22.2305 72.9645 22.7471 74.5696 23.1425L75.9416 23.4785C78.4966 24.081 79.5582 25.1045 79.5582 26.9209C79.5582 29.2441 77.7024 30.6992 74.7508 30.6992C71.9891 30.6992 70.1245 29.2783 70.0041 27.0322L71.9118 27.0323Z" fill="white"/>
<path d="M83.5802 19.2969V21.4395H85.3067V22.9111H83.5802V27.9023C83.5802 28.6777 83.9259 29.0391 84.6849 29.0391C84.8898 29.0355 85.0945 29.0211 85.2979 28.9961V30.459C84.9567 30.5225 84.6099 30.5513 84.2628 30.5449C82.4246 30.5449 81.7078 29.8564 81.7078 28.1006V22.9111H80.3877V21.4395H81.7078V19.2969H83.5802Z" fill="white"/>
<path d="M86.3066 25.9668C86.3066 23.1182 87.9891 21.3281 90.6126 21.3281C93.245 21.3281 94.9196 23.1181 94.9196 25.9668C94.9196 28.8232 93.2538 30.6055 90.6126 30.6055C87.9724 30.6055 86.3066 28.8232 86.3066 25.9668ZM93.0207 25.9668C93.0207 24.0127 92.1227 22.8594 90.6126 22.8594C89.1025 22.8594 88.2055 24.0215 88.2055 25.9668C88.2055 27.9287 89.1025 29.0732 90.6126 29.0732C92.1227 29.0732 93.0207 27.9287 93.0207 25.9668H93.0207Z" fill="white"/>
<path d="M96.4561 21.4401H98.2335V22.9811H98.2766C98.3969 22.4998 98.6796 22.0744 99.0773 21.7766C99.475 21.4787 99.9634 21.3264 100.46 21.3453C100.675 21.3446 100.889 21.3678 101.099 21.4147V23.1529C100.828 23.0703 100.545 23.0324 100.262 23.0406C99.9909 23.0297 99.721 23.0773 99.4704 23.1802C99.2199 23.2831 98.9946 23.4388 98.8102 23.6367C98.6257 23.8346 98.4863 24.0699 98.4016 24.3266C98.317 24.5833 98.289 24.8552 98.3197 25.1236V30.4938H96.4561L96.4561 21.4401Z" fill="white"/>
<path d="M109.691 27.834C109.441 29.4775 107.836 30.6055 105.782 30.6055C103.141 30.6055 101.501 28.8408 101.501 26.0098C101.501 23.1699 103.15 21.3281 105.704 21.3281C108.216 21.3281 109.795 23.0488 109.795 25.7939V26.4307H103.383V26.543C103.353 26.8762 103.395 27.2118 103.505 27.5277C103.616 27.8435 103.793 28.1323 104.024 28.3748C104.255 28.6174 104.535 28.8082 104.845 28.9345C105.156 29.0608 105.49 29.1197 105.825 29.1074C106.265 29.1486 106.707 29.0469 107.085 28.8174C107.463 28.588 107.756 28.2431 107.922 27.834L109.691 27.834ZM103.392 25.1318H107.931C107.947 24.8322 107.902 24.5324 107.797 24.2512C107.692 23.97 107.53 23.7135 107.321 23.4977C107.111 23.2819 106.86 23.1116 106.582 22.9974C106.303 22.8832 106.004 22.8275 105.704 22.834C105.4 22.8322 105.099 22.8903 104.819 23.0051C104.538 23.1198 104.282 23.2889 104.067 23.5025C103.853 23.7161 103.682 23.9701 103.566 24.2498C103.45 24.5294 103.391 24.8292 103.392 25.1318V25.1318Z" fill="white"/>
<path d="M37.9323 8.73333C38.323 8.70537 38.7151 8.76423 39.0802 8.90567C39.4454 9.0471 39.7745 9.26758 40.0438 9.55121C40.3131 9.83483 40.516 10.1745 40.6377 10.5458C40.7595 10.9171 40.7971 11.3107 40.7478 11.6982C40.7478 13.6044 39.7147 14.7002 37.9323 14.7002H35.771V8.73333H37.9323ZM36.7003 13.8563H37.8285C38.1077 13.873 38.3871 13.8273 38.6464 13.7227C38.9056 13.6181 39.1382 13.4571 39.3273 13.2516C39.5163 13.046 39.6569 12.801 39.739 12.5344C39.8211 12.2678 39.8426 11.9863 39.8018 11.7103C39.8396 11.4355 39.816 11.1557 39.7326 10.8911C39.6493 10.6264 39.5083 10.3834 39.3197 10.1795C39.1311 9.97554 38.8996 9.81573 38.6418 9.71149C38.384 9.60726 38.1063 9.56117 37.8285 9.57654H36.7003V13.8563Z" fill="white"/>
<path d="M41.7977 12.4458C41.7693 12.1498 41.8032 11.8513 41.8973 11.5692C41.9914 11.2871 42.1436 11.0278 42.3441 10.8078C42.5446 10.5878 42.789 10.4121 43.0616 10.2918C43.3343 10.1715 43.6291 10.1094 43.9272 10.1094C44.2253 10.1094 44.5201 10.1715 44.7927 10.2918C45.0653 10.4121 45.3097 10.5878 45.5102 10.8078C45.7107 11.0278 45.8629 11.2871 45.957 11.5692C46.0511 11.8513 46.0851 12.1498 46.0567 12.4458C46.0856 12.742 46.0521 13.041 45.9582 13.3235C45.8643 13.606 45.7123 13.8658 45.5117 14.0862C45.3111 14.3067 45.0666 14.4828 44.7937 14.6033C44.5208 14.7239 44.2256 14.7861 43.9272 14.7861C43.6287 14.7861 43.3336 14.7239 43.0607 14.6033C42.7878 14.4828 42.5432 14.3067 42.3426 14.0862C42.1421 13.8658 41.99 13.606 41.8961 13.3235C41.8023 13.041 41.7687 12.742 41.7977 12.4458ZM45.14 12.4458C45.14 11.4697 44.7003 10.8989 43.9286 10.8989C43.154 10.8989 42.7182 11.4697 42.7182 12.4458C42.7182 13.4297 43.154 13.9961 43.9286 13.9961C44.7003 13.996 45.14 13.4257 45.14 12.4458H45.14Z" fill="white"/>
<path d="M51.718 14.6982H50.7935L49.8602 11.3818H49.7897L48.8604 14.6982H47.9447L46.7 10.1953H47.6039L48.4128 13.6313H48.4794L49.4078 10.1953H50.2627L51.1911 13.6313H51.2616L52.0666 10.1953H52.9578L51.718 14.6982Z" fill="white"/>
<path d="M54.0049 10.1929H54.8628V10.9082H54.9293C55.0423 10.6513 55.2329 10.436 55.4744 10.2921C55.716 10.1483 55.9965 10.0833 56.2769 10.106C56.4966 10.0895 56.7172 10.1226 56.9224 10.2027C57.1275 10.2827 57.312 10.4079 57.4621 10.5687C57.6122 10.7295 57.7241 10.922 57.7895 11.1318C57.8549 11.3416 57.8721 11.5634 57.8398 11.7808V14.6958H56.9487V12.004C56.9487 11.2803 56.6333 10.9205 55.9743 10.9205C55.8251 10.9135 55.6762 10.9388 55.5377 10.9947C55.3993 11.0505 55.2746 11.1355 55.1722 11.2439C55.0698 11.3523 54.9921 11.4815 54.9444 11.6226C54.8967 11.7637 54.8802 11.9135 54.896 12.0616V14.6958H54.0049L54.0049 10.1929Z" fill="white"/>
<path d="M59.2596 8.4375H60.1508V14.6982H59.2596V8.4375Z" fill="white"/>
<path d="M61.3899 12.4458C61.3616 12.1499 61.3955 11.8513 61.4897 11.5692C61.5838 11.2872 61.736 11.0278 61.9365 10.8078C62.137 10.5878 62.3815 10.4121 62.6541 10.2918C62.9267 10.1715 63.2216 10.1094 63.5197 10.1094C63.8178 10.1094 64.1126 10.1715 64.3853 10.2918C64.6579 10.4121 64.9023 10.5878 65.1028 10.8078C65.3034 11.0278 65.4556 11.2872 65.5497 11.5692C65.6438 11.8513 65.6778 12.1499 65.6494 12.4458C65.6783 12.7421 65.6447 13.0411 65.5508 13.3236C65.457 13.6061 65.3048 13.8659 65.1043 14.0863C64.9037 14.3067 64.6591 14.4829 64.3862 14.6034C64.1133 14.7239 63.8181 14.7862 63.5197 14.7862C63.2212 14.7862 62.926 14.7239 62.6531 14.6034C62.3802 14.4829 62.1356 14.3067 61.9351 14.0863C61.7345 13.8659 61.5824 13.6061 61.4885 13.3236C61.3946 13.0411 61.361 12.7421 61.3899 12.4458ZM64.7323 12.4458C64.7323 11.4698 64.2926 10.899 63.5209 10.899C62.7463 10.899 62.3105 11.4698 62.3105 12.4458C62.3105 13.4297 62.7463 13.9961 63.5209 13.9961C64.2926 13.9961 64.7323 13.4258 64.7323 12.4458H64.7323Z" fill="white"/>
<path d="M66.5869 13.4258C66.5869 12.6152 67.1921 12.1479 68.2664 12.0815L69.4896 12.0112V11.6226C69.4896 11.147 69.1742 10.8784 68.5651 10.8784C68.0676 10.8784 67.7229 11.0605 67.624 11.3789H66.7612C66.8523 10.6055 67.5819 10.1094 68.6062 10.1094C69.7383 10.1094 70.3768 10.6714 70.3768 11.6226V14.6992H69.519V14.0664H69.4484C69.3053 14.2934 69.1044 14.4784 68.8661 14.6027C68.6278 14.7269 68.3607 14.7858 68.0921 14.7734C67.9025 14.7931 67.7109 14.7729 67.5297 14.7142C67.3484 14.6555 67.1815 14.5596 67.0397 14.4326C66.8979 14.3056 66.7843 14.1504 66.7063 13.977C66.6283 13.8036 66.5877 13.6158 66.5869 13.4258ZM69.4896 13.041V12.6645L68.3869 12.7349C67.765 12.7764 67.483 12.9873 67.483 13.3843C67.483 13.7895 67.8355 14.0254 68.3203 14.0254C68.4624 14.0397 68.6058 14.0254 68.7422 13.9833C68.8786 13.9412 69.0051 13.8722 69.1142 13.7804C69.2233 13.6885 69.3128 13.5757 69.3772 13.4487C69.4417 13.3217 69.4799 13.183 69.4896 13.041Z" fill="white"/>
<path d="M71.5484 12.4448C71.5484 11.022 72.2819 10.1206 73.4228 10.1206C73.705 10.1077 73.9851 10.1751 74.2303 10.315C74.4755 10.4548 74.6757 10.6615 74.8075 10.9106H74.8741V8.4375H75.7653V14.6982H74.9113V13.9868H74.8408C74.6988 14.2343 74.4916 14.4383 74.2417 14.5768C73.9917 14.7153 73.7085 14.783 73.4228 14.7724C72.2741 14.7725 71.5484 13.8711 71.5484 12.4448ZM72.469 12.4448C72.469 13.3999 72.9204 13.9746 73.6755 13.9746C74.4266 13.9746 74.8908 13.3916 74.8908 12.4487C74.8908 11.5103 74.4217 10.919 73.6755 10.919C72.9253 10.919 72.4689 11.4976 72.4689 12.4448H72.469Z" fill="white"/>
<path d="M79.4525 12.4458C79.4241 12.1498 79.458 11.8513 79.5521 11.5692C79.6462 11.2871 79.7984 11.0278 79.9989 10.8078C80.1994 10.5878 80.4438 10.4121 80.7164 10.2918C80.989 10.1715 81.2838 10.1094 81.582 10.1094C81.8801 10.1094 82.1749 10.1715 82.4475 10.2918C82.7201 10.4121 82.9645 10.5878 83.165 10.8078C83.3655 11.0278 83.5177 11.2871 83.6118 11.5692C83.7059 11.8513 83.7398 12.1498 83.7114 12.4458C83.7404 12.742 83.7068 13.041 83.613 13.3235C83.5191 13.606 83.367 13.8658 83.1665 14.0862C82.9659 14.3067 82.7213 14.4828 82.4485 14.6033C82.1756 14.7239 81.8804 14.7861 81.582 14.7861C81.2835 14.7861 80.9883 14.7239 80.7154 14.6033C80.4426 14.4828 80.198 14.3067 79.9974 14.0862C79.7969 13.8658 79.6448 13.606 79.5509 13.3235C79.4571 13.041 79.4235 12.742 79.4525 12.4458ZM82.7948 12.4458C82.7948 11.4697 82.3551 10.8989 81.5834 10.8989C80.8088 10.8989 80.373 11.4697 80.373 12.4458C80.373 13.4297 80.8088 13.9961 81.5834 13.9961C82.3551 13.996 82.7948 13.4257 82.7948 12.4458Z" fill="white"/>
<path d="M84.9072 10.1929H85.7651V10.9082H85.8317C85.9447 10.6513 86.1352 10.436 86.3768 10.2921C86.6183 10.1483 86.8988 10.0833 87.1792 10.106C87.3989 10.0895 87.6196 10.1226 87.8247 10.2027C88.0299 10.2827 88.2144 10.4079 88.3645 10.5687C88.5146 10.7295 88.6265 10.922 88.6919 11.1318C88.7572 11.3416 88.7744 11.5634 88.7422 11.7808V14.6958H87.851V12.004C87.851 11.2803 87.5357 10.9205 86.8766 10.9205C86.7274 10.9135 86.5785 10.9388 86.4401 10.9947C86.3016 11.0505 86.1769 11.1355 86.0745 11.2439C85.9721 11.3523 85.8944 11.4815 85.8467 11.6226C85.7991 11.7637 85.7826 11.9135 85.7984 12.0616V14.6958H84.9072V10.1929Z" fill="white"/>
<path d="M93.7776 9.07422V10.2158H94.756V10.9644H93.7776V13.2798C93.7776 13.7515 93.9725 13.958 94.4161 13.958C94.5297 13.9576 94.6432 13.9508 94.756 13.9375V14.6777C94.5959 14.7063 94.4338 14.7215 94.2712 14.7231C93.2801 14.7231 92.8855 14.3755 92.8855 13.5073V10.9643H92.1686V10.2158H92.8855V9.07422H93.7776Z" fill="white"/>
<path d="M95.9732 8.4375H96.8566V10.919H96.9271C97.0455 10.6596 97.2413 10.443 97.4877 10.2987C97.7341 10.1543 98.0191 10.0893 98.3039 10.1123C98.5225 10.1004 98.741 10.1368 98.9438 10.2189C99.1467 10.3009 99.3289 10.4266 99.4774 10.5869C99.6259 10.7473 99.7372 10.9383 99.8031 11.1465C99.8691 11.3546 99.8882 11.5747 99.859 11.791V14.6982H98.967V12.0103C98.967 11.291 98.6311 10.9268 98.0014 10.9268C97.8482 10.9142 97.6942 10.9352 97.55 10.9883C97.4058 11.0413 97.275 11.1252 97.1667 11.2339C97.0584 11.3426 96.9752 11.4737 96.923 11.6178C96.8708 11.7619 96.8508 11.9157 96.8644 12.0683V14.6982H95.9733L95.9732 8.4375Z" fill="white"/>
<path d="M105.055 13.4835C104.934 13.895 104.672 14.251 104.314 14.4891C103.956 14.7273 103.526 14.8324 103.098 14.7862C102.801 14.794 102.505 14.7372 102.232 14.6197C101.959 14.5022 101.714 14.3267 101.516 14.1056C101.317 13.8845 101.17 13.6229 101.083 13.3391C100.996 13.0553 100.972 12.756 101.012 12.462C100.973 12.1671 100.997 11.8672 101.084 11.5825C101.171 11.2978 101.318 11.0351 101.515 10.812C101.713 10.5889 101.956 10.4107 102.228 10.2895C102.501 10.1683 102.796 10.1069 103.094 10.1095C104.351 10.1095 105.109 10.9654 105.109 12.3794V12.6895H101.92V12.7393C101.906 12.9046 101.927 13.0709 101.981 13.2277C102.036 13.3844 102.122 13.5281 102.235 13.6496C102.349 13.771 102.486 13.8676 102.639 13.933C102.792 13.9984 102.957 14.0312 103.123 14.0293C103.336 14.0549 103.552 14.0166 103.743 13.9194C103.935 13.8222 104.093 13.6704 104.197 13.4834L105.055 13.4835ZM101.92 12.0323H104.201C104.212 11.8812 104.192 11.7294 104.141 11.5867C104.089 11.4439 104.009 11.3135 103.904 11.2036C103.8 11.0937 103.673 11.0069 103.533 10.9488C103.392 10.8906 103.241 10.8623 103.089 10.8658C102.935 10.8639 102.782 10.8927 102.64 10.9507C102.497 11.0086 102.367 11.0945 102.258 11.2032C102.149 11.3119 102.063 11.4413 102.005 11.5837C101.947 11.7261 101.918 11.8786 101.92 12.0323H101.92Z" fill="white"/>
</svg>
