<svg width="24" height="31" viewBox="0 0 24 31" fill="none" xmlns="http://www.w3.org/2000/svg">
<g clip-path="url(#clip0_11638_138018)">
<path d="M5.19043 25.2773C5.35132 26.1668 5.88181 27.4967 6.29924 28.302" stroke="#DB9E70" stroke-width="1.13386" stroke-miterlimit="10"/>
<path d="M7.24723 30.2725H3.33594C3.69032 29.8386 4.2469 29.4284 4.79479 29.3031C4.60346 28.6209 4.5078 27.9322 4.31648 27.25H7.48204C7.45595 28.2215 7.34072 29.3053 7.24723 30.2725Z" fill="#A3DBCE"/>
<path d="M5.02696 2.04246C3.9638 2.49368 2.99848 3.16295 2.21579 4.01573C1.0874 5.24416 0.70258 6.82235 0.698232 8.44803C0.693884 10.4321 0.506907 12.3643 0.356891 14.3441C0.00250491 18.9815 1.13958 23.0036 5.16176 25.6742C7.31851 27.1056 10.308 27.3668 12.8452 27.0494C15.6542 26.6997 18.1219 24.8106 19.5916 22.4099C20.7091 20.5856 21.307 18.4892 21.5766 16.3821C21.7766 14.819 21.9244 9.5901 19.0676 10.4386C18.2045 10.6955 17.3609 11.0495 16.4978 11.2913C16.9261 8.4653 16.9152 5.79901 14.6193 3.77177C12.7908 2.15904 10.1319 1.20048 7.70768 1.38615C6.78367 1.45739 5.87488 1.67976 5.02696 2.04246Z" fill="#CDD4E8"/>
<path d="M17.4009 13.9075C17.4422 13.9032 17.4835 13.8988 17.5248 13.8902C18.2445 13.7628 19.0467 13.1065 19.6294 12.6985C21.0209 11.7226 22.2406 10.5288 23.4494 9.3435C24.4191 8.39356 24.0081 6.783 22.958 6.03601C21.3383 4.88313 18.8967 5.06449 17.4683 6.44189C16.9922 6.89958 16.6291 7.46306 16.3204 8.04598C15.8333 8.96568 15.4724 9.948 15.2463 10.9627C15.105 11.5996 15.255 12.4502 15.7246 12.9079C16.2551 13.4217 16.6465 13.9787 17.4009 13.9075Z" fill="#2F2A4A"/>
<path d="M19.086 5.46875C17.8816 7.64712 16.9054 9.94854 16.1792 12.3255" stroke="#C6D1F0" stroke-width="0.335683" stroke-miterlimit="10" stroke-linecap="round"/>
<path d="M22.4516 5.71875C20.5862 8.09358 18.8142 10.5397 17.1401 13.0527" stroke="#C6D1F0" stroke-width="0.335683" stroke-miterlimit="10" stroke-linecap="round"/>
<path d="M5.02717 2.04246C3.96402 2.49368 2.99869 3.16295 2.216 4.01573C1.08762 5.24416 0.702794 6.82235 0.698446 8.44803C0.694098 10.4321 0.507121 12.3643 0.357105 14.3441C0.224482 16.0712 0.0635949 17.6688 1.53332 18.88C3.51397 20.5122 6.45559 20.6223 8.8428 19.668C11.8714 18.459 14.613 15.7582 16.1175 12.9127C16.461 12.2629 16.3936 11.6713 16.5262 10.9826C16.6567 10.3112 16.7067 9.62465 16.7132 8.94026C16.7328 6.967 16.1349 5.11247 14.6173 3.77177C12.7911 2.15904 10.1321 1.20048 7.7079 1.38615C6.78388 1.45739 5.87509 1.67976 5.02717 2.04246Z" fill="#9D9FBD"/>
<path d="M8.54054 2.83613C8.55141 3.19235 8.50575 3.64141 8.16658 3.76015C7.88612 3.85946 7.57521 3.63493 7.47303 3.35643C7.37084 3.07793 7.31866 2.74977 7.36867 2.45831C6.89253 2.68932 6.36639 2.82317 5.83807 2.85124C5.74676 2.85556 5.6424 2.8534 5.575 2.79079C5.43585 2.66125 5.575 2.43241 5.72284 2.3115C6.18593 1.93801 6.78165 1.65519 7.37737 1.65303C7.08168 1.51054 6.83166 1.26658 6.67946 0.970806C6.5251 0.666396 6.5164 0.223814 6.81426 0.0575758C7.12951 -0.117298 7.50347 0.139615 7.76871 0.381416C8.09484 0.67719 8.41878 0.972965 8.74491 1.26874C9.13408 1.62065 8.79274 2.37843 8.54054 2.83613Z" fill="#8488BE"/>
<path d="M6.80594 1.16016C6.93856 1.34798 7.1038 1.50559 7.28642 1.63728L7.35165 1.68478L7.26903 1.70421C6.95595 1.77545 6.64288 1.88556 6.34719 2.01294C6.19935 2.07986 6.05803 2.15543 5.92976 2.24394C5.80583 2.33246 5.69278 2.44904 5.6819 2.55483C5.6819 2.58074 5.6819 2.60664 5.69278 2.63255C5.70365 2.66709 5.70582 2.66062 5.72321 2.67789C5.758 2.70164 5.83192 2.71459 5.90367 2.71459C6.04716 2.71459 6.2124 2.68437 6.36676 2.65198C6.67766 2.5829 6.97987 2.47063 7.26468 2.32598C7.41035 2.25258 7.53645 2.17702 7.63211 2.06691C7.7256 1.9676 7.79735 1.80784 7.75822 1.74739C7.74952 1.73012 7.7343 1.71716 7.7256 1.71284C7.71691 1.71068 7.71256 1.70853 7.69299 1.71716C7.65603 1.73659 7.59733 1.80568 7.55385 1.86181C7.46253 1.98055 7.39731 2.12088 7.36035 2.26985C7.28208 2.56994 7.31469 2.89378 7.43209 3.18956C7.48862 3.33852 7.56689 3.48101 7.67342 3.59759C7.77996 3.71418 7.92997 3.79622 8.09956 3.79406C8.01694 3.80485 7.93215 3.79838 7.8517 3.77031C7.77343 3.74008 7.69951 3.69475 7.63429 3.63861C7.50819 3.52419 7.41035 3.3817 7.33643 3.23058C7.18641 2.92832 7.12989 2.5721 7.19511 2.23099C7.22772 2.06043 7.29295 1.89419 7.39296 1.74523C7.44731 1.67182 7.48862 1.6049 7.59081 1.53581C7.64081 1.50343 7.7256 1.48616 7.79518 1.51206C7.86257 1.53581 7.91041 1.58331 7.94302 1.63728C8.01042 1.75602 7.98433 1.87692 7.94954 1.9676C7.91475 2.05827 7.86257 2.13815 7.8017 2.20724C7.68212 2.34973 7.51906 2.44472 7.37122 2.52029C7.07118 2.68005 6.74941 2.79447 6.41459 2.86356C6.24718 2.89594 6.08412 2.92832 5.89715 2.92185C5.80583 2.91537 5.70799 2.90674 5.60364 2.83981C5.55363 2.80958 5.50362 2.73402 5.4971 2.68868C5.47971 2.63687 5.47536 2.58074 5.48188 2.5246C5.52319 2.29792 5.6906 2.18349 5.82975 2.0885C5.97759 1.99566 6.13195 1.92658 6.28849 1.86613C6.60374 1.74955 6.92334 1.65671 7.25816 1.62001L7.23859 1.68694C7.06684 1.54229 6.9103 1.36526 6.80594 1.16016Z" fill="#C6D1F0"/>
<path d="M6.37144 12.2754C6.33231 12.6835 6.05837 13.1174 5.61484 13.0937C5.29307 13.0764 5.00173 12.8475 5.07348 12.5043C5.12131 12.2797 5.30176 12.1027 5.50831 12.0012C5.86487 11.8242 6.42797 11.6947 6.37144 12.2754Z" fill="#DB9E70"/>
<path d="M6.10815 11.6791C6.31904 11.8324 6.37991 12.0915 6.11467 12.4412C5.95161 12.6571 5.69071 12.7715 5.44721 12.8881C5.2037 13.0047 4.94933 13.145 4.82323 13.3825C4.38622 13.0587 4.27099 12.3808 4.57537 11.9317C4.8928 11.4632 5.73419 11.4071 6.10815 11.6791Z" fill="#DB9E70"/>
<path d="M6.29079 11.9609C6.35167 12.2286 6.21687 12.5308 5.98424 12.6992C5.86683 12.7834 5.73856 12.8352 5.61246 12.8741C5.48636 12.9151 5.3646 12.9475 5.23633 12.9907C5.32329 12.8849 5.44287 12.8093 5.55593 12.7446C5.66898 12.6776 5.78204 12.6237 5.8777 12.5524C6.06468 12.4164 6.20382 12.2156 6.29079 11.9609Z" fill="#D87E41"/>
<path d="M5.45356 10.8711C5.05569 10.8431 4.65347 10.9596 4.40997 11.3245C4.33822 11.4303 4.28822 11.5598 4.31865 11.685C4.36214 11.8621 4.55781 11.9679 4.74044 11.97C4.92307 11.97 5.097 11.8923 5.26223 11.8146C5.47313 11.875 5.67532 11.9247 5.88839 11.9851C6.09928 12.0456 6.35148 12.0974 6.52106 11.9592C7.01677 11.5533 6.24277 10.9273 5.45356 10.8711Z" fill="#E0E7FC"/>
<path d="M7.11914 10.4086C7.22133 10.0092 7.59745 9.69396 8.01054 9.65941C8.42363 9.62487 8.84759 9.87099 9.01717 10.2466" stroke="#2F2A4A" stroke-width="0.680311" stroke-miterlimit="10" stroke-linecap="round"/>
<path d="M4.09481 10.4086C3.99262 10.0092 3.6165 9.69396 3.20341 9.65941C2.79032 9.62487 2.36636 9.87099 2.19678 10.2466" stroke="#2F2A4A" stroke-width="0.680311" stroke-miterlimit="10" stroke-linecap="round"/>
<path d="M10.0235 10.9509C10.3757 11.0783 10.6627 11.3503 10.704 11.7367C10.7432 12.0973 10.5431 12.4643 10.2387 12.6629C9.8474 12.9155 9.29082 12.8896 8.93644 12.5895C8.58205 12.2894 8.47117 11.7346 8.69511 11.3287C8.94731 10.8775 9.54302 10.7782 10.0235 10.9509Z" fill="#A3DBCE"/>
<path d="M1.91215 10.6774C2.1513 10.8048 2.34698 11.0769 2.37742 11.4633C2.4035 11.8238 2.26871 12.1909 2.05999 12.3895C1.79474 12.6421 1.41427 12.6162 1.17294 12.3161C0.931607 12.016 0.855512 11.4611 1.00988 11.0553C1.17729 10.604 1.58603 10.5047 1.91215 10.6774Z" fill="#A3DBCE"/>
<path d="M7.69727 8.64235C7.93425 8.48043 8.26037 8.45884 8.51909 8.58622" stroke="#2F2A4A" stroke-width="0.226761" stroke-miterlimit="10" stroke-linecap="round"/>
<path d="M3.80519 8.45148C3.61822 8.29604 3.35297 8.23775 3.11816 8.30467" stroke="#2F2A4A" stroke-width="0.226761" stroke-miterlimit="10" stroke-linecap="round"/>
<path d="M13.604 6.28125C13.7366 6.3892 13.7888 6.58566 13.7258 6.74326" stroke="#2F2A4A" stroke-width="0.226761" stroke-miterlimit="10" stroke-linecap="round"/>
<path d="M14.2891 6.60938C14.3717 6.76482 14.4195 6.93753 14.4304 7.11241" stroke="#2F2A4A" stroke-width="0.226761" stroke-miterlimit="10" stroke-linecap="round"/>
<path d="M13.9106 7.57812C13.9502 7.71198 13.9699 7.85015 13.9677 7.98832" stroke="#2F2A4A" stroke-width="0.226761" stroke-miterlimit="10" stroke-linecap="round"/>
<path d="M18.2181 11.5359C17.5441 11.9698 16.8702 12.4016 16.1962 12.8355C13.8459 14.3468 10.9043 16.8231 11.5283 20.3076C11.774 21.6785 12.8002 22.7105 13.9807 23.0322C15.9635 23.5719 17.7659 22.4104 19.1987 20.7761C20.838 18.9065 21.8185 16.3309 21.9707 13.7704C22.0229 12.8766 22.1751 11.0328 21.4402 10.5665C20.5597 10.003 19.003 11.0307 18.2181 11.5359Z" fill="#E0E7FC"/>
<path d="M15.6445 15.9307C17.9906 15.1424 20.8106 13.3702 21.6597 10.9531" stroke="#C6D1F0" stroke-width="0.226056" stroke-miterlimit="10" stroke-linecap="round"/>
<path d="M16.981 18.9153C18.9915 17.9906 20.7253 16.344 21.6594 14.2695" stroke="#C6D1F0" stroke-width="0.226056" stroke-miterlimit="10" stroke-linecap="round"/>
<path d="M18.5764 21.3562C18.9525 20.8704 19.0678 20.1731 18.8656 19.5966C18.6634 19.0202 18.1307 18.4848 17.5524 18.4006C17.8068 18.0811 18.0176 17.7076 18.0916 17.3017C18.1655 16.8936 18.0872 16.4489 17.8285 16.1488C17.4589 15.7213 16.9219 15.6112 16.3675 15.6004C16.7066 15.2032 16.8219 14.6095 16.6588 14.1151C16.4957 13.6207 16.0609 13.2494 15.5674 13.1824C15.9957 12.9234 16.4001 12.6405 16.861 12.457C17.348 12.5585 17.8089 12.7463 18.0003 13.2299C18.1916 13.7135 18.1437 14.3029 17.8785 14.7606C18.4764 14.806 18.996 15.2377 19.2395 15.8099C19.4852 16.382 19.4135 17.1031 19.0612 17.6277C19.7657 17.727 20.1961 18.4999 20.0679 19.249C19.8983 20.2443 19.2874 20.6675 18.5764 21.3562Z" fill="#2F2A4A"/>
<path d="M21.7679 16.0317C21.6092 15.6949 21.0896 15.4143 20.7634 15.5762C20.9243 15.1379 20.8722 14.6241 20.6308 14.2441C20.3873 13.8641 20.0525 13.6223 19.6133 13.6245C19.8916 13.1668 19.9373 12.5623 19.7286 12.0787C19.5198 11.5951 19.0654 11.2453 18.561 11.1849C18.9567 10.9172 19.3872 10.6775 19.8286 10.5156C20.6069 10.9237 21.0222 11.9492 20.6982 12.8257C21.1048 12.7803 21.5461 13.115 21.6483 13.5317C21.7505 13.9462 21.6505 14.3931 21.5048 14.8033C21.7788 14.6327 22.2158 14.7428 22.2571 15.071C22.3136 15.5028 21.981 15.6474 21.7679 16.0317Z" fill="#2F2A4A"/>
<path d="M12.6153 25.8592C12.7436 26.753 12.6675 27.6749 12.3936 28.5341" stroke="#DB9E70" stroke-width="1.13386" stroke-miterlimit="10"/>
<path d="M11.1845 30.702H15.0958C14.7414 30.2681 14.1848 29.8579 13.637 29.7327C13.8283 29.0504 13.9239 28.3617 14.1153 27.6795H10.9497C10.9758 28.651 11.091 29.7348 11.1845 30.702Z" fill="#A3DBCE"/>
</g>
<defs>
<clipPath id="clip0_11638_138018">
<rect width="23.7265" height="30.7044" fill="white" transform="translate(0.272949)"/>
</clipPath>
</defs>
</svg>
