<svg width="24" height="24" viewBox="0 0 24 24" fill="none" xmlns="http://www.w3.org/2000/svg">
<g clip-path="url(#clip0_11638_132463)">
<path d="M12.1552 11.8201C11.212 10.1864 9.35902 10.7 7.05016 10.0181C3.66311 9.01673 1.98435 10.4758 2.31828 12.0378C2.65079 13.6006 4.88379 13.8705 5.64209 15.349C5.64442 15.353 5.64753 15.3584 5.64986 15.3624C5.65219 15.3665 5.6553 15.3719 5.65763 15.3759C6.47894 16.8216 5.48674 18.846 6.61125 19.9784C7.73576 21.1109 9.86804 20.4934 10.8787 17.0983C11.5668 14.7848 13.0062 13.5052 12.1552 11.8201Z" fill="#0086BF"/>
<path d="M7.83998 9.23413C8.90665 9.7059 10.4535 8.75416 11.295 7.10836C12.1364 5.46256 11.9539 3.74592 10.8872 3.27414C9.82052 2.80237 8.27367 3.75411 7.4322 5.39991C6.59074 7.04572 6.7733 8.76236 7.83998 9.23413Z" fill="#0086BF"/>
<path d="M14.9447 19.299C16.778 19.4882 18.4162 18.7053 18.6037 17.5505C18.7913 16.3957 17.4571 15.3061 15.6239 15.1169C13.7906 14.9278 12.1524 15.7106 11.9649 16.8654C11.7773 18.0203 13.1114 19.1098 14.9447 19.299Z" fill="#0086BF"/>
<path d="M12.386 9.36753C13.1476 10.3045 15.0306 10.0722 16.5918 8.84869C18.153 7.62517 18.8012 5.87374 18.0396 4.93677C17.278 3.9998 15.395 4.23209 13.8338 5.45561C12.2726 6.67913 11.6244 8.43055 12.386 9.36753Z" fill="#0086BF"/>
<path d="M18.3862 13.8806C20.2591 13.2339 21.4797 11.776 21.1125 10.6244C20.7452 9.47268 18.9292 9.06329 17.0563 9.70996C15.1833 10.3566 13.9628 11.8145 14.33 12.9662C14.6973 14.1178 16.5133 14.5272 18.3862 13.8806Z" fill="#0086BF"/>
</g>
<defs>
<clipPath id="clip0_11638_132463">
<rect width="17.4934" height="17.4934" fill="white" transform="translate(15.209) rotate(60)"/>
</clipPath>
</defs>
</svg>
