<svg width="30" height="29" viewBox="0 0 30 29" fill="none" xmlns="http://www.w3.org/2000/svg">
<path d="M23.1411 11.3214C23.1411 11.3214 24.4317 10.7655 25.756 11.5184L24.4975 9.42493L23.1411 11.3214Z" fill="#A56B55"/>
<path d="M25.7945 28.1764H20.6982C20.6982 28.1764 22.0952 14.2901 23.3469 16.1532C26.3098 20.5655 25.7945 28.1764 25.7945 28.1764Z" fill="#A56B55"/>
<path d="M23.3655 18.3293C23.4595 21.5075 24.3361 27.9685 24.3361 27.9685H22.9143C22.9143 27.9685 20.2263 21.3834 20.9201 18.405C21.161 17.3698 23.2766 15.3765 23.3655 18.3293Z" fill="#A56B55"/>
<path fill-rule="evenodd" clip-rule="evenodd" d="M25.8165 10.2499C25.9056 10.1228 26.0006 10.004 26.1015 9.89415L13.2364 9.43976C13.2364 9.43976 4.4267 18.2158 9.12029 27.9687H12.2961C12.3238 28.0442 12.3523 28.1197 12.3813 28.1952H26.8831C26.8831 28.1952 27.6733 18.0471 25.8165 10.2499Z" fill="#C7976F"/>
<path d="M9.69993 27.3451C6.50765 26.396 4.91891 23.4244 4.74244 21.152C4.56596 18.8795 7.91979 12.7614 4.21292 11.8875C0.32938 11.8875 -0.200078 18.1803 1.56499 22.5504C3.33006 26.9204 7.56674 28.3188 10.0969 27.9845L9.69993 27.3451Z" fill="#D4A47C"/>
<path fill-rule="evenodd" clip-rule="evenodd" d="M15.1571 28.2141H8.40622C8.40622 28.2141 5.77058 19.3591 7.81304 18.0756C11.7276 18.0756 15.1571 28.2141 15.1571 28.2141Z" fill="#D4A47C"/>
<path d="M21.0095 17.8304C20.5253 21.0889 20.4571 27.9704 20.4571 27.9704L18.5539 27.432C18.5539 27.432 16.2211 19.7384 17.7229 16.9822C18.2426 16.0231 21.4601 14.804 21.0095 17.8304Z" fill="#D4A47C"/>
<path d="M21.0177 26.4837C20.0448 26.3034 19.6393 26.9595 19.5718 27.5355L19.9569 28.1765H21.7255C22.2644 27.6323 21.9907 26.664 21.0177 26.4837Z" fill="#E6B892"/>
<path d="M9.15546 26.6096C10.7838 26.486 12.6795 28.2165 12.6795 28.2165H8.17101C6.79263 27.5721 7.43586 26.7415 9.15546 26.6096Z" fill="#E6B892"/>
<path d="M18.1969 26.3249C18.9875 26.183 19.4486 26.7172 19.6632 27.3132L19.425 28.1763H17.3371C16.8895 27.4384 17.3608 26.4768 18.1969 26.3249Z" fill="#E6B892"/>
<path d="M19.8822 26.3611C18.943 26.1925 17.7589 26.7802 18.5089 28.1758H20.5072C21.171 27.5948 20.9633 26.5548 19.8822 26.3611Z" fill="#E6B892"/>
<path d="M20.3489 27.4533C20.3202 27.7338 19.9452 27.9558 19.4874 27.9558C19.1395 27.9558 18.8405 27.8289 18.7037 27.6453C18.6749 27.7889 18.7138 27.9658 18.8557 28.1778H20.2054C20.4908 27.9742 20.5381 27.6737 20.3489 27.4533Z" fill="#D4A47C"/>
<path d="M21.8318 27.4533C21.798 27.7338 21.3588 27.9558 20.8216 27.9558C20.4129 27.9558 19.9145 27.9658 20.0784 28.1778H21.7659C22.1004 27.9742 22.0531 27.6737 21.8318 27.4533Z" fill="#D4A47C"/>
<path d="M17.7188 28.1702H18.3556C18.3556 28.1702 18.1613 27.5158 17.9823 27.4824C17.8015 27.4507 17.7188 28.1702 17.7188 28.1702Z" fill="#664444"/>
<path d="M19.1982 28.1702H19.8351C19.8351 28.1702 19.6408 27.5158 19.4618 27.4824C19.281 27.4507 19.1982 28.1702 19.1982 28.1702Z" fill="#664444"/>
<path d="M20.5955 28.1718H21.2323C21.2323 28.1718 20.8404 27.5641 20.6512 27.5324C20.4621 27.5024 20.5955 28.1718 20.5955 28.1718Z" fill="#664444"/>
<path d="M23.0411 17.4245C23.8461 20.9014 24.6763 27.968 24.6763 27.968H26.3492C26.3492 27.968 27.6151 20.7645 25.9404 17.5058C25.3595 16.3759 22.2934 14.1959 23.0411 17.4245Z" fill="#D4A47C"/>
<path d="M28.0783 26.693C27.3486 26.5344 26.8925 27.1104 26.7168 27.6145L26.8857 28.1754H28.2793C28.8198 27.7013 28.808 26.8516 28.0783 26.693Z" fill="#BA8867"/>
<path d="M27.3372 26.4042C26.4369 26.2156 25.8845 26.9034 25.6768 27.5044L25.8947 28.1755H27.6092C28.2646 27.6079 28.2376 26.5929 27.3372 26.4042Z" fill="#E6B892"/>
<path d="M25.0158 26.3252C25.8063 26.1833 26.2675 26.7175 26.482 27.3135L26.2438 28.1766H24.156C23.7083 27.4387 24.1796 26.4771 25.0158 26.3252Z" fill="#E6B892"/>
<path d="M26.3431 27.4537C26.3144 27.7341 25.9394 27.9562 25.4816 27.9562C25.1336 27.9562 24.8346 27.8293 24.6978 27.6457C24.6691 27.7892 24.7079 27.9662 24.8498 28.1782H26.1995C26.485 27.9745 26.5323 27.674 26.3431 27.4537Z" fill="#D4A47C"/>
<path d="M27.8269 27.4537C27.7931 27.7341 27.3539 27.9562 26.8168 27.9562C26.408 27.9562 25.9097 27.9662 26.0735 28.1782H27.761C28.0955 27.9745 28.0482 27.674 27.8269 27.4537Z" fill="#D4A47C"/>
<path d="M24.5376 28.1706H25.1744C25.1744 28.1706 24.9802 27.5162 24.8011 27.4828C24.6204 27.4511 24.5376 28.1706 24.5376 28.1706Z" fill="#664444"/>
<path d="M28.2637 28.1721H27.7637C27.7637 28.1721 28.0373 27.5193 28.186 27.4859C28.3329 27.4542 28.2637 28.1721 28.2637 28.1721Z" fill="#664444"/>
<path d="M27.1123 28.1722H26.4839C26.4839 28.1722 26.8707 27.5645 27.0582 27.5328C27.2457 27.5027 27.1123 28.1722 27.1123 28.1722Z" fill="#664444"/>
<path d="M26.5495 15.746C26.3075 14.9901 25.7763 14.3216 25.0374 13.8429C24.1454 13.2747 23.059 12.962 21.9386 12.9509H21.9221C20.8049 12.873 19.6876 13.0994 18.7363 13.5964C17.9478 14.0152 17.3449 14.639 17.0199 15.3723C15.2662 19.1635 19.0581 21.7446 21.0963 22.3138C21.1571 22.33 21.2095 22.3497 21.2537 22.3636L21.407 22.3277L21.5561 22.3751C21.6017 22.3647 21.6556 22.3497 21.7177 22.3381C23.8098 21.9355 27.8682 19.6564 26.5495 15.746Z" fill="#C7976F"/>
<path d="M20.1672 1.78125L19.3862 2.30936L20.4635 2.36259L20.1672 1.78125Z" fill="#E6B892"/>
<path d="M21.3066 1.8609L20.4731 2.30636L21.539 2.47166L21.3066 1.8609Z" fill="#E6B892"/>
<path d="M18.267 1.66876L18.0444 2.30053L19.1018 2.27252L18.267 1.66876Z" fill="#E6B892"/>
<path d="M23.3438 11.1261C23.3438 11.1261 24.876 10.4159 26.5173 10.7969L24.8831 9.28119L23.3438 11.1261Z" fill="#A56B55"/>
<path d="M10.6748 7.1876C10.6748 7.1876 16.0922 11.8865 20.3983 11.4746C24.7044 11.0628 27.6317 9.0944 27.6317 9.0944L29.0955 7.02703C29.0955 7.02703 25.5378 2.11714 21.4826 2.22221C20.4266 2.25022 17.9263 2.05691 17.4812 2.27684C17.0362 2.49677 13.8565 3.22732 10.6748 7.1876Z" fill="#E6B892"/>
<path d="M27.9478 7.95148C28.0739 8.46626 28.3832 6.61361 28.3722 6.78291C28.3492 7.1261 27.5233 6.75889 27.5233 6.75889C27.5233 6.75889 27.4821 6.86757 27.6591 7.16385C27.7907 7.38406 27.9047 7.54478 27.8611 7.66833C27.8174 7.79187 27.5834 7.83992 27.3093 7.82104C27.1171 7.8096 26.9564 7.84049 26.7563 8.06585C26.7126 8.11498 26.6721 8.16655 26.635 8.22028C26.0389 8.94154 25.2058 9.48834 24.2095 9.879C24.2095 9.879 18.6454 11.5726 15.4261 9.62104C14.9225 9.309 14.4851 8.91094 14.1364 8.44736C14.0563 8.43213 13.9739 8.43213 13.8938 8.44736C13.6228 8.48911 13.3869 8.47424 13.3275 8.34726C13.2681 8.22028 13.3511 8.04411 13.4488 7.80675C13.4996 7.6892 13.5386 7.56741 13.5652 7.44297C13.5652 7.42924 13.5549 7.41895 13.544 7.42467C13.4075 7.49731 12.7793 7.81475 12.7266 7.5139C12.6981 7.34631 12.9552 9.17436 13.0261 8.64872C13.1425 7.79362 13.2383 7.19133 13.3002 6.82698C13.3002 6.81726 13.3032 6.80754 13.305 6.79724C13.3069 6.78694 13.3087 6.77837 13.3099 6.76921C13.3111 6.76006 13.3135 6.75091 13.3147 6.74176C13.3337 6.63613 13.3556 6.53089 13.3802 6.42603C13.5105 5.90911 13.6826 5.40238 13.895 4.9103C13.493 4.32517 11.7903 1.71869 12.5835 0.658827C13.0364 0.0536796 16.4133 1.05292 17.1531 1.28171C17.9758 0.862269 18.881 0.606289 19.8127 0.529561C20.0146 0.511829 20.2123 0.501534 20.4063 0.499819C20.4111 0.499267 20.416 0.499267 20.4209 0.499819C21.1485 0.490095 21.804 0.653106 22.4358 0.834994C22.7001 0.91179 22.9586 1.00523 23.2096 1.11469C23.9306 0.837282 27.3056 -0.425634 27.8029 0.147483C28.6706 1.14786 27.1819 3.847 26.8199 4.46931C26.9266 4.66206 27.0218 4.85253 27.108 5.04529C27.2098 5.27534 27.2967 5.51105 27.3681 5.7511L27.3717 5.76426C27.3996 5.8655 27.6106 6.57303 27.9478 7.95148Z" fill="#E6B892"/>
<path d="M23.0862 6.22485C23.4312 6.22485 23.711 5.94786 23.711 5.60617C23.711 5.26448 23.4312 4.98749 23.0862 4.98749C22.7411 4.98749 22.4614 5.26448 22.4614 5.60617C22.4614 5.94786 22.7411 6.22485 23.0862 6.22485Z" fill="#070C11"/>
<path d="M22.7584 5.23288C22.6697 5.33819 22.6697 5.48737 22.7584 5.55758C22.847 5.62778 22.9932 5.60146 23.0818 5.49176C23.1704 5.38646 23.1704 5.23727 23.0818 5.16706C22.9932 5.09686 22.847 5.12319 22.7584 5.23288Z" fill="white"/>
<path d="M25.0979 2.02625C25.2863 2.15435 25.7593 2.82883 26.1219 3.37035C26.3811 3.75884 26.5843 4.07807 26.5843 4.07807C27.4341 3.47007 27.8065 1.72363 27.849 1.02007C27.8738 0.610812 27.6954 0.666902 27.6954 0.666902C27.638 0.636433 27.2846 0.71953 26.8902 0.843485C26.3945 0.999293 25.828 1.2195 25.7083 1.35869C25.4952 1.60799 24.7743 1.80742 25.0979 2.02625Z" fill="#DCA3B4"/>
<g opacity="0.68">
<path opacity="0.68" d="M27.6811 0.839682C27.4325 0.903391 27.1854 0.983718 26.9383 1.07236C26.6911 1.16099 26.4546 1.2614 26.2223 1.37289C25.761 1.58515 25.3347 1.8636 24.9576 2.19903L24.9505 1.85694C25.0589 1.9525 25.1438 2.04114 25.2338 2.13393C25.3237 2.22672 25.4051 2.32436 25.4859 2.42339C25.648 2.62005 25.7989 2.82364 25.9412 3.03208C26.0835 3.24052 26.2152 3.45519 26.3349 3.6754C26.3987 3.78412 26.4525 3.89699 26.5112 4.0071C26.57 4.1172 26.6196 4.23285 26.6741 4.34503C26.6802 4.3563 26.684 4.36864 26.6852 4.38134C26.6864 4.39404 26.685 4.40685 26.6812 4.41903C26.6774 4.43122 26.6711 4.44254 26.6628 4.45236C26.6544 4.46218 26.6442 4.4703 26.6327 4.47625C26.6212 4.48221 26.6085 4.48589 26.5956 4.48707C26.5826 4.48826 26.5695 4.48694 26.557 4.48318C26.5446 4.47941 26.533 4.47329 26.5229 4.46515C26.5129 4.45701 26.5046 4.44702 26.4985 4.43574V4.43159C26.4362 4.32633 26.376 4.21969 26.3116 4.11582C26.2471 4.01194 26.1827 3.90807 26.1126 3.80835C25.9773 3.60476 25.8293 3.41087 25.6785 3.21974C25.5276 3.02862 25.3634 2.84927 25.1941 2.67614C25.1098 2.58958 25.0227 2.50579 24.9342 2.42547C24.8457 2.34514 24.7508 2.26412 24.6665 2.20179L24.4541 2.04391L24.6609 1.85971C25.0954 1.52964 25.578 1.26517 26.0927 1.07513C26.3441 0.978178 26.6005 0.895079 26.8582 0.823061C27.1169 0.75017 27.3793 0.690308 27.6443 0.643709C27.6704 0.638107 27.6977 0.642877 27.7202 0.656967C27.7427 0.671058 27.7586 0.693316 27.7643 0.718844C27.77 0.744373 27.7652 0.771081 27.7507 0.793093C27.7363 0.815105 27.7136 0.830617 27.6875 0.836219L27.6811 0.839682Z" fill="#46494D"/>
</g>
<g opacity="0.42">
<path opacity="0.42" d="M25.0974 2.02614C25.2858 2.15425 25.7588 2.82873 26.1214 3.37025C26.6242 2.58706 26.8564 1.40637 26.889 0.860696C26.889 0.855156 26.889 0.848924 26.889 0.843384C26.3933 0.999192 25.8268 1.2194 25.7071 1.35859C25.4947 1.60788 24.7738 1.80732 25.0974 2.02614Z" fill="#46494D"/>
</g>
<path d="M15.3591 2.02734C15.1708 2.15545 14.6977 2.82993 14.3352 3.37145C14.076 3.75994 13.8727 4.07917 13.8727 4.07917C13.023 3.47117 12.6505 1.72473 12.608 1.02117C12.5832 0.61191 12.7617 0.668001 12.7617 0.668001C12.819 0.637532 13.1724 0.720629 13.5668 0.844583C14.0625 1.00039 14.629 1.2206 14.7487 1.35979C14.9619 1.60908 15.6827 1.80852 15.3591 2.02734Z" fill="#DCA3B4"/>
<path opacity="0.68" d="M12.7745 0.841208C13.023 0.904917 13.2702 0.985243 13.5173 1.07388C13.7644 1.16252 14.001 1.26293 14.2332 1.37442C14.6945 1.58667 15.1208 1.86513 15.498 2.20055L15.5051 1.85846C15.3967 1.95403 15.3117 2.04267 15.2218 2.13546C15.1319 2.22825 15.0504 2.32589 14.9697 2.42491C14.8075 2.62158 14.6567 2.82517 14.5144 3.03361C14.372 3.24204 14.2403 3.45671 14.1206 3.67692C14.0569 3.78564 14.0031 3.89852 13.9443 4.00862C13.8855 4.11873 13.836 4.23437 13.7814 4.34655C13.7753 4.35783 13.7716 4.37017 13.7704 4.38287C13.7692 4.39556 13.7705 4.40837 13.7744 4.42056C13.7782 4.43274 13.7845 4.44407 13.7928 4.45389C13.8011 4.4637 13.8113 4.47182 13.8229 4.47778C13.8344 4.48373 13.847 4.48741 13.86 4.4886C13.873 4.48979 13.8861 4.48846 13.8985 4.4847C13.911 4.48094 13.9226 4.47482 13.9326 4.46668C13.9427 4.45854 13.951 4.44854 13.9571 4.43727V4.43311C14.0194 4.32786 14.0796 4.22121 14.144 4.11734C14.2085 4.01347 14.2729 3.9096 14.343 3.80988C14.4783 3.60629 14.6263 3.41239 14.7771 3.22127C14.9279 3.03014 15.0922 2.85079 15.2615 2.67767C15.3457 2.59111 15.4328 2.50732 15.5213 2.42699C15.6099 2.34666 15.7048 2.26564 15.789 2.20332L16.0015 2.04543L15.7947 1.86123C15.3602 1.53116 14.8775 1.26669 14.3628 1.07665C14.1114 0.979704 13.8551 0.896605 13.5973 0.824587C13.3386 0.751696 13.0763 0.691834 12.8113 0.645234C12.7852 0.639633 12.7579 0.644403 12.7354 0.658493C12.7129 0.672584 12.697 0.694842 12.6913 0.72037C12.6855 0.745899 12.6904 0.772606 12.7048 0.794619C12.7192 0.816631 12.742 0.832143 12.7681 0.837744L12.7745 0.841208Z" fill="#46494D"/>
<g opacity="0.42">
<path opacity="0.42" d="M15.3586 2.02688C15.1703 2.15499 14.6972 2.82946 14.3347 3.37099C13.8319 2.58779 13.5996 1.4071 13.567 0.861428C13.567 0.855888 13.567 0.849656 13.567 0.844116C14.0627 0.999925 14.6292 1.22013 14.7489 1.35932C14.9614 1.60862 15.6822 1.80805 15.3586 2.02688Z" fill="#46494D"/>
</g>
<path d="M18.6292 6.22485C18.9742 6.22485 19.2539 5.94786 19.2539 5.60617C19.2539 5.26448 18.9742 4.98749 18.6292 4.98749C18.2841 4.98749 18.0044 5.26448 18.0044 5.60617C18.0044 5.94786 18.2841 6.22485 18.6292 6.22485Z" fill="#070C11"/>
<path d="M18.2969 5.23288C18.2083 5.33819 18.2083 5.48737 18.2969 5.55758C18.3856 5.62778 18.5318 5.60146 18.6204 5.49176C18.709 5.38207 18.709 5.23727 18.6204 5.16706C18.5318 5.09686 18.3856 5.12319 18.2969 5.23288Z" fill="white"/>
<path d="M29.1136 7.04007C26.7436 7.77345 23.486 6.45465 20.5293 6.45465C17.3585 6.45465 13.1165 8.06681 10.7466 7.18675C10.7466 7.18675 12.0797 12.6138 20.3744 12.7605C27.4916 12.8863 29.1136 7.04007 29.1136 7.04007Z" fill="#D4A47C"/>
<path d="M20.5288 8.34974L20.2793 8.62431C20.2793 8.62431 21.0844 9.61329 22.1404 8.21246C22.1404 8.21246 21.1127 8.9549 20.5288 8.34974Z" fill="#A56B55"/>
<path d="M12.8133 8.43645L12.7891 8.39289C12.8137 8.37975 15.2379 7.09755 17.8479 7.18939L17.8422 7.33793C17.8231 7.33737 17.804 7.33681 17.7836 7.33621C15.233 7.26123 12.8366 8.42453 12.8133 8.43645Z" fill="white"/>
<path d="M14.4874 9.7549L14.4365 9.71055C14.5025 9.63562 16.0763 7.8823 17.8231 7.46107L17.8583 7.60451C16.1578 8.0145 14.5033 9.73646 14.4874 9.7549Z" fill="white"/>
<path d="M15.6676 10.2776L15.607 10.2557C15.6126 10.242 16.1429 8.88522 17.8883 8.0443L17.9544 8.17731C16.2608 8.99329 15.6718 10.2639 15.6676 10.2776Z" fill="white"/>
<path d="M28.2001 8.63716L28.2269 8.5951C28.2031 8.58054 25.8599 7.15819 23.249 7.09656L23.2458 7.24517C23.2649 7.24573 23.2853 7.24633 23.3044 7.2469C25.8538 7.32058 28.1776 8.62263 28.2001 8.63716Z" fill="white"/>
<path d="M26.4501 9.85365L26.5037 9.81237C26.4423 9.73369 24.9763 7.89102 23.2578 7.36792L23.214 7.50904C24.8857 8.01942 26.4341 9.83427 26.4501 9.85365Z" fill="white"/>
<path d="M25.2404 10.3068L25.3022 10.2885C25.2975 10.2745 24.8494 8.88891 23.1575 7.94695L23.0835 8.07583C24.724 8.98982 25.2357 10.2941 25.2404 10.3068Z" fill="white"/>
<path d="M17.1385 8.66518C17.6643 9.31236 19.1881 10.0044 20.1944 9.10504C21.361 8.06142 20.8053 7.20972 20.8053 7.20972L19.945 6.46869C19.945 6.47009 15.3043 6.41406 17.1385 8.66518Z" fill="#F7D5B7"/>
<path d="M24.9571 8.37898C24.6325 8.95892 23.2477 9.54027 21.904 8.68016C20.4497 7.74861 20.7375 7.0496 20.7375 7.0496L21.3427 6.45005C21.3441 6.45005 26.0613 6.40242 24.9571 8.37898Z" fill="#F7D5B7"/>
<path d="M20.9565 7.32374C20.9565 7.32374 19.479 6.66265 19.7933 6.3666C20.0895 6.08742 21.7098 6.15013 21.8199 6.39596C21.9363 6.6547 20.9565 7.32374 20.9565 7.32374Z" fill="#6B4A43"/>
<path d="M19.0825 7.18727C19.0825 7.11162 19.0428 7.04999 18.9946 7.04999C18.945 7.04999 18.9067 7.11162 18.9067 7.18727C18.9067 7.26291 18.9464 7.32455 18.9946 7.32455C19.0428 7.32455 19.0825 7.26431 19.0825 7.18727Z" fill="#D4A47C"/>
<path d="M18.0127 7.65602C18.0127 7.58037 17.973 7.51874 17.9248 7.51874C17.8766 7.51874 17.8369 7.58037 17.8369 7.65602C17.8369 7.73166 17.8766 7.7933 17.9248 7.7933C17.973 7.7933 18.0127 7.73166 18.0127 7.65602Z" fill="#D4A47C"/>
<path d="M19.0962 8.25911C19.0962 8.18346 19.0565 8.12183 19.0083 8.12183C18.9601 8.12183 18.9204 8.18346 18.9204 8.25911C18.9204 8.33475 18.9601 8.39639 19.0083 8.39639C19.0565 8.39639 19.0962 8.33475 19.0962 8.25911Z" fill="#D4A47C"/>
<path d="M22.4496 8.01222C22.4496 7.93658 22.41 7.87494 22.3603 7.87494C22.3122 7.87494 22.2725 7.93658 22.2725 8.01222C22.2725 8.08786 22.3122 8.1495 22.3603 8.1495C22.41 8.1495 22.4496 8.08786 22.4496 8.01222Z" fill="#D4A47C"/>
<path d="M23.4911 8.06849C23.4911 7.99285 23.4515 7.93121 23.4033 7.93121C23.3537 7.93121 23.314 7.99285 23.314 8.06849C23.314 8.14414 23.3537 8.20577 23.4033 8.20577C23.4515 8.20577 23.4911 8.14414 23.4911 8.06849Z" fill="#D4A47C"/>
<path d="M23.5053 7.05287C23.5053 6.97722 23.4657 6.91559 23.4175 6.91559C23.3693 6.91559 23.3296 6.97722 23.3296 7.05287C23.3296 7.12851 23.3693 7.19015 23.4175 7.19015C23.4642 7.18875 23.5053 7.12851 23.5053 7.05287Z" fill="#D4A47C"/>
<path d="M17.4779 3.97022C17.0059 4.07949 16.4432 4.32603 16.0477 4.98442C16.0477 4.98442 15.7345 4.2644 16.3596 3.91419C16.9846 3.56398 17.4779 3.97022 17.4779 3.97022Z" fill="#BA8867"/>
<path d="M23.9956 3.83081C24.4407 3.97229 24.9609 4.25666 25.294 4.94166C25.294 4.94166 25.6455 4.24405 25.0714 3.85182C24.4974 3.45959 23.9956 3.83081 23.9956 3.83081Z" fill="#BA8867"/>
<path d="M21.1361 6.33967C20.9999 6.34549 20.8903 6.38966 20.8923 6.44019C20.8942 6.48933 21.0059 6.52527 21.1421 6.52085C21.2784 6.51643 21.3879 6.47086 21.386 6.42172C21.3854 6.37106 21.2722 6.33385 21.1361 6.33967Z" fill="white"/>
</svg>
