<svg width="199" height="54" viewBox="0 0 199 54" fill="none" xmlns="http://www.w3.org/2000/svg">
<ellipse cx="26.5297" cy="26.9987" rx="26.2275" ry="26.6667" fill="#008FCC"/>
<mask id="mask0_11638_139154" style="mask-type:alpha" maskUnits="userSpaceOnUse" x="-1" y="0" width="54" height="54">
<ellipse cx="26.1532" cy="26.9987" rx="26.2275" ry="26.6667" fill="#0086BF"/>
</mask>
<g mask="url(#mask0_11638_139154)">
<g filter="url(#filter0_d_11638_139154)">
<path d="M24.724 36.4889C24.3587 36.1601 23.9598 35.818 23.5122 35.5959C22.992 35.9814 21.6503 37.0194 22.4807 38.3949C22.6069 38.6053 22.8716 38.6839 23.0913 38.5764C23.8286 38.2112 24.4438 37.5979 25.1617 36.8989C25.0182 36.7606 24.8715 36.6236 24.724 36.4889Z" fill="#CD9979"/>
<path fill-rule="evenodd" clip-rule="evenodd" d="M23.916 27.0723L25.6675 25.2554C26.8808 24.1139 28.1521 22.8481 27.3451 21.6003C27.219 21.403 26.9528 21.3554 26.7516 21.4755C26.5384 21.6048 26.3279 21.7644 26.1086 21.9307C25.8531 22.1243 25.5856 22.3271 25.2876 22.5019C24.7787 22.7983 19.638 28.0681 17.9642 30.0467C15.0504 32.8247 11.9828 36.7714 8.84473 41.2426L6.72778 44.4831C8.23115 46.3482 10.8278 48.5112 12.5315 49.5515L13.9813 44.9107C17.1643 43.6501 19.4303 40.7482 21.3079 37.1536L23.5578 36.3214L23.6014 36.6936C23.5905 36.7165 23.5574 36.7611 23.5111 36.8236C23.2134 37.2254 22.3676 38.3666 23.3418 39.2463C23.4879 39.3778 23.7108 39.3767 23.8532 39.2412C24.518 38.6133 25.1927 37.6896 25.889 36.7297C25.8771 36.5878 25.8497 36.4367 25.81 36.2804C25.8788 36.2214 25.9515 36.1579 26.0286 36.0895C26.1351 35.5764 26.1431 34.8789 26.0834 34.1742L26.1012 34.1584C26.3919 32.7591 25.9488 29.9884 25.4012 29.4402C24.2247 29.3895 23.1004 29.3804 22.0458 29.427L23.916 27.0723Z" fill="#F6C69C"/>
<path d="M26.7349 21.4629C26.9738 21.3524 27.1269 21.6208 26.8424 22.0392C26.531 22.4942 25.9104 22.953 25.6432 22.8471C25.2862 22.7057 25.2569 22.5258 25.2569 22.5258C25.2569 22.5258 26.2385 21.6921 26.7349 21.4629Z" fill="#FFE2D0"/>
<path d="M25.8103 36.2846C25.7924 36.2906 25.7425 36.2051 25.6641 36.0452C25.5858 35.8853 25.4768 35.6502 25.3373 35.3662C25.1948 35.0836 25.0196 34.7513 24.7836 34.4159C24.6667 34.2486 24.5314 34.0819 24.3757 33.9282C24.3396 33.8876 24.2963 33.8521 24.2562 33.8151C24.216 33.7782 24.1728 33.7426 24.1286 33.7094L24.1029 33.6887C24.1007 33.6878 24.1007 33.6878 24.1007 33.6878L24.0953 33.6883L24.051 33.6891C23.9938 33.6901 23.9343 33.6902 23.8752 33.6957C23.3989 33.7173 22.9424 33.7547 22.5274 33.7848C22.1125 33.815 21.7373 33.8425 21.422 33.8622C20.7915 33.9015 20.4005 33.9096 20.3961 33.8737C20.3927 33.8355 20.7763 33.7588 21.4024 33.6703C21.7144 33.6257 22.0889 33.5795 22.5046 33.5339C22.9195 33.4906 23.3764 33.4455 23.8635 33.4229C23.9238 33.4205 23.9842 33.4181 24.0469 33.4167C24.0889 33.4149 24.1323 33.4163 24.1744 33.4146C24.1913 33.4108 24.1999 33.4221 24.2116 33.432L24.2454 33.4585L24.2887 33.4941C24.3387 33.5323 24.3856 33.5719 24.4293 33.6129C24.4731 33.6539 24.52 33.6935 24.5598 33.7382C24.7268 33.9096 24.8667 34.0912 24.9859 34.2725C25.2245 34.6352 25.3864 34.9886 25.5098 35.2873C25.6301 35.5874 25.7133 35.8359 25.7613 36.0075C25.8094 36.179 25.8281 36.2785 25.8103 36.2846Z" fill="#CD9979"/>
<path d="M26.1009 34.1594C26.0817 34.1623 26.0512 34.0529 26.0092 33.8522C25.9663 33.6538 25.915 33.3626 25.8416 33.0075C25.8061 32.8304 25.7614 32.6366 25.7064 32.436C25.6492 32.2345 25.5811 32.0209 25.4795 31.8202C25.4272 31.7206 25.3678 31.6261 25.2937 31.5494C25.2183 31.4696 25.1373 31.4244 25.027 31.3885C24.9166 31.3527 24.7938 31.3356 24.6671 31.3222C24.5403 31.3087 24.4079 31.3036 24.2745 31.3007C23.7384 31.296 23.2184 31.3371 22.7467 31.3737C22.2749 31.4102 21.8489 31.4491 21.4907 31.4728C20.7725 31.5248 20.3278 31.5248 20.3243 31.4866C20.3208 31.4484 20.7605 31.3807 21.4711 31.281C21.8259 31.2323 22.2514 31.1748 22.7239 31.1227C23.1977 31.0739 23.7199 31.0205 24.2788 31.0263C24.4175 31.0287 24.5567 31.0365 24.6965 31.0498C24.8353 31.0654 24.9715 31.0878 25.1097 31.1321C25.178 31.1565 25.2453 31.1832 25.3119 31.2253C25.3762 31.2666 25.4348 31.3161 25.4818 31.3689C25.5803 31.4763 25.6471 31.5922 25.704 31.7067C25.8139 31.9396 25.8768 32.1669 25.9265 32.3812C25.974 32.5946 26.0084 32.7949 26.0324 32.9753C26.0817 33.3393 26.1053 33.6352 26.1151 33.839C26.1218 34.0441 26.1193 34.1587 26.1009 34.1594Z" fill="#CD9979"/>
<path d="M17.236 31.1694C17.2086 31.1533 17.3372 30.865 17.5915 30.4242C17.654 30.3149 17.7286 30.1946 17.8103 30.0692C17.8523 30.0069 17.8951 29.9424 17.9442 29.8751L17.9614 29.8503C17.9671 29.8421 17.972 29.8361 17.9857 29.8206C18.0115 29.7939 18.0351 29.7796 18.0564 29.7644C18.1005 29.7372 18.1433 29.72 18.1852 29.705C18.3538 29.643 18.5271 29.6091 18.708 29.5756C18.8881 29.5444 19.074 29.5182 19.2644 29.4937C20.0278 29.4045 20.7189 29.3759 21.2182 29.3687C21.7197 29.3623 22.0286 29.3795 22.0307 29.4145C22.0328 29.4495 21.7248 29.4905 21.2273 29.5405C20.7311 29.5937 20.0425 29.6495 19.2906 29.7355C19.1034 29.7586 18.9183 29.7825 18.7445 29.811C18.5707 29.8394 18.4014 29.8696 18.2564 29.9173C18.2207 29.9294 18.1873 29.9425 18.1614 29.9559C18.149 29.9615 18.1378 29.9702 18.137 29.9725C18.1378 29.9702 18.129 29.9799 18.1232 29.9881L18.1046 30.0096C18.0568 30.0669 18.0126 30.1283 17.967 30.1865C17.8804 30.3047 17.8008 30.4177 17.7279 30.5203C17.446 30.9318 17.2648 31.1887 17.236 31.1694Z" fill="#CD9979"/>
<path d="M23.5574 36.3156L23.5996 36.6847C23.7152 36.7541 23.8804 36.8222 24.0678 36.8597C24.2771 36.9005 24.4743 36.8919 24.6123 36.8625C24.7503 36.833 24.8282 36.785 24.8239 36.7491C24.8125 36.671 24.4925 36.6625 24.12 36.5885C23.9703 36.5608 23.8308 36.5265 23.7178 36.4975C23.756 36.4653 23.7951 36.4309 23.835 36.3941C23.9952 36.2393 24.1087 36.0714 24.1702 35.938C24.2317 35.8046 24.2447 35.7098 24.2128 35.6919C24.1391 35.6548 23.5574 36.3156 23.5574 36.3156Z" fill="#CD9979"/>
<path d="M12.5318 49.5529L13.9811 44.9126C17.1679 43.6486 19.4351 40.7424 21.3138 37.1432L12.2324 44.1855L12.5318 49.5529Z" fill="#CD9979"/>
</g>
<path d="M28.3353 19.9589C28.3045 20.0372 28.273 20.1146 28.2502 20.1943C28.2294 20.2678 28.2079 20.3402 28.1864 20.4127C28.1683 20.4761 28.2013 20.5522 28.2601 20.5746C28.2843 20.5836 28.3095 20.5871 28.3363 20.5861C28.3791 20.5834 28.4129 20.558 28.4444 20.5296C28.4961 20.485 28.5489 20.4395 28.5976 20.391C28.6209 20.3677 28.646 20.3444 28.6693 20.321C28.7113 20.2795 28.7523 20.2388 28.7643 20.1786C28.7735 20.1303 28.7661 20.0873 28.7363 20.0511C28.7089 20.0179 28.6624 19.9936 28.6147 20.0033C28.5587 20.0135 28.5176 20.0338 28.4748 20.0744C28.4628 20.0856 28.4526 20.0969 28.4413 20.1091C28.4169 20.1334 28.3923 20.1594 28.3679 20.1837C28.3189 20.234 28.2724 20.2854 28.2267 20.3378C28.3121 20.3767 28.3983 20.4166 28.4836 20.4555C28.4935 20.3814 28.5044 20.3063 28.516 20.2323C28.5279 20.1518 28.5343 20.071 28.537 19.9899C28.5382 19.9447 28.5006 19.9006 28.4555 19.8958C28.4373 19.8946 28.4188 19.8952 28.4012 19.9014C28.3778 19.9091 28.3448 19.9355 28.3353 19.9589Z" fill="#3A3A3A"/>
<g filter="url(#filter1_d_11638_139154)">
<path d="M34.8422 10.2305C34.5808 10.5832 34.2888 10.9149 33.9376 11.175C33.244 11.6886 33.3761 11.4764 32.3926 12.3602C31.409 13.2441 29.6291 16.4519 29.3268 16.9416C29.1776 17.1236 28.8566 17.6307 28.7733 17.7895C28.7733 17.7895 28.0704 19.0101 28.2747 19.7574C28.3928 20.1907 28.9605 20.5759 29.4892 20.4195C30.0939 20.2412 30.5723 19.8932 30.9672 19.4794C31.2601 20.2052 32.0671 20.6553 32.6843 20.6997C33.3015 20.7441 33.8279 20.407 34.1339 20.105C34.3987 20.3968 35.1799 20.493 35.7854 20.2238C36.3909 19.9546 36.5307 19.391 36.6558 19.2807C36.7808 19.1704 37.5391 18.8154 37.7214 18.6919C38.6148 18.0868 38.9434 16.6677 39.1619 15.8679C39.8836 14.9744 40.6704 14.1355 41.5142 13.3605C43.4833 11.5203 46.3567 9.54092 46.3566 9.54093C45.165 8.02874 41.991 5.02426 38.7829 3.41386C38.6037 3.63902 37.5684 5.39716 36.4872 7.35731C35.8592 8.49578 35.4675 9.33492 34.8422 10.2305Z" fill="#F79452"/>
</g>
<path fill-rule="evenodd" clip-rule="evenodd" d="M34.4995 10.6853C35.1805 10.6644 36.0139 10.7906 36.9608 11.2019C37.8087 11.5702 38.3528 11.9474 38.8252 12.275C39.6372 12.838 40.2377 13.2544 41.8062 13.2271C41.7576 13.2711 41.7089 13.3155 41.66 13.3604C40.802 14.1354 40.0021 14.9743 39.2683 15.8678C39.2534 15.9216 39.238 15.9781 39.2219 16.0369C38.9986 16.8546 38.6511 18.1273 37.8036 18.6919C37.7213 18.7467 37.5231 18.8474 37.3172 18.9519C37.06 19.0826 36.7908 19.2193 36.7202 19.2806C36.6856 19.3107 36.6498 19.3744 36.6036 19.4567C36.4804 19.6763 36.2831 20.0279 35.8353 20.2237C35.2196 20.4929 34.4253 20.3968 34.1561 20.105C33.845 20.4069 33.3098 20.744 32.6822 20.6996C32.0547 20.6552 31.2342 20.2051 30.9364 19.4793C30.5349 19.8931 30.0485 20.2411 29.4336 20.4194C28.8961 20.5758 28.3189 20.1906 28.1987 19.7574C27.9911 19.01 28.7057 17.7894 28.7057 17.7894C28.7904 17.6307 29.1168 17.1235 29.2685 16.9415C29.3177 16.8632 29.4053 16.7152 29.5219 16.5184C30.1342 15.4849 31.5456 13.1026 32.3856 12.3601C33.0471 11.7755 33.2122 11.6704 33.4523 11.5177C33.5752 11.4395 33.7177 11.3488 33.9565 11.1749C34.1543 11.0308 34.3337 10.8647 34.4995 10.6853Z" fill="white"/>
<path d="M44.9291 9.43277L45.5237 10.1689L46.3598 9.54442C46.3598 9.54442 45.9445 9.04415 45.6459 8.73474L44.9291 9.43277Z" fill="#DC7B3A"/>
<path d="M38.0623 17.6751C37.8755 17.997 37.5165 18.4839 36.5861 18.9676C36.2971 19.3572 36.214 19.5489 35.7656 19.8212C35.3173 20.0936 34.2599 20.107 34.2599 20.107L34.2599 20.108C34.5246 20.3998 35.3059 20.496 35.9114 20.2268C36.5169 19.9576 36.6567 19.394 36.7817 19.2837C36.9068 19.1733 37.6651 18.8183 37.8473 18.6949C38.7312 18.1335 39.1372 16.5296 39.2877 15.8716L38.8729 15.3192C38.8729 15.3192 38.2492 17.3531 38.0623 17.6751Z" fill="#D1D1D1"/>
<path d="M39.5553 14.6671L40.0148 15.0761L41.3356 13.6487L41.0158 13.2718L39.5553 14.6671Z" fill="#D1D1D1"/>
<path d="M43.1467 11.1943L43.6034 11.6057L45.5243 10.171L44.9297 9.43485L43.1467 11.1943Z" fill="#D78B58"/>
<path d="M38.8729 15.3148L39.2881 15.8672L40.0145 15.0729C40.0145 15.0729 39.7236 14.7806 39.555 14.6639L38.8729 15.3148Z" fill="#D1D1D1"/>
<path d="M40.9694 13.3126L41.2901 13.6885L43.6053 11.726C43.6053 11.726 43.3145 11.4336 43.1469 11.3159L40.9694 13.3126Z" fill="#DC7B3A"/>
<path d="M43.1461 11.1916L44.9292 9.43179C44.6627 9.03437 43.8889 8.49677 43.4241 8.25306C42.9593 8.00934 42.4175 7.73473 41.8113 7.68757C41.4165 7.65684 40.9445 7.8104 40.8391 8.19851C40.7608 8.48675 41.0019 9.14913 41.1676 9.39633C41.6008 10.0428 42.4014 10.6989 43.1461 11.1916Z" fill="#FFBC8F"/>
<path d="M39.345 11.1592C39.5955 11.2403 39.8583 11.31 40.1188 11.2735C40.3792 11.237 40.6378 11.0706 40.7124 10.8143C40.7991 10.5156 40.6219 10.2093 40.4434 9.95644C39.5324 8.66523 38.2262 7.44672 36.9081 6.59312C36.3933 7.48198 36.0917 8.11995 35.7328 8.78662C36.7617 10.0862 37.7803 10.6527 39.345 11.1592Z" fill="#FFBC8F"/>
</g>
<path d="M66.9301 25.9737C67.437 26.0611 68.3018 26.2068 69.2561 26.2068C70.926 26.2068 72.7451 25.7988 74.0273 24.8663C75.3394 23.9046 76.1744 22.3893 76.1744 20.6408C76.1744 19.0672 75.4289 17.7559 73.9975 16.9108C72.9836 16.328 71.6417 15.9783 69.1368 15.9783L60.5784 16.0074H60.3995C60.1609 16.0074 59.982 16.0366 59.982 16.2406C59.982 16.5028 60.3398 16.5028 60.5187 16.5028H61.0555C61.9203 16.5028 62.1887 16.6777 62.308 16.8817C62.3676 16.9982 62.4571 17.2605 62.4571 18.3096V34.104C62.4571 34.8325 62.3974 35.2113 62.2483 35.3862C61.9799 35.7067 60.8169 35.7067 60.3995 35.7067C60.31 35.7067 59.9521 35.7067 59.9521 35.969C59.9521 36.0273 59.982 36.0856 60.0118 36.1147C60.0714 36.2021 60.1907 36.2021 60.31 36.2021C60.4591 36.2021 60.5784 36.173 60.6977 36.173H60.7275L67.5861 36.1439C67.8545 36.1439 68.0931 36.173 68.3615 36.173C68.6299 36.2021 68.8982 36.2021 69.1964 36.2021C69.6139 36.2021 69.6139 35.9982 69.6139 35.9399C69.6139 35.8525 69.5245 35.6776 69.107 35.6776H68.5404C68.3018 35.6776 67.4072 35.6485 67.1388 35.3279C66.9599 35.0948 66.9301 34.7451 66.9301 34.308V25.9737ZM66.9301 17.9307C66.9301 17.581 66.9599 17.1439 67.3774 16.7942C67.5265 16.6777 67.6756 16.6194 67.8545 16.5611C68.0335 16.5028 68.2422 16.5028 68.4509 16.5028C69.1964 16.5028 69.7928 16.6194 70.2998 17.0565C71.2839 17.9016 71.3733 19.5043 71.3733 20.8157C71.3733 22.1853 71.2839 23.8755 70.0016 24.8954C69.3157 25.42 68.5404 25.5657 67.3178 25.5657H66.9301V17.9307Z" fill="#007FB6"/>
<path d="M84.2459 27.9844C86.6017 27.9552 87.2279 27.9261 88.3015 27.8678C88.2717 26.3233 87.5261 25.216 86.9297 24.604C86.2141 23.8755 84.9914 23.2053 83.0829 23.2053C81.9497 23.2053 80.8166 23.4384 79.8325 23.9338C77.7749 24.9829 76.3734 27.1976 76.3734 29.8785C76.3734 31.1316 76.7014 32.3847 77.3574 33.4629C78.4011 35.1822 80.4289 36.5227 83.0531 36.5227C84.067 36.5227 84.9914 36.3187 85.8264 35.8524C86.5719 35.4445 87.2279 34.8617 87.7945 34.0457C88.0927 33.6086 88.4208 32.9675 88.4208 32.5304C88.4208 32.4721 88.4208 32.443 88.3909 32.4138C88.3611 32.3847 88.2716 32.3847 88.212 32.4138C88.0331 32.5012 87.7945 33.1715 87.556 33.5795C87.377 33.8709 87.1683 34.104 86.9297 34.3371C85.9755 35.2696 85.0212 35.4736 84.395 35.4736C84.1266 35.4736 83.1127 35.4153 82.2778 34.6285C81.9497 34.3371 81.7112 33.9583 81.5024 33.5795C80.906 32.4721 80.8166 31.1607 80.8166 29.5871C80.8166 29.0335 80.8464 28.5089 80.906 28.0135C81.9199 28.0135 82.1883 28.0135 84.2459 27.9844ZM80.9657 27.5181C80.9657 26.9936 81.0253 26.4982 81.1148 26.0028C81.2042 25.5657 81.3235 25.1577 81.5024 24.7497C81.741 24.2543 82.1883 23.5258 83.1426 23.5258C83.8881 23.5258 84.1565 23.9629 84.3354 24.4875C84.5739 25.216 84.6932 26.5273 84.6336 27.5181H80.9657Z" fill="#007FB6"/>
<path d="M95.327 23.9921H98.1301C98.5774 23.9921 98.8457 23.9629 98.8457 23.5549C98.8457 23.4967 98.8457 23.3801 98.6966 23.3801C98.6668 23.3801 98.6072 23.4092 98.5774 23.4092C98.4581 23.4384 98.3686 23.4675 98.2493 23.4675C97.8915 23.4967 97.5038 23.5258 96.9671 23.5258C96.6092 23.5258 95.5655 23.4967 95.3568 23.2635C95.2673 23.1761 95.2673 23.0304 95.2375 22.8847C95.1778 22.4767 95.1778 22.1562 95.1778 21.8356V21.1945C95.1778 20.9323 95.1778 20.67 95.148 20.3494C95.148 20.262 95.1182 20.1454 94.9989 20.1454C94.8796 20.1454 94.7007 20.3786 94.6411 20.466C94.3429 20.874 93.8359 21.6025 93.0308 22.2436C92.1362 22.9721 91.003 23.4675 89.9295 23.5258C89.7207 23.5258 89.4225 23.5549 89.4225 23.7589C89.4225 23.9629 89.6611 23.9921 89.7804 23.9921H90.4066C90.8539 23.9921 91.1223 23.9921 91.2416 24.1086C91.3608 24.2252 91.3907 24.5749 91.3907 24.6914V33.6377C91.3907 34.1914 91.4205 34.7742 91.8082 35.3571C92.2853 36.0273 93.2097 36.4936 94.9095 36.4936C96.8478 36.4936 98.1301 35.8524 98.9352 35.1239C99.3229 34.7451 99.5018 34.5411 99.5018 34.308C99.5018 34.2206 99.5018 34.1331 99.3825 34.1331C99.2632 34.1331 99.1141 34.2788 98.8159 34.5411C98.4581 34.8617 97.8915 35.4153 97.1758 35.4153C96.4601 35.4153 95.7146 34.8908 95.5357 33.7252C95.3568 32.5595 95.327 26.3525 95.327 24.5749V23.9921Z" fill="#007FB6"/>
<path d="M108.341 26.5565C108.341 25.3617 108.192 26.0028 108.192 24.2543C108.192 23.5258 108.251 23.8464 108.251 23.1178C108.251 23.0304 108.251 22.9721 108.221 22.8847C108.192 22.739 108.102 22.7099 108.043 22.7099C107.953 22.7099 107.923 22.8264 107.893 22.8847C107.834 23.0304 107.685 23.351 107.476 23.4967C107.327 23.6132 107.118 23.6424 106.939 23.6424C106.73 23.6424 106.462 23.5549 105.836 23.4092C105.418 23.2927 104.911 23.1761 104.345 23.1761C103.301 23.1761 102.138 23.5549 101.303 24.4292C100.558 25.1868 100.17 26.2359 100.17 27.3141C100.17 28.6546 100.707 29.6163 101.631 30.3448C102.347 30.8985 103.271 31.3065 104.404 31.6853C104.673 31.7727 104.941 31.8601 105.21 31.9476C105.717 32.1224 106.253 32.2972 106.641 32.6469C106.939 32.9092 107.208 33.3172 107.208 33.9291C107.208 34.9782 106.522 36.0856 105.001 36.0856C103.599 36.0856 102.198 35.3279 101.363 34.1331C101.035 33.6377 100.796 33.1132 100.677 32.5304C100.647 32.3264 100.587 32.035 100.409 32.035C100.379 32.035 100.259 32.0933 100.259 32.443C100.259 32.9675 100.289 33.4629 100.289 33.9874C100.289 35.2113 100.259 35.4153 100.23 35.5319C100.2 35.7942 100.14 36.0273 100.14 36.2604C100.14 36.3187 100.2 36.4644 100.319 36.4644C100.468 36.4644 100.468 36.2604 100.587 36.0856C100.677 35.9107 100.856 35.6485 101.363 35.6485C101.75 35.6485 102.049 35.7942 102.734 36.0273C103.45 36.2604 104.106 36.4936 105.001 36.4936C105.508 36.4936 106.015 36.4353 106.492 36.2896C106.999 36.1439 107.476 35.8816 107.893 35.5319C109.146 34.4828 109.384 33.0841 109.384 32.0058C109.384 31.1899 109.235 30.4614 108.609 29.7328C107.744 28.742 106.402 28.2758 104.762 27.6638C103.45 27.1684 102.824 26.9353 102.466 26.469C102.317 26.2651 102.138 25.9445 102.138 25.5074C102.138 25.1868 102.228 24.8663 102.377 24.604C102.615 24.2252 103.152 23.6132 104.404 23.6132C104.971 23.6132 105.508 23.7298 106.015 23.9629C106.432 24.1669 106.82 24.4875 107.118 24.8663C107.327 25.1286 107.625 25.624 107.923 26.5565C107.953 26.673 108.013 26.8479 108.162 26.8479C108.311 26.8479 108.341 26.673 108.341 26.5565Z" fill="#007FB6"/>
<path d="M124.787 25.7405V34.2788C124.787 34.7451 124.787 35.1531 124.31 35.3862C123.922 35.5902 123.087 35.7067 122.729 35.7067C122.58 35.7067 122.312 35.7067 122.312 35.9399C122.312 36.173 122.61 36.173 122.789 36.173C123.326 36.173 125.592 36.1147 126.517 36.1147C127.709 36.1147 128.902 36.2021 130.095 36.2021C130.393 36.2021 130.662 36.2021 130.96 36.2313C131.198 36.2604 131.467 36.3187 131.765 36.3187C131.825 36.3187 132.033 36.3187 132.033 36.1439C132.033 36.0856 132.004 36.0273 131.974 35.9982C131.854 35.8524 131.676 35.8233 131.467 35.7942C131.228 35.765 131.02 35.7359 130.781 35.7067C130.453 35.6485 130.035 35.5319 129.767 35.3279C129.2 34.8908 129.29 33.9291 129.29 33.0549V18.7175C129.29 18.0473 129.26 17.1731 129.648 16.7942C129.886 16.5611 130.274 16.4737 130.781 16.4445C131.109 16.4154 131.437 16.4154 131.795 16.3571C131.884 16.3571 132.033 16.328 132.033 16.1531C132.033 15.9783 131.825 15.9783 131.765 15.9783C130.93 15.9783 130.185 16.0657 129.379 16.0657C129.35 16.0657 129.29 16.0657 129.26 16.0657H124.608C124.042 16.0657 123.982 16.0366 123.624 16.0074C123.296 15.9783 122.968 15.9783 122.61 15.9783C122.461 15.9783 122.401 15.9783 122.312 16.0949C122.282 16.1531 122.252 16.1823 122.252 16.2406C122.252 16.532 122.551 16.532 122.7 16.532H123.266C123.594 16.532 124.042 16.532 124.37 16.8817C124.698 17.2313 124.787 17.9599 124.787 18.5136V25.0411H117.6V18.1639C117.6 17.6685 117.63 17.1148 117.899 16.8525C118.078 16.6777 118.406 16.5902 118.734 16.5902L119.807 16.5611C119.926 16.5611 119.986 16.532 120.046 16.4737C120.075 16.4154 120.105 16.3571 120.105 16.2697C120.105 15.9783 119.747 15.9783 119.509 15.9783C118.853 15.9783 117.332 16.0657 116.557 16.0657L112.322 16.0366C112.203 16.0366 112.113 16.0366 111.905 16.0074C111.636 15.9491 111.398 15.8909 111.129 15.8909C110.95 15.8909 110.563 15.9491 110.563 16.1531C110.563 16.4154 110.801 16.4154 110.95 16.4154C111.517 16.4154 112.471 16.4737 112.799 16.7068C113.098 16.9399 113.098 17.2605 113.098 17.4645V33.8126C113.098 34.716 113.127 35.0948 112.978 35.2696C112.799 35.4736 111.845 35.6193 111.607 35.6485C111.368 35.6776 111.159 35.7067 110.921 35.7067C110.772 35.7067 110.503 35.7067 110.503 35.9399C110.503 36.2021 110.831 36.2021 110.95 36.2021C112.113 36.2021 112.799 36.173 114.32 36.1147C115.602 36.0564 116.08 36.0564 116.318 36.0564L118.793 36.1439C118.853 36.1439 118.883 36.1439 118.942 36.1439C119.241 36.1439 119.509 36.173 119.807 36.173C119.867 36.173 120.075 36.173 120.075 35.9982C120.075 35.7359 119.658 35.7067 119.509 35.7067C119.24 35.7067 118.972 35.6776 118.734 35.6485C118.525 35.6193 118.018 35.5319 117.809 35.2113C117.6 34.9199 117.6 34.2497 117.6 33.1715V25.7405H124.787Z" fill="#007FB6"/>
<path d="M141.205 27.9844C143.561 27.9552 144.187 27.9261 145.261 27.8678C145.231 26.3233 144.485 25.216 143.889 24.604C143.173 23.8755 141.951 23.2053 140.042 23.2053C138.909 23.2053 137.776 23.4384 136.792 23.9338C134.734 24.9829 133.332 27.1976 133.332 29.8785C133.332 31.1316 133.66 32.3847 134.317 33.4629C135.36 35.1822 137.388 36.5227 140.012 36.5227C141.026 36.5227 141.951 36.3187 142.785 35.8524C143.531 35.4445 144.187 34.8617 144.754 34.0457C145.052 33.6086 145.38 32.9675 145.38 32.5304C145.38 32.4721 145.38 32.443 145.35 32.4138C145.32 32.3847 145.231 32.3847 145.171 32.4138C144.992 32.5012 144.754 33.1715 144.515 33.5795C144.336 33.8709 144.127 34.104 143.889 34.3371C142.935 35.2696 141.98 35.4736 141.354 35.4736C141.086 35.4736 140.072 35.4153 139.237 34.6285C138.909 34.3371 138.67 33.9583 138.462 33.5795C137.865 32.4721 137.776 31.1607 137.776 29.5871C137.776 29.0335 137.805 28.5089 137.865 28.0135C138.879 28.0135 139.147 28.0135 141.205 27.9844ZM137.925 27.5181C137.925 26.9936 137.984 26.4982 138.074 26.0028C138.163 25.5657 138.283 25.1577 138.462 24.7497C138.7 24.2543 139.147 23.5258 140.102 23.5258C140.847 23.5258 141.116 23.9629 141.294 24.4875C141.533 25.216 141.652 26.5273 141.593 27.5181H137.925Z" fill="#007FB6"/>
<path d="M154.009 29.3249C152.339 29.354 150.789 29.8785 149.656 30.5196C148.672 31.0733 147.568 32.0058 147.568 33.7252C147.568 34.5702 147.807 35.2405 148.433 35.765C148.701 35.9982 149 36.173 149.328 36.2896C149.685 36.4353 150.103 36.4936 150.491 36.4936C151.326 36.4936 151.982 36.2604 152.578 35.8524C153.323 35.3279 153.801 34.716 154.099 34.104C154.158 34.6285 154.397 35.4736 154.814 35.8816C155.321 36.3478 156.067 36.377 156.514 36.377C157.26 36.377 157.856 36.3478 158.602 35.9982C159.168 35.7359 159.586 35.3862 159.765 35.2405C160.003 35.0074 160.242 34.7742 160.242 34.5994C160.242 34.4828 160.152 34.4245 160.093 34.4245C160.033 34.4245 159.973 34.4828 159.944 34.512C159.914 34.5411 159.884 34.5702 159.854 34.5994C159.705 34.7451 159.556 34.8617 159.377 34.9782C159.198 35.1239 158.93 35.2988 158.602 35.2988C158.244 35.2988 157.946 35.0948 157.797 34.5411C157.677 34.104 157.707 33.6086 157.707 32.5012V27.4016C157.707 26.6148 157.707 25.8571 157.379 25.1286C157.14 24.6332 156.842 24.3126 156.425 24.0212C155.471 23.351 154.188 23.1761 152.548 23.1761C151.117 23.1761 150.073 23.351 149.029 24.196C148.135 24.9246 147.747 25.7114 147.747 26.4108C147.747 27.4598 148.582 28.2758 149.715 28.2758C150.58 28.2758 151.266 27.7513 151.266 26.7605C151.266 26.5273 151.206 26.0319 150.789 25.7405C150.491 25.5365 150.133 25.5074 149.894 25.4783C149.685 25.4491 149.477 25.42 149.477 25.0703C149.477 24.7497 149.805 24.3126 150.103 24.0503C150.491 23.7007 150.938 23.5258 151.654 23.5258C153.145 23.5258 153.592 24.4 153.771 24.9829C153.95 25.5948 153.95 26.3816 153.98 27.1976C153.98 27.693 154.009 28.2175 154.009 28.7129V29.3249ZM154.009 31.2773C154.009 32.8801 153.92 33.4046 153.83 33.7834C153.592 34.5994 153.085 34.9491 152.548 34.9491C152.28 34.9491 151.773 34.8617 151.445 34.2788C151.206 33.8709 151.117 33.2298 151.117 32.7635C151.117 31.7727 151.415 30.9859 152.31 30.3448C152.667 30.0825 153.234 29.7911 154.009 29.7037V31.2773Z" fill="#007FB6"/>
<path d="M162.578 34.4828C162.578 35.3571 162.459 35.5028 162.429 35.5319C162.19 35.7942 161.832 35.7359 160.818 35.765C160.729 35.765 160.52 35.765 160.52 35.969C160.52 36.173 160.789 36.173 160.938 36.173C162.936 36.173 163.592 36.0856 164.516 36.0856C165.023 36.0856 165.56 36.0856 166.067 36.1147C167.021 36.1439 167.289 36.173 167.707 36.173C168.214 36.173 168.721 36.2313 168.721 35.9399C168.721 35.8816 168.691 35.7942 168.631 35.765C168.542 35.7067 168.452 35.7067 168.333 35.7067C167.975 35.7067 167.677 35.7359 167.319 35.7359C167.11 35.7359 166.902 35.7359 166.753 35.5028C166.693 35.4153 166.604 35.2113 166.604 34.3954V15.6286C165.739 15.9491 165.142 16.0949 164.307 16.2406C163.83 16.328 163.353 16.4154 162.846 16.4737C162.28 16.532 161.713 16.5902 161.176 16.6194C160.729 16.6485 160.49 16.6485 160.431 16.736C160.401 16.7651 160.401 16.8234 160.401 16.8817C160.401 17.0856 160.55 17.0856 160.729 17.0856C161.832 17.0856 162.22 17.1148 162.399 17.2896C162.548 17.4645 162.578 17.8142 162.578 18.4553V34.4828Z" fill="#007FB6"/>
<path d="M175.407 23.9921H178.21C178.658 23.9921 178.926 23.9629 178.926 23.5549C178.926 23.4967 178.926 23.3801 178.777 23.3801C178.747 23.3801 178.688 23.4092 178.658 23.4092C178.538 23.4384 178.449 23.4675 178.33 23.4675C177.972 23.4967 177.584 23.5258 177.047 23.5258C176.69 23.5258 175.646 23.4967 175.437 23.2635C175.348 23.1761 175.348 23.0304 175.318 22.8847C175.258 22.4767 175.258 22.1562 175.258 21.8356V21.1945C175.258 20.9323 175.258 20.67 175.228 20.3494C175.228 20.262 175.199 20.1454 175.079 20.1454C174.96 20.1454 174.781 20.3786 174.721 20.466C174.423 20.874 173.916 21.6025 173.111 22.2436C172.216 22.9721 171.083 23.4675 170.01 23.5258C169.801 23.5258 169.503 23.5549 169.503 23.7589C169.503 23.9629 169.741 23.9921 169.861 23.9921H170.487C170.934 23.9921 171.203 23.9921 171.322 24.1086C171.441 24.2252 171.471 24.5749 171.471 24.6914V33.6377C171.471 34.1914 171.501 34.7742 171.888 35.3571C172.366 36.0273 173.29 36.4936 174.99 36.4936C176.928 36.4936 178.21 35.8524 179.016 35.1239C179.403 34.7451 179.582 34.5411 179.582 34.308C179.582 34.2206 179.582 34.1331 179.463 34.1331C179.344 34.1331 179.194 34.2788 178.896 34.5411C178.538 34.8617 177.972 35.4153 177.256 35.4153C176.54 35.4153 175.795 34.8908 175.616 33.7252C175.437 32.5595 175.407 26.3525 175.407 24.5749V23.9921Z" fill="#007FB6"/>
<path d="M185.499 17.2022C185.499 15.6869 185.499 15.5703 185.26 15.5703C184.902 15.5703 184.246 15.92 182.785 16.1823C182.248 16.2697 181.026 16.4154 180.37 16.4445C179.535 16.4737 179.385 16.4737 179.385 16.6777C179.385 16.8525 179.475 16.8525 180.25 16.8525C181.026 16.8525 181.413 16.9691 181.533 17.3771C181.622 17.6393 181.652 18.2804 181.652 20.9614V32.7926C181.652 34.7742 181.622 35.2405 181.592 35.5028C181.592 35.5902 181.562 35.6776 181.503 35.7359C181.383 35.8524 180.966 35.9107 179.892 35.9107C179.833 35.9107 179.684 35.9107 179.684 36.0564C179.684 36.2313 179.892 36.2313 180.012 36.2313C182.159 36.2313 183.531 36.1439 184.902 36.1439C185.499 36.1439 186.065 36.173 186.811 36.173C186.93 36.173 187.109 36.173 187.109 35.969C187.109 35.9107 187.079 35.7942 186.841 35.7942C186.572 35.7942 186.304 35.7942 186.035 35.765C185.946 35.765 185.827 35.7359 185.737 35.6776C185.678 35.6485 185.648 35.6193 185.618 35.561C185.588 35.5028 185.588 35.4445 185.588 35.3571V27.4016C185.588 26.3525 185.528 25.8571 185.886 25.2743C186.453 24.3418 187.228 24.2543 187.676 24.2543C188.51 24.2543 188.988 24.6332 189.167 25.012C189.345 25.3325 189.435 25.9737 189.435 28.2175V34.8617C189.435 34.9491 189.435 35.4153 189.345 35.561C189.286 35.6776 189.077 35.8233 188.63 35.8233C188.421 35.8233 188.242 35.7942 188.004 35.7942C187.914 35.7942 187.795 35.7942 187.795 35.969C187.795 36.0564 187.825 36.173 188.212 36.173C188.57 36.173 188.928 36.1439 189.256 36.1439C190.508 36.1439 189.703 36.173 191.433 36.2021C191.791 36.2021 192.178 36.2021 192.536 36.2021C193.312 36.2021 194.087 36.2313 194.922 36.2313C195.011 36.2313 195.19 36.2313 195.19 36.0564C195.19 35.8524 194.982 35.8524 194.922 35.8524C194.415 35.8524 193.789 35.8233 193.55 35.6193C193.401 35.4736 193.371 35.1239 193.371 34.7451V27.9552C193.371 26.3525 193.282 25.4491 192.626 24.5166C192.089 23.7589 191.343 23.1761 189.316 23.1761C188.63 23.1761 187.884 23.2635 187.198 23.6132C186.811 23.8172 186.483 24.1086 186.185 24.4C185.916 24.6623 185.707 24.9246 185.499 25.2451V17.2022Z" fill="#007FB6"/>
<defs>
<filter id="filter0_d_11638_139154" x="4.20764" y="19.6101" width="25.9111" height="33.183" filterUnits="userSpaceOnUse" color-interpolation-filters="sRGB">
<feFlood flood-opacity="0" result="BackgroundImageFix"/>
<feColorMatrix in="SourceAlpha" type="matrix" values="0 0 0 0 0 0 0 0 0 0 0 0 0 0 0 0 0 0 127 0" result="hardAlpha"/>
<feOffset dy="0.72004"/>
<feGaussianBlur stdDeviation="1.26007"/>
<feColorMatrix type="matrix" values="0 0 0 0 0 0 0 0 0 0 0 0 0 0 0 0 0 0 0.3 0"/>
<feBlend mode="normal" in2="BackgroundImageFix" result="effect1_dropShadow_11638_139154"/>
<feBlend mode="normal" in="SourceGraphic" in2="effect1_dropShadow_11638_139154" result="shape"/>
</filter>
<filter id="filter1_d_11638_139154" x="25.7174" y="1.61372" width="23.1594" height="22.3301" filterUnits="userSpaceOnUse" color-interpolation-filters="sRGB">
<feFlood flood-opacity="0" result="BackgroundImageFix"/>
<feColorMatrix in="SourceAlpha" type="matrix" values="0 0 0 0 0 0 0 0 0 0 0 0 0 0 0 0 0 0 127 0" result="hardAlpha"/>
<feOffset dy="0.72004"/>
<feGaussianBlur stdDeviation="1.26007"/>
<feColorMatrix type="matrix" values="0 0 0 0 0 0 0 0 0 0 0 0 0 0 0 0 0 0 0.3 0"/>
<feBlend mode="normal" in2="BackgroundImageFix" result="effect1_dropShadow_11638_139154"/>
<feBlend mode="normal" in="SourceGraphic" in2="effect1_dropShadow_11638_139154" result="shape"/>
</filter>
</defs>
</svg>
