<svg width="26" height="32" viewBox="0 0 26 32" fill="none" xmlns="http://www.w3.org/2000/svg">
<path d="M12.8 32.0004C19.8692 32.0004 25.6 31.4398 25.6 30.7483C25.6 30.0567 19.8692 29.4961 12.8 29.4961C5.73075 29.4961 0 30.0567 0 30.7483C0 31.4398 5.73075 32.0004 12.8 32.0004Z" fill="#D0D0E1"/>
<path d="M1.5511 18.918C-0.306938 18.918 -0.0416114 26.8338 6.38222 29.2808L7.10108 27.551C-0.174359 23.7479 3.40914 18.918 1.5511 18.918Z" fill="#C87B47"/>
<path d="M6.71035 18.7358C7.59051 20.8577 10.2488 19.1266 9.86139 17.2853C9.47402 15.444 6.04737 5.40474 7.15233 2.33594C7.15233 2.33722 0.876916 4.66669 6.71035 18.7358Z" fill="#E5AE6D"/>
<path d="M7.25137 18.0218C7.85465 19.6312 9.52099 18.2627 9.23776 16.8609C8.95454 15.4579 6.12228 6.29632 6.77001 3.92969C6.77001 3.92969 3.25192 7.34445 7.25137 18.0218Z" fill="#C87B47"/>
<path d="M12.5708 0.108055C13.8421 -0.226374 16.2197 -0.0598002 18.1553 4.73753C20.0909 9.53485 23.7398 20.2994 19.2615 19.9649C14.782 19.6305 12.5708 0.108055 12.5708 0.108055Z" fill="#E5AE6D"/>
<path d="M13.6958 2.13899C14.7207 1.88016 16.622 2.06596 18.0775 6.15727C19.533 10.2473 22.2459 19.414 18.6656 19.0475C15.0853 18.6798 13.6958 2.13899 13.6958 2.13899Z" fill="#C87B47"/>
<path d="M19.0613 22.3803C19.0613 22.3803 19.1985 15.3056 16.6057 11.7239C14.013 8.14222 11.8137 11.3048 11.8137 11.3048C11.8137 11.3048 9.38475 17.9591 8.82962 20.2539C8.27448 22.5487 7.48751 28.9279 7.76508 30.6069H20.681C20.681 30.6069 21.8391 26.6331 19.0613 22.3803Z" fill="#E5AE6D"/>
<path d="M20.2137 22.5988C20.2137 22.5988 20.6069 15.1901 16.9338 11.7035C13.2607 8.21691 9.72012 11.2129 9.72012 11.2129C9.72012 11.2129 6.50652 18.295 5.71857 20.5289C4.93212 22.7627 3.81723 28.9725 4.21045 30.6069H11.3189C10.5927 22.8366 11.4289 14.0062 15.9442 15.0587C19.1186 15.7983 21.527 21.3173 20.2675 27.4557C20.0385 28.5708 19.7311 29.6283 19.365 30.6069H20.8551C20.8551 27.8243 20.5286 25.7374 20.2137 22.5988Z" fill="#E5AE6D"/>
<path d="M6.42925 18.6748C4.48709 19.4013 3.79129 26.5872 3.85672 28.9492L5.03763 30.6098H9.63426C9.63278 30.6098 8.36992 17.9468 6.42925 18.6748Z" fill="#FBC98E"/>
<path d="M18.1554 8.14322C17.2701 3.2908 15.3904 -1.00425 10.1387 0.33347C4.88693 1.67247 6.10239 7.22194 7.63663 10.4432C8.31358 10.9596 9.66874 11.4888 9.80718 13.4031L17.7134 13.1622C16.4408 10.597 18.1554 8.14322 18.1554 8.14322Z" fill="#FACD98"/>
<path d="M8.53358 30.6098H3.65746C3.65746 30.6098 2.22884 29.7041 2.96242 28.5974C3.69601 27.4906 7.00104 28.5196 7.61899 29.0754C8.36583 29.7474 8.53358 30.6098 8.53358 30.6098Z" fill="#FFF0D2"/>
<path d="M8.50792 5.04996C8.52587 5.04075 8.54158 5.03304 8.5586 5.02563C8.57562 5.01822 8.59216 5.01119 8.6091 5.00476C8.62604 4.99834 8.64301 4.99201 8.66026 4.98623C8.67751 4.98044 8.69458 4.97472 8.71199 4.96973C8.92386 4.90695 9.14632 4.88784 9.3671 4.91346C9.52026 4.93124 9.67026 4.97436 9.81144 5.04119C9.95675 5.11006 10.0889 5.20655 10.2011 5.32559L10.2074 5.33233C10.23 5.35643 10.2456 5.38659 10.2525 5.41926C10.2594 5.45194 10.2573 5.48577 10.2463 5.5168C10.2354 5.54782 10.2161 5.57474 10.1907 5.5944C10.1654 5.61406 10.135 5.62564 10.1032 5.62778L10.0873 5.62884L10.0694 5.6292L10.0336 5.63238C10.0095 5.6348 9.98552 5.63785 9.96128 5.64023C9.91249 5.64595 9.86463 5.65263 9.81647 5.65994C9.72007 5.67491 9.62495 5.69382 9.5322 5.71747C9.44065 5.74012 9.35134 5.77109 9.2653 5.81003C9.18186 5.84971 9.10548 5.89884 9.04841 5.96948L9.04609 5.97228C9.0373 5.98342 9.02497 5.99088 9.01125 5.99338C8.99753 5.99587 8.98329 5.99323 8.97104 5.98592C8.95878 5.97861 8.94928 5.96709 8.94421 5.95339C8.93914 5.93968 8.93881 5.92467 8.94329 5.91097C8.96239 5.85248 8.99133 5.7982 9.02879 5.75066C9.06513 5.70417 9.10633 5.66209 9.15166 5.62518C9.19572 5.5892 9.24231 5.55668 9.29107 5.52789C9.31511 5.51344 9.33949 5.50006 9.36403 5.48715C9.38857 5.47424 9.41348 5.46248 9.43865 5.45149C9.5379 5.40669 9.6404 5.36977 9.74528 5.34102C9.79727 5.32625 9.84965 5.31359 9.90244 5.30249C9.92879 5.29695 9.95533 5.29168 9.98209 5.28707L10.0225 5.28032L10.0431 5.27725L10.0655 5.27421L9.96759 5.57639C9.87839 5.49395 9.77793 5.42592 9.66969 5.37467C9.55733 5.32184 9.44018 5.28146 9.32022 5.25419C9.1943 5.22518 9.06689 5.20469 8.93879 5.19285C8.87337 5.18615 8.80727 5.18171 8.74029 5.17767L8.69003 5.17515L8.63945 5.17295L8.5389 5.16909L8.53477 5.16888C8.52146 5.16826 8.50861 5.16305 8.49826 5.15407C8.4879 5.14509 8.48062 5.13285 8.47756 5.11927C8.47449 5.10569 8.47582 5.09153 8.48132 5.07903C8.48683 5.06652 8.4962 5.05636 8.50798 5.05016L8.50792 5.04996Z" fill="#070C11"/>
<path d="M14.733 4.45426C15.118 4.28535 15.2225 3.66522 14.9664 3.06915C14.7103 2.47309 14.1906 2.12682 13.8055 2.29572C13.4205 2.46463 13.316 3.08477 13.5721 3.68083C13.8282 4.27689 14.348 4.62317 14.733 4.45426Z" fill="#070C11"/>
<path d="M14.2416 3.54312C14.4059 3.47099 14.4695 3.25033 14.3836 3.05026C14.2977 2.85019 14.0948 2.74648 13.9304 2.81861C13.7661 2.89074 13.7025 3.11141 13.7884 3.31147C13.8743 3.51154 14.0772 3.61525 14.2416 3.54312Z" fill="white"/>
<path d="M12.8919 2.35373C12.4124 3.0897 11.3187 1.99202 11.775 1.42744C12.2311 0.862806 13.2681 1.77633 12.8919 2.35373Z" fill="#FFF3D2"/>
<path d="M9.57712 3.41387C10.3558 3.81141 10.7633 2.30962 10.0893 2.04914C9.41532 1.78856 8.96632 3.10198 9.57712 3.41387Z" fill="#FFF3D2"/>
<path d="M18.1548 8.13986C17.2963 8.18599 15.2743 5.8168 13.0047 6.17814C11.4501 6.42544 8.42357 10.5501 7.65137 10.4514C8.36261 10.9178 9.64411 11.9198 9.75968 13.5317L17.8488 13.2204C16.7603 11.0254 17.8145 8.70493 18.1548 8.13986Z" fill="#E5AE6D"/>
<path d="M14.5238 5.89453C14.5238 5.89453 14.0526 6.91576 13.0353 7.26812C12.5273 7.44495 11.8249 7.32194 11.0908 7.08489C11.0908 7.08489 12.1628 8.68272 13.6665 8.18556C15.1716 7.68968 14.5238 5.89453 14.5238 5.89453Z" fill="#E27A34"/>
<path d="M12.0093 9.52401C12.3827 9.99042 13.9093 11.0181 14.6421 10.444C15.375 9.86998 16.2056 8.59376 15.6582 7.26502C15.1121 5.93627 13.1841 7.85828 13.1841 7.85828L12.0093 9.52401Z" fill="#070C11"/>
<path d="M11.3271 5.83984C10.3314 6.29984 8.92033 7.47611 9.08671 9.40068C9.08671 9.40068 10.6337 10.3783 11.7539 10.0695C12.6658 9.8184 13.5662 7.34541 13.5662 7.34541L11.3271 5.83984Z" fill="#FFF3D2"/>
<path d="M13.2931 5.08134C14.2875 4.62005 16.0288 4.86223 17.3167 6.36652C17.3167 6.36652 17.3979 9.0317 16.2422 8.91125C15.0864 8.79081 13.2842 7.30446 13.2842 7.30446L13.2931 5.08134Z" fill="#FFF3D2"/>
<path d="M11.6543 7.34011C11.6319 7.27472 11.5801 7.23317 11.5393 7.24743C11.4973 7.26211 11.4831 7.32672 11.5054 7.39212C11.5278 7.45752 11.5796 7.49906 11.6204 7.4848C11.6612 7.47054 11.677 7.40672 11.6543 7.34011Z" fill="#C87B47"/>
<path d="M10.8862 8.05886C10.8638 7.99347 10.812 7.95193 10.7712 7.96618C10.7304 7.98044 10.715 8.04547 10.7374 8.11087C10.7597 8.17627 10.8115 8.21781 10.8524 8.20355C10.8932 8.18929 10.9086 8.12426 10.8862 8.05886Z" fill="#C87B47"/>
<path d="M11.9814 8.26199C11.9591 8.19659 11.9072 8.15505 11.8664 8.16931C11.8256 8.18357 11.8102 8.2486 11.8326 8.314C11.8549 8.37939 11.9068 8.42093 11.9476 8.40667C11.9884 8.39241 12.0038 8.32739 11.9814 8.26199Z" fill="#C87B47"/>
<path d="M14.7492 7.05844C14.7269 6.99305 14.675 6.9515 14.633 6.96618C14.5922 6.98044 14.5768 7.04547 14.5992 7.11087C14.6215 7.17627 14.6734 7.21781 14.7142 7.20355C14.7562 7.18887 14.7716 7.12384 14.7492 7.05844Z" fill="#C87B47"/>
<path d="M15.6472 6.79672C15.6248 6.73133 15.573 6.68979 15.5322 6.70405C15.4902 6.71873 15.4748 6.78375 15.4971 6.84915C15.5195 6.91455 15.5713 6.95609 15.6133 6.94141C15.6541 6.92715 15.6695 6.86212 15.6472 6.79672Z" fill="#C87B47"/>
<path d="M15.3589 5.91433C15.3365 5.84894 15.2847 5.80739 15.2439 5.82165C15.203 5.83591 15.1877 5.90094 15.21 5.96634C15.2324 6.03173 15.2842 6.07328 15.325 6.05902C15.3642 6.04396 15.3812 5.97973 15.3589 5.91433Z" fill="#C87B47"/>
<path d="M13.5028 7.30111C13.1675 7.45743 10.8026 6.60406 10.9119 5.96339C11.0224 5.32144 13.259 4.15542 13.8978 4.87554C14.3677 5.40601 13.861 7.13453 13.5028 7.30111Z" fill="#6B4A43"/>
<path d="M12.9131 9.67487C12.9131 9.67487 13.4059 11.7148 14.159 11.5815C15.1014 11.4149 15.2221 8.92785 15.2221 8.92785C15.2221 8.92785 13.7551 8.80484 12.9131 9.67487Z" fill="#F45E4E"/>
<path d="M13.9468 17.9822C13.325 21.9886 12.936 30.3577 12.936 30.3577L11.1185 29.887C11.1185 29.887 9.22094 20.7625 10.8045 17.2683C11.3527 16.0527 14.5251 14.261 13.9468 17.9822Z" fill="#FBC98E"/>
<path d="M12.0624 30.6551H14.7575C14.7575 30.6551 14.2597 29.2328 12.714 29.1879C11.689 29.1585 12.0624 30.6551 12.0624 30.6551Z" fill="#FFF0D2"/>
<path d="M9.99697 30.6538H12.6921C12.6921 30.6538 12.4355 29.475 10.8975 29.4379C9.87759 29.4135 9.99697 30.6538 9.99697 30.6538Z" fill="#FFF0D2"/>
<path d="M10.7324 30.6568H11.3687C11.3687 30.6568 11.1757 30.0994 10.9953 30.0713C10.8162 30.0431 10.7324 30.6568 10.7324 30.6568Z" fill="#A76436"/>
<path d="M12.2124 30.6568H12.8487C12.8487 30.6568 12.6557 30.0994 12.4753 30.0713C12.295 30.0431 12.2124 30.6568 12.2124 30.6568Z" fill="#A76436"/>
<path d="M13.6079 30.6547H14.2429C14.2429 30.6547 13.8518 30.137 13.6625 30.1101C13.4745 30.0858 13.6079 30.6547 13.6079 30.6547Z" fill="#A76436"/>
<path d="M15.7605 17.2248C17.1713 21.3789 19.1562 29.9339 19.1562 29.9339L20.9875 29.7016C20.9875 29.7016 21.2764 20.6877 18.9468 16.9219C18.1388 15.6163 14.4504 13.3673 15.7605 17.2248Z" fill="#FBC98E"/>
<path d="M21.5925 30.6187H18.999C18.999 30.6187 19.2454 29.4399 20.725 29.4027C21.7081 29.3784 21.5925 30.6187 21.5925 30.6187Z" fill="#FFF0D2"/>
<path d="M17.1742 30.6187H19.8693C19.8693 30.6187 19.6128 29.4399 18.0747 29.4027C17.0548 29.3784 17.1742 30.6187 17.1742 30.6187Z" fill="#FFF0D2"/>
<path d="M17.8931 30.6178H18.4938C18.4938 30.6178 18.3109 30.0604 18.1407 30.0322C17.9718 30.004 17.8931 30.6178 17.8931 30.6178Z" fill="#A76436"/>
<path d="M19.2915 30.6178H19.8923C19.8923 30.6178 19.7094 30.0604 19.5404 30.0322C19.369 30.004 19.2915 30.6178 19.2915 30.6178Z" fill="#A76436"/>
<path d="M20.6096 30.6197H21.2103C21.2103 30.6197 20.8408 30.102 20.6617 30.0751C20.4826 30.0508 20.6096 30.6197 20.6096 30.6197Z" fill="#A76436"/>
<path opacity="0.7" d="M13.6491 4.94832C13.6059 4.833 13.3354 4.82916 13.0471 4.94063C12.7575 5.05211 12.5594 5.23534 12.6026 5.35066C12.6458 5.46598 12.9163 5.46855 13.2046 5.35835C13.4929 5.24687 13.6923 5.06236 13.6491 4.94832Z" fill="white"/>
<g clip-path="url(#clip0_11638_137712)">
<path d="M19.3449 29.0361L21.4645 24.9141C21.9599 24.9997 22.474 24.7604 22.7161 24.2891C23.0149 23.7077 22.7868 22.9936 22.2063 22.6944C21.8671 22.5192 21.4824 22.5251 21.1618 22.6757C21.0981 22.3266 20.8794 22.0098 20.5401 21.8347C19.9596 21.5354 19.2466 21.7639 18.9478 22.3453C18.7054 22.8166 18.8095 23.3746 19.1666 23.7287L17.047 27.8511C16.5516 27.7655 16.0375 28.0048 15.7954 28.4761C15.4966 29.0575 15.7247 29.7716 16.3052 30.0709C16.6444 30.246 17.0291 30.2402 17.3497 30.0896C17.4134 30.4387 17.6322 30.7554 17.9714 30.9306C18.5519 31.2298 19.2649 31.0014 19.5637 30.42C19.8062 29.9487 19.702 29.3903 19.3449 29.0361Z" fill="white"/>
<path d="M19.9173 21.9687C19.7603 21.8878 19.5929 21.8497 19.4277 21.8504C19.7607 21.6668 20.1765 21.6473 20.5398 21.8349C20.8705 22.0053 21.0869 22.3108 21.1568 22.6494C20.9252 22.5992 20.6867 22.6291 20.4784 22.7272C20.4205 22.4124 20.2235 22.1267 19.9173 21.9687Z" fill="#EDEDED"/>
<path d="M19.5639 30.4197C19.2651 31.0011 18.5517 31.2299 17.9712 30.9303C17.6316 30.7552 17.4132 30.4384 17.3495 30.0893C17.029 30.2399 16.6443 30.2458 16.3051 30.0706C15.8858 29.8543 15.65 29.4211 15.6647 28.9783C15.7634 29.1503 15.9111 29.2966 16.0999 29.3939C16.4061 29.5519 16.7527 29.5464 17.0418 29.4106C17.0993 29.7255 17.2963 30.0111 17.6021 30.1687C18.1255 30.4384 18.7685 30.2325 19.0378 29.7083C19.2562 29.2834 19.1621 28.7802 18.8404 28.4611L20.751 24.745C21.1974 24.8216 21.661 24.606 21.8793 24.1815C22.1486 23.6573 21.9431 23.0132 21.4197 22.7435C21.3474 22.7062 21.2732 22.6781 21.1978 22.6591C21.511 22.5244 21.8793 22.5256 22.2061 22.6941C22.7866 22.9934 23.0151 23.7079 22.7159 24.2893C22.4738 24.7605 21.9594 24.9999 21.4644 24.9143L19.3448 29.0363C19.7019 29.39 19.8064 29.9484 19.5639 30.4197Z" fill="#EDEDED"/>
<path d="M21.1987 22.6586C21.1865 22.6641 21.174 22.6696 21.1618 22.6751C21.1603 22.6665 21.1583 22.6575 21.1567 22.6484C21.1708 22.6516 21.185 22.6547 21.1987 22.6586Z" fill="white"/>
</g>
<g clip-path="url(#clip1_11638_137712)">
<path d="M16.7709 30.8628C17.8996 29.7218 17.8996 27.8719 16.7709 26.7309C15.6422 25.5899 13.8121 25.5899 12.6834 26.7309C11.5547 27.8719 11.5547 29.7218 12.6834 30.8628C13.8121 32.0038 15.6422 32.0038 16.7709 30.8628Z" fill="#E1F94D"/>
<path d="M14.1883 30.6028C14.055 30.6028 13.9181 30.591 13.7803 30.5673C13.4413 30.5089 13.1269 30.3837 12.8711 30.2054C12.5828 30.0045 12.3832 29.7431 12.2939 29.4494C12.0604 28.6818 12.54 27.8623 12.9254 27.2038C13.15 26.8201 13.406 26.3734 13.2781 26.2696C13.2781 26.2696 13.529 26.1174 13.545 26.1296C13.6123 26.1809 13.6343 26.4314 13.5543 26.6507C13.4797 26.8556 13.3432 27.0889 13.185 27.3591C12.8299 27.966 12.3879 28.7211 12.5821 29.3598C12.717 29.8033 13.2072 30.1592 13.8309 30.2667C14.3999 30.3647 14.9114 30.2312 15.1337 29.9267C15.4649 29.473 15.463 28.9322 15.4609 28.3597C15.4596 28.0268 15.4584 27.6827 15.5284 27.3565C15.6168 26.9446 15.8929 26.6793 16.3269 26.5894C16.4174 26.5706 16.5701 26.5763 16.6477 26.5945C16.7401 26.6162 16.902 26.8721 16.902 26.8721C16.8999 26.8718 16.6322 26.8356 16.3799 26.8896C16.0676 26.9566 15.8854 27.1304 15.8231 27.4212C15.7601 27.7147 15.7613 28.0274 15.7624 28.3585C15.7646 28.9555 15.7668 29.5729 15.3763 30.1077C15.2244 30.3157 14.9837 30.4665 14.6801 30.5439C14.5264 30.5831 14.3604 30.6028 14.1883 30.6028Z" fill="white"/>
<path d="M16.23 26.2969C16.6509 26.8044 16.9045 27.4586 16.9045 28.1726C16.9045 29.7863 15.6104 31.0944 14.0141 31.0944C13.4638 31.0944 12.9496 30.9389 12.5117 30.6691C13.042 31.3084 13.8377 31.7151 14.7276 31.7151C16.3239 31.7151 17.6179 30.407 17.6179 28.7933C17.6179 27.736 17.0623 26.8098 16.23 26.2969Z" fill="#CCCC31"/>
<path d="M16.5958 26.8666C16.7637 26.8578 16.8987 26.8759 16.9018 26.8764C16.8145 26.7757 16.7206 26.6812 16.6206 26.5935C16.5692 26.5848 16.4989 26.5804 16.4336 26.5826C16.4927 26.6738 16.5468 26.7686 16.5958 26.8666Z" fill="white"/>
</g>
<defs>
<clipPath id="clip0_11638_137712">
<rect width="8.25807" height="9.73913" fill="white" transform="translate(14.5898 21.7031)"/>
</clipPath>
<clipPath id="clip1_11638_137712">
<rect width="5.78064" height="5.84348" fill="white" transform="translate(11.8369 25.875)"/>
</clipPath>
</defs>
</svg>
