<svg width="28" height="32" viewBox="0 0 28 32" fill="none" xmlns="http://www.w3.org/2000/svg">
<path d="M14.476 31.8353C20.9235 31.8353 26.1503 31.2803 26.1503 30.5956C26.1503 29.911 20.9235 29.356 14.476 29.356C8.0285 29.356 2.80176 29.911 2.80176 30.5956C2.80176 31.2803 8.0285 31.8353 14.476 31.8353Z" fill="#D0D0E1"/>
<path d="M20.8371 29.9167L18.1784 30.2926L11.8843 31.1829L9.25 28.9992L10.7119 20.5619L10.9963 18.9212L16.3413 18.3447L19.7971 17.9717L19.8569 18.6567L20.0284 20.6273L20.6378 27.6259L20.8371 29.9167Z" fill="#B57F59"/>
<path d="M15.976 29.6885C17.7553 29.6885 19.1977 27.8687 19.1977 25.6239C19.1977 23.379 17.7553 21.5592 15.976 21.5592C14.1968 21.5592 12.7544 23.379 12.7544 25.6239C12.7544 27.8687 14.1968 29.6885 15.976 29.6885Z" fill="#B57F59"/>
<path d="M8.09494 29.2788C8.09494 29.2788 4.70521 28.6067 4.32466 28.5106C3.7894 28.3756 1.66697 27.9406 1.05966 26.1941C0.541241 24.7033 0.808874 23.0072 1.79577 21.9514C2.89868 20.7713 5.75817 20.62 6.76216 21.8768C7.76614 23.1335 7.92253 25.5056 6.41232 26.2705C4.90211 27.0354 3.83504 26.395 3.45665 25.94C3.00908 25.4018 2.87873 23.8905 3.63933 23.3362C3.98391 23.085 4.45107 23.1546 4.65813 23.4292C4.87116 23.7117 4.79685 24.0668 4.78179 24.4207C4.75563 25.0373 5.72484 25.2454 5.95436 24.5725C6.17647 23.9215 5.7939 22.8035 5.18694 22.6022C3.96947 22.1982 3.33645 22.6546 2.94241 22.9693C2.15887 23.5952 2.06376 26.0985 3.71436 26.6912C4.83173 27.0924 7.92851 27.5159 7.92851 27.5159" fill="#B57F59"/>
<path d="M21.9636 30.4911C21.9636 30.4911 20.459 30.5648 20.6959 29.0238C20.7132 28.9114 20.6983 28.7968 20.6538 28.6908C20.4875 28.2955 20.1221 27.308 20.4639 26.9744C20.8846 26.5639 21.2287 27.0288 21.31 27.1508C21.3149 27.1582 21.3271 27.1552 21.3274 27.1466C21.3313 27.0004 21.3787 26.3852 21.8969 26.2863C22.4218 26.1862 22.4817 26.7694 22.4885 26.8972C22.4889 26.9051 22.5001 26.9081 22.5054 26.9018C22.5881 26.8034 22.9798 26.3824 23.4154 26.6578C23.7845 26.8913 23.6046 27.3411 23.5437 27.4682C23.5398 27.4763 23.5505 27.4837 23.5582 27.4782C23.671 27.3963 24.0599 27.1473 24.357 27.3685C24.7082 27.63 24.2621 28.9225 23.7985 29.4677C23.3348 30.0129 22.8837 30.4381 21.9636 30.4911Z" fill="#F9D6B6"/>
<path d="M23.0857 28.7115C23.2457 28.2256 23.0892 27.735 22.7363 27.6156C22.3834 27.4963 21.9676 27.7934 21.8077 28.2794C21.6477 28.7653 21.8042 29.2559 22.1571 29.3753C22.51 29.4946 22.9257 29.1975 23.0857 28.7115Z" fill="#DCA3B4"/>
<path d="M11.1384 18.5983C7.78114 22.1094 6.93511 26.5643 7.84816 29.2286C8.05415 29.8295 9.48729 32.9779 14.4884 31.5331L14.9822 28.0859C14.8629 27.3646 13.9039 26.4703 13.0926 26.4739C11.0112 26.4832 10.6287 27.7392 9.78575 28.1158" fill="#B57F59"/>
<path opacity="0.3" d="M14.9819 28.7339L14.4882 31.5326C9.48727 32.9771 8.054 29.829 7.84802 29.2278C7.53833 28.3244 7.4308 27.2146 7.55602 26.006C7.6105 26.4861 7.70847 26.9346 7.84802 27.3411C8.054 27.9422 9.48727 31.0904 14.4882 29.6454L14.6906 28.0259C14.7924 28.194 14.9551 28.5706 14.9819 28.7339Z" fill="#623F26"/>
<path d="M7.96933 11.4516C7.96933 11.4516 7.65945 9.86405 5.70734 9.86243C3.83231 9.8608 2.98789 11.4516 3.20125 12.6489C3.42548 13.9068 4.1788 14.5768 5.30422 14.8854C6.47969 15.2077 7.70478 14.9642 7.70478 14.9642" fill="#B57F59"/>
<path d="M7.15165 12.1027C7.15165 12.1027 7.00242 11.2681 6.06212 11.2671C5.15898 11.2662 4.75216 12.1027 4.85491 12.732C4.96292 13.3934 5.32578 13.7457 5.86785 13.9079C6.43406 14.0774 7.02417 13.9495 7.02417 13.9495" fill="#DCA3B4"/>
<path d="M22.6914 11.4236C22.6914 11.4236 22.9825 9.88585 24.8164 9.88428C26.5778 9.8827 27.3711 11.4236 27.1706 12.5834C26.96 13.8019 26.2523 14.4509 25.1951 14.7498C24.0908 15.062 22.9399 14.8262 22.9399 14.8262" fill="#B57F59"/>
<path d="M23.1895 12.1027C23.1895 12.1027 23.3387 11.2681 24.279 11.2671C25.1821 11.2662 25.5889 12.1027 25.4862 12.732C25.3782 13.3934 25.0153 13.7457 24.4733 13.9079C23.907 14.0774 23.3169 13.9495 23.3169 13.9495" fill="#DCA3B4"/>
<path d="M25.4863 12.7324C25.3783 13.3936 25.0156 13.7458 24.4736 13.9081C24.4115 13.9265 24.3494 13.9415 24.2877 13.9536C23.7849 14.051 23.3171 13.9497 23.3171 13.9497L23.1895 12.1027C23.1895 12.1027 23.2286 11.8833 23.394 11.6691C23.5508 11.4657 23.8208 11.2676 24.2791 11.2671C25.1824 11.2666 25.5891 12.1027 25.4863 12.7324Z" fill="#DCA3B4"/>
<path d="M24.1797 10.5077C24.1089 11.8461 23.6826 13.137 23.4015 13.5758C23.8426 14.4345 23.9928 14.9371 24.0798 15.5591C24.1314 15.9258 24.1094 16.3007 24.0339 16.589C23.7672 17.6115 22.9385 18.2258 21.7643 18.6535C21.6888 18.6806 21.6123 18.7073 21.5339 18.7334C21.739 18.6394 21.933 18.515 22.1108 18.3701C22.7369 17.861 23.1655 17.0995 23.2043 16.5032C23.2052 16.4809 23.2062 16.4587 23.2066 16.4369C23.2071 16.4117 23.2071 16.3865 23.2057 16.3623C23.2057 16.3419 23.2047 16.3216 23.2033 16.3022C23.1741 15.8125 22.9452 15.4671 22.6862 15.2302C22.3153 14.8911 21.6024 14.5967 21.6024 14.5967C21.6024 14.5967 23.6329 11.4349 21.8723 8.5517C21.858 8.52845 21.8441 8.50472 21.8293 8.48195C20.8414 6.91877 19.5401 6.31569 18.3486 6.29728C18.3462 6.2968 18.3434 6.2968 18.341 6.29728C16.7997 6.27645 15.4443 7.2346 15.1944 8.35891C15.1671 8.48098 15.1528 8.6045 15.1528 8.72948H15.1131C15.1131 7.48068 13.6942 6.32344 12.0315 6.29728C10.81 6.2779 9.45605 6.86888 8.43666 8.48195C8.42184 8.50472 8.40751 8.52845 8.39365 8.5517C6.633 11.4349 8.73201 14.4345 8.73201 14.4345C8.73201 14.4345 8.38074 14.7739 8.37644 14.7753C8.32435 14.7904 7.97881 14.8984 7.65431 15.1653C7.37282 15.3968 7.1071 15.749 7.06552 16.2649C7.06026 16.3201 7.05835 16.3773 7.0593 16.4369C7.06265 16.6587 7.12382 16.9072 7.23183 17.1586V17.1591C7.39146 17.5306 7.65383 17.9094 7.98455 18.2204C8.2063 18.4297 8.45912 18.608 8.73201 18.7334C7.4359 18.3028 6.51544 17.6774 6.23155 16.589C6.1527 16.2872 6.13263 15.8904 6.1938 15.5073C6.29034 14.9042 6.56117 14.1101 6.86402 13.5758C6.72118 13.2992 6.157 11.8461 6.08579 10.5077C5.86356 6.30067 9.16548 2.79455 13.3291 2.07375L13.33 2.07327C13.7028 1.95362 14.305 1.75404 15.1088 1.47018C16.0651 1.13304 16.7208 0.415147 16.9956 0.0673438C17.0712 -0.0285685 17.2174 -0.0208177 17.2829 0.0828451C17.4411 0.331829 17.6929 0.954775 17.843 1.44741C17.8764 1.55689 18.0012 1.60678 18.0996 1.55059C18.2798 1.44693 18.5565 1.09767 18.8179 0.893255C18.9083 0.822532 19.0402 0.855956 19.087 0.961071C19.2266 1.27497 19.4545 1.9386 19.4239 2.87835C22.333 4.30008 24.3556 7.18568 24.1797 10.5077Z" fill="#B57F59"/>
<path d="M22.6712 14.3189C23.8426 15.2445 23.4414 17.6236 22.3709 18.2948C22.3211 18.326 21.723 18.6724 21.6717 18.6957C21.5578 18.7334 21.4409 18.7691 21.3221 18.8033C21.2841 18.8147 21.2461 18.8251 21.2082 18.8355C20.5809 19.0085 20.2377 19.1567 19.8186 19.2861C19.4832 19.3897 19.0996 19.4814 18.4832 19.5632C17.0852 19.7491 15.8588 19.9167 15.1374 19.9167C14.0195 19.9167 12.124 19.7075 10.2649 19.2127C9.47148 19.0011 8.68495 18.7378 7.96796 18.4166C7.96796 18.4166 7.96747 18.4161 7.96698 18.4156C7.84074 18.3398 7.71943 18.2585 7.60552 18.1708C6.12253 17.0285 6.56126 14.2714 7.7826 13.9945C7.77915 14.0064 7.78556 13.9821 7.7826 13.9945C7.7826 13.9945 6.33771 11.2268 8.15436 8.27633C8.16915 8.25204 8.18395 8.22825 8.19923 8.20495C9.21604 6.60925 10.5544 5.99109 11.7812 5.96928C13.3785 5.94103 14.7858 6.92452 15.0447 8.07904C15.0728 8.20396 15.0876 8.33036 15.0876 8.45826C15.0876 7.17436 16.5655 5.98515 18.2914 5.96928C18.2938 5.96879 18.2968 5.96879 18.2993 5.96928C19.5513 5.95986 20.9335 6.5681 21.9764 8.20495C21.9917 8.22825 22.006 8.25204 22.0208 8.27633C23.8375 11.2268 22.6712 14.3189 22.6712 14.3189Z" fill="#F9D6B6"/>
<path d="M17.7621 10.3004C18.2493 10.1293 18.8232 10.2488 19.209 10.5984" stroke="#9F6056" stroke-width="0.977269" stroke-miterlimit="10" stroke-linecap="round"/>
<path d="M12.9612 10.3763C12.4489 10.2817 11.8382 10.4256 11.3824 10.7563" stroke="#9F6056" stroke-width="0.977269" stroke-miterlimit="10" stroke-linecap="round"/>
<path d="M17.3335 12.6398C17.3335 13.1717 17.7584 13.6024 18.2832 13.6024C18.808 13.6024 19.2329 13.1717 19.2329 12.6398C19.2329 12.1078 18.808 11.6772 18.2832 11.6772C17.7584 11.6772 17.3335 12.1078 17.3335 12.6398Z" fill="#FFF3EB"/>
<path d="M17.963 13.5334C18.4495 13.5334 18.844 13.1336 18.844 12.6404C18.844 12.1473 18.4495 11.7475 17.963 11.7475C17.4764 11.7475 17.082 12.1473 17.082 12.6404C17.082 13.1336 17.4764 13.5334 17.963 13.5334Z" fill="#070C11"/>
<path d="M17.5009 12.1018C17.376 12.2538 17.376 12.4691 17.5009 12.5705C17.6259 12.6718 17.8321 12.6338 17.957 12.4755C18.082 12.3235 18.082 12.1082 17.957 12.0068C17.8321 11.9055 17.6259 11.9435 17.5009 12.1018Z" fill="white"/>
<path d="M11.3618 12.6398C11.3618 13.1717 11.7867 13.6024 12.3115 13.6024C12.8363 13.6024 13.2612 13.1717 13.2612 12.6398C13.2612 12.1078 12.8363 11.6772 12.3115 11.6772C11.7929 11.6772 11.3618 12.1078 11.3618 12.6398Z" fill="#FFF3EB"/>
<path d="M12.6378 13.5334C13.1244 13.5334 13.5188 13.1336 13.5188 12.6404C13.5188 12.1473 13.1244 11.7475 12.6378 11.7475C12.1513 11.7475 11.7568 12.1473 11.7568 12.6404C11.7568 13.1336 12.1513 13.5334 12.6378 13.5334Z" fill="#070C11"/>
<path d="M12.1694 12.1018C12.0444 12.2538 12.0444 12.4691 12.1694 12.5705C12.2944 12.6718 12.5005 12.6338 12.6255 12.4755C12.7505 12.3172 12.7505 12.1082 12.6255 12.0068C12.5005 11.9055 12.2944 11.9435 12.1694 12.1018Z" fill="white"/>
<path d="M12.0493 17.0003C12.6019 17.0003 13.0499 16.748 13.0499 16.4368C13.0499 16.1256 12.6019 15.8734 12.0493 15.8734C11.4968 15.8734 11.0488 16.1256 11.0488 16.4368C11.0488 16.748 11.4968 17.0003 12.0493 17.0003Z" fill="#DCA3B4"/>
<path d="M18.2813 17.0003C18.8339 17.0003 19.2818 16.748 19.2818 16.4368C19.2818 16.1256 18.8339 15.8734 18.2813 15.8734C17.7287 15.8734 17.2808 16.1256 17.2808 16.4368C17.2808 16.748 17.7287 17.0003 18.2813 17.0003Z" fill="#DCA3B4"/>
<path d="M14.896 15.7976C14.9389 15.81 14.9798 15.7737 14.9734 15.7289C14.9547 15.5946 14.8945 15.3637 14.7019 15.3329C14.4468 15.2922 14.419 15.5166 14.442 15.5836C14.4686 15.6616 14.5334 15.7105 14.6606 15.7375C14.7387 15.7542 14.8298 15.7783 14.896 15.7976Z" fill="#45494D"/>
<path d="M15.5957 15.7976C15.5528 15.81 15.5119 15.7737 15.5182 15.7289C15.537 15.5946 15.5972 15.3637 15.7898 15.3329C16.0449 15.2922 16.0726 15.5166 16.0497 15.5836C16.023 15.6616 15.9583 15.7105 15.831 15.7375C15.7529 15.7542 15.6618 15.7783 15.5957 15.7976Z" fill="#45494D"/>
<path d="M16.4996 16.4061C16.459 16.5412 16.3902 16.652 16.3063 16.7401C16.2227 16.8283 16.1253 16.8932 16.0326 16.9396C15.8154 17.0487 15.5901 17.1032 15.3647 17.1032C15.1903 17.1032 15.0156 17.0707 14.8446 17.0057C14.7334 16.9634 14.5907 16.9043 14.4612 16.8092C14.3314 16.714 14.2183 16.5824 14.1601 16.4125C14.1425 16.3615 14.1058 16.3464 14.0778 16.3789C14.0501 16.4113 14.042 16.4792 14.0596 16.5308C14.1403 16.7628 14.2761 16.9089 14.4169 17.0133C14.558 17.1171 14.7073 17.178 14.8204 17.2209C14.9992 17.2888 15.1818 17.323 15.3644 17.323C15.6001 17.323 15.8358 17.2661 16.0634 17.1519C16.1623 17.102 16.2686 17.0324 16.3647 16.9315C16.4606 16.83 16.5476 16.6961 16.603 16.5134C16.619 16.4606 16.6086 16.3934 16.58 16.3638C16.552 16.3342 16.5156 16.3533 16.4996 16.4061Z" fill="#45494D"/>
<path d="M20.1309 19.5936C20.1309 19.5936 22.873 21.9676 22.2896 23.9709C21.9374 25.18 20.719 25.1071 20.719 25.1071" fill="#B57F59"/>
<path opacity="0.3" d="M21.466 24.2713C21.3637 24.6981 21.2705 24.7819 21.1247 24.9611C20.7481 25.4252 19.9725 25.6029 19.799 25.2755C19.7197 25.1258 19.7675 24.9335 19.8578 24.7523C20.1053 24.9718 20.7811 24.7867 21.1247 24.3638C21.2705 24.1841 21.3637 24.1003 21.466 23.674C21.4903 23.5723 21.5071 23.4691 21.5176 23.3655C21.5439 23.6566 21.5376 23.9715 21.466 24.2713Z" fill="#6B184E"/>
<path d="M23.2059 30.2866C22.2278 30.6409 19.8749 30.7296 17.7423 28.8849C15.6091 27.0403 15.1803 23.9937 15.2025 23.3727C15.4552 16.242 20.1039 15.6273 20.2764 15.607C20.28 15.6065 20.2815 15.6065 20.2815 15.6065L21.0686 13.9875C21.1803 13.7572 21.4099 13.6234 21.6487 13.6234C21.7409 13.6234 21.8345 13.6431 21.9231 13.6851C22.5233 13.9699 22.9999 14.4653 23.264 15.079L23.3062 15.1754C23.4323 15.4685 23.3289 15.8104 23.0617 15.9826L21.2138 17.1737L21.205 17.1794C21.2601 17.6893 20.9193 19.1849 20.6115 22.5308C20.3037 25.8767 23.2831 28.569 23.5471 28.7796C23.8107 28.9902 24.1844 29.9318 23.2059 30.2866Z" fill="#FDD907"/>
<path opacity="0.5" d="M20.6304 16.3066C20.2394 16.3577 15.6705 17.1044 15.416 23.9647C15.4081 24.1755 15.4553 24.6693 15.6104 25.3013C15.2832 24.3316 15.1918 23.5184 15.2025 23.2314C15.4633 16.1971 20.2607 15.5907 20.4386 15.5707C20.4424 15.5702 20.444 15.5702 20.444 15.5702C20.444 15.5702 20.6421 15.6178 20.6421 15.6193C20.5348 15.8317 20.5157 16.0579 20.6304 16.3066Z" fill="white"/>
<path d="M23.4557 29.7192C14.1656 25.613 20.5481 17.1905 20.5481 17.1905C20.5481 17.1905 13.8735 24.7839 22.4879 29.7192C22.7972 29.8964 23.788 29.8661 23.4557 29.7192Z" fill="#9F6056"/>
<path d="M23.2021 15.5951C23.2017 15.6051 23.2012 15.6156 23.2002 15.6256C23.2002 15.6295 23.1997 15.6328 23.1993 15.6367C23.1983 15.6461 23.1969 15.6556 23.1959 15.6656C23.1959 15.6667 23.1959 15.6678 23.1954 15.6689C23.1935 15.6805 23.1916 15.6916 23.1896 15.7033C22.931 15.1723 22.5341 14.7457 22.0524 14.4844C21.9696 14.4395 21.8819 14.4184 21.7957 14.4184C21.5722 14.4184 21.3574 14.5615 21.2528 14.8078L20.5164 16.5394C20.5164 16.5394 20.5149 16.5394 20.5116 16.5399C20.5077 16.5405 20.501 16.5416 20.4918 16.5427C20.3878 16.2731 20.4051 16.0278 20.5024 15.7976C20.5024 15.7959 20.3228 15.7443 20.3228 15.7443L21.0592 14.0128C21.1637 13.7665 21.3786 13.6234 21.6021 13.6234C21.6883 13.6234 21.7759 13.6444 21.8588 13.6894C22.4204 13.994 22.8664 14.5238 23.1135 15.1801L23.153 15.2833C23.1911 15.3843 23.207 15.4908 23.2021 15.5951Z" fill="#85D66E"/>
<path d="M23.5232 15.3358C23.4893 15.5276 23.3905 15.7026 23.2398 15.8147L21.3937 17.1911C20.9885 16.8422 20.5924 16.8295 20.4829 16.5424L21.4554 14.3682C21.567 14.1021 21.5244 13.6234 21.763 13.6234C21.8551 13.6234 21.9487 13.6461 22.0371 13.6947C22.5513 13.977 23.247 14.7621 23.5232 15.3358Z" fill="#85D66E"/>
<path d="M21.9224 30.4351C21.9224 30.4351 22.0308 29.1788 23.5097 28.8685C23.5097 28.8685 24.2585 29.5903 23.5097 30.1357C22.761 30.681 21.9224 30.4351 21.9224 30.4351Z" fill="#9F6056"/>
<path d="M21.3951 13.7641C21.3951 13.7641 20.9029 14.3579 21.9743 15.3758C23.1117 16.4566 23.2359 15.5366 23.1962 15.3758C23.1566 15.2151 23.1396 15.1697 23.1396 15.1697C23.1396 15.1697 22.0164 13.0697 21.3951 13.7641Z" fill="#9F6056"/>
<path opacity="0.3" d="M19.5597 25.6458C19.7331 25.973 20.509 25.7953 20.8854 25.3316C21.0311 25.1522 21.1241 25.0686 21.2263 24.6419C21.4248 23.8141 21.1211 22.8693 21.0247 22.6364C20.9282 22.4035 20.7139 21.8902 20.458 21.8513C20.2021 21.8125 20.154 22.5557 20.154 22.5557C20.154 22.5557 19.1094 22.0522 18.9418 22.658C18.802 23.163 19.4841 23.4594 19.6538 23.5247C19.6637 23.5285 19.6626 23.543 19.6522 23.5449C19.4606 23.5797 18.6356 23.769 18.8063 24.4236C18.9263 24.8836 19.8 24.627 19.9979 24.5623C20.0081 24.5589 20.0158 24.5717 20.0084 24.5796C19.8793 24.7188 19.3748 25.2968 19.5597 25.6458Z" fill="#6B184E"/>
<path d="M19.7995 25.2739C19.9728 25.6011 20.7487 25.4235 21.1251 24.9598C21.2709 24.7803 21.3638 24.6967 21.4661 24.27C21.6645 23.4422 21.3608 22.4974 21.2644 22.2645C21.168 22.0317 20.9536 21.5183 20.6977 21.4794C20.4418 21.4406 20.3938 22.1838 20.3938 22.1838C20.3938 22.1838 19.3492 21.6803 19.1815 22.2861C19.0418 22.7911 19.7239 23.0875 19.8935 23.1528C19.9034 23.1566 19.9024 23.1711 19.892 23.173C19.7003 23.2078 18.8753 23.3971 19.0461 24.0517C19.166 24.5117 20.0398 24.2551 20.2376 24.1904C20.2479 24.187 20.2555 24.1998 20.2481 24.2077C20.1191 24.3469 19.6145 24.9249 19.7995 25.2739Z" fill="#F9D6B6"/>
<path opacity="0.3" d="M17.4779 25.2074C17.2318 25.4748 16.6908 25.2699 16.5092 25.1904C16.4987 25.1861 16.4896 25.1996 16.4977 25.2074C16.6163 25.3251 16.8882 25.6574 16.6397 26.0391C16.3388 26.5008 15.3685 26.1038 14.8494 25.8456C14.607 25.725 14.4087 25.5258 14.3016 25.2745C14.301 25.2732 14.3004 25.2717 14.2998 25.2704C14.2993 25.2699 14.2993 25.2699 14.2993 25.2699C14.0924 24.7831 14.0499 24.2352 14.1861 23.7145L14.2229 23.5735C14.2229 23.5735 15.0406 22.1339 15.7283 22.2123C16.3176 22.2792 16.1551 22.8445 16.0958 23.0058C16.0925 23.016 16.1039 23.0242 16.1121 23.0174C16.3496 22.8154 17.0908 22.595 17.3408 23.0726C17.6515 23.6667 16.9733 24.0349 16.7465 24.1384C16.736 24.1432 16.74 24.1591 16.7514 24.1582C16.8607 24.1499 17.077 24.155 17.3231 24.2822C17.3518 24.2967 17.3785 24.3122 17.4039 24.3282C17.4158 24.3355 17.4268 24.3427 17.4383 24.3505C17.4488 24.3577 17.4593 24.365 17.4693 24.3728C17.4784 24.3791 17.487 24.3858 17.4951 24.3926C17.498 24.395 17.5009 24.3975 17.5037 24.3999C17.5119 24.4062 17.52 24.413 17.5272 24.4202C17.5358 24.4275 17.5439 24.4353 17.5515 24.443C17.5635 24.4551 17.5749 24.4672 17.5855 24.4798C17.5902 24.4851 17.5945 24.491 17.5988 24.4963C17.6132 24.5137 17.6256 24.5321 17.6361 24.5505C17.6399 24.5568 17.6438 24.5631 17.6466 24.5694C17.6509 24.5767 17.6548 24.5845 17.6576 24.5917C17.6619 24.6004 17.6657 24.6092 17.6686 24.6179C17.6701 24.6203 17.6705 24.6222 17.671 24.6247C17.6739 24.6314 17.6763 24.6377 17.6777 24.6445C17.6796 24.6494 17.681 24.6542 17.682 24.659C17.6839 24.6653 17.6853 24.6712 17.6863 24.677C17.6873 24.6823 17.6887 24.6871 17.6892 24.6925C17.6901 24.6968 17.6906 24.7012 17.6911 24.7056C17.6925 24.7128 17.693 24.7201 17.6935 24.7274C17.7049 24.8712 17.639 25.0325 17.4779 25.2074Z" fill="#6B184E"/>
<path d="M17.186 24.8011C16.9399 25.0685 16.3989 24.8636 16.2173 24.7842C16.2067 24.7798 16.1977 24.7934 16.2058 24.8011C16.3243 24.9189 16.5962 25.2512 16.3477 25.6329C15.93 26.2737 14.2224 25.2599 14.2224 25.2599C14.1378 25.1339 14.0661 25.0017 14.0078 24.8641C14.0074 24.8636 14.0074 24.8636 14.0074 24.8636C13.8004 24.3768 13.7579 23.8289 13.8941 23.3082L13.9309 23.1672C13.9309 23.1672 14.7486 21.7276 15.4363 21.8061C16.0256 21.8729 15.8631 22.4382 15.8039 22.5995C15.8005 22.6097 15.812 22.6179 15.8201 22.6112C16.0576 22.4092 16.7989 22.1888 17.0488 22.6664C17.3595 23.2603 16.6818 23.6284 16.4548 23.7321C16.4443 23.7369 16.4486 23.7529 16.46 23.7519C16.5695 23.7437 16.7855 23.749 17.0312 23.8759C17.0598 23.8905 17.0866 23.906 17.1119 23.922C17.1239 23.9292 17.1349 23.9365 17.1463 23.9442C17.1568 23.9515 17.1674 23.9588 17.1774 23.9665C17.1865 23.9728 17.1951 23.9796 17.2032 23.9864C17.2061 23.9888 17.2089 23.9912 17.2118 23.9936C17.2199 23.9999 17.2281 24.0067 17.2352 24.014C17.2438 24.0213 17.2519 24.029 17.2596 24.0368C17.2715 24.0489 17.283 24.061 17.2935 24.0736C17.2983 24.0789 17.3026 24.0847 17.3069 24.09C17.3212 24.1075 17.3337 24.1259 17.3442 24.1443C17.348 24.1506 17.3518 24.1569 17.3547 24.1632C17.359 24.1705 17.3628 24.1782 17.3657 24.1855C17.37 24.1942 17.3738 24.2029 17.3767 24.2116C17.3781 24.214 17.3786 24.216 17.3791 24.2184C17.3819 24.2252 17.3843 24.2315 17.3858 24.2383C17.3877 24.2431 17.3891 24.248 17.3901 24.2528C17.392 24.2591 17.3934 24.2649 17.3944 24.2707C17.3953 24.2761 17.3968 24.2809 17.3972 24.2862C17.3982 24.2906 17.3987 24.2949 17.3992 24.2993C17.4006 24.3066 17.4011 24.3138 17.4015 24.3211C17.413 24.465 17.3471 24.6263 17.186 24.8011Z" fill="#F9D6B6"/>
<path d="M15.7803 32.0002C15.7803 32.0002 17.196 32.0779 16.9731 30.4514C16.9569 30.3327 16.9708 30.2118 17.0128 30.0999C17.1692 29.6827 17.513 28.6404 17.1914 28.2882C16.7956 27.8549 16.4718 28.3456 16.3953 28.4744C16.3906 28.4822 16.3792 28.479 16.3789 28.47C16.3752 28.3157 16.3307 27.6663 15.8431 27.5619C15.3491 27.4562 15.2929 28.0718 15.2864 28.2067C15.286 28.215 15.2755 28.2182 15.2705 28.2115C15.1927 28.1078 14.8241 27.6633 14.4143 27.9541C14.067 28.2005 14.2363 28.6752 14.2935 28.8094C14.2972 28.818 14.2872 28.8258 14.2799 28.8199C14.1738 28.7335 13.8078 28.4707 13.5283 28.7042C13.1979 28.9802 13.6176 30.3445 14.0539 30.92C14.4901 31.4954 14.9146 31.9441 15.7803 32.0002Z" fill="#F9D6B6"/>
<path d="M15.7489 31.0465C16.154 30.9878 16.4271 30.5473 16.3589 30.0624C16.2906 29.5775 15.9068 29.2319 15.5016 29.2905C15.0965 29.3492 14.8234 29.7897 14.8917 30.2746C14.96 30.7595 15.3438 31.1051 15.7489 31.0465Z" fill="#DCA3B4"/>
</svg>
