<svg width="40" height="40" viewBox="0 0 40 40" fill="none" xmlns="http://www.w3.org/2000/svg">
<rect x="0.5" y="0.5" width="39" height="39" rx="19.5" fill="#EBF3FF"/>
<rect x="0.5" y="0.5" width="39" height="39" rx="19.5" stroke="#0086BF"/>
<g clip-path="url(#clip0_11638_137002)">
<path d="M19.0278 25.8334H20.9722C21.5069 25.8334 21.9444 25.3959 21.9444 24.8611C21.9444 24.3264 21.5069 23.8889 20.9722 23.8889H19.0278C18.4931 23.8889 18.0556 24.3264 18.0556 24.8611C18.0556 25.3959 18.4931 25.8334 19.0278 25.8334ZM11.25 15.1389C11.25 15.6736 11.6875 16.1111 12.2222 16.1111H27.7778C28.3125 16.1111 28.75 15.6736 28.75 15.1389C28.75 14.6042 28.3125 14.1667 27.7778 14.1667H12.2222C11.6875 14.1667 11.25 14.6042 11.25 15.1389ZM15.1389 20.9722H24.8611C25.3958 20.9722 25.8333 20.5347 25.8333 20C25.8333 19.4653 25.3958 19.0278 24.8611 19.0278H15.1389C14.6042 19.0278 14.1667 19.4653 14.1667 20C14.1667 20.5347 14.6042 20.9722 15.1389 20.9722Z" fill="#0086BF"/>
</g>
<defs>
<clipPath id="clip0_11638_137002">
<rect width="20" height="20" fill="white" transform="translate(10 10)"/>
</clipPath>
</defs>
</svg>
