<svg width="37" height="32" viewBox="0 0 37 32" fill="none" xmlns="http://www.w3.org/2000/svg">
<path d="M14.793 6.86159C14.719 5.89534 14.5124 4.93419 14.1502 4.03678C13.788 3.13937 13.2295 2.30314 12.4618 1.71166C12.1149 1.44652 11.7272 1.22981 11.3064 1.10999C10.6866 0.934074 10.0235 0.972317 9.38582 1.059C8.77114 1.14313 8.12586 1.29355 7.69482 1.73716C7.44486 1.9972 7.29183 2.33119 7.1286 2.65497C6.79448 3.31783 6.30223 3.90676 5.87374 4.50843C5.04226 5.67609 4.43268 5.56391 4.02715 5.81886C3.7976 5.96418 4.0501 6.82845 4.65713 6.7902C4.82292 6.78001 4.89433 6.5939 4.98105 6.45113C5.12898 6.21148 5.40954 6.0993 5.67224 5.99987C6.1951 5.80356 6.71796 5.60725 7.26123 5.47468C8.16666 5.25288 9.10781 5.21208 10.0235 5.03872C10.4494 5.32936 10.3958 5.69139 10.406 5.72963C10.1204 6.80295 9.23789 7.65957 8.3452 8.35813C7.79429 8.78899 7.21022 9.20455 6.83784 9.79603C6.57003 10.2218 6.4272 10.7138 6.29712 11.2008C6.11859 11.8636 5.9579 12.5367 5.89414 13.22C5.85588 13.6508 5.85588 14.0919 5.98341 14.5074C6.09308 14.8593 6.28947 15.1754 6.49607 15.4813C7.27653 16.6286 9.50853 17.9779 10.0464 19.8052C10.7453 22.6861 6.34266 23.5987 7.02658 20.2922C7.16431 20.4426 8.13719 21.0818 8.62661 20.2922C9.11603 19.5026 8.62661 19.0111 8.13606 18.6248C7.6455 18.2386 6.5058 18.7007 6.17952 19.1749C4.71126 21.6326 7.02658 23.3903 7.74838 23.5504C8.86296 23.7977 10.0923 23.4637 10.9263 22.6861C11.7604 21.9086 12.1812 20.7052 12.0103 19.5783C11.9848 19.4152 11.9491 19.2546 11.8955 19.099C11.8445 18.9512 11.4798 18.0767 11.4288 17.9849C11.0233 17.2507 10.7886 16.4221 10.7453 15.5859C10.7249 15.1907 10.7478 14.793 10.8243 14.4055C11.1049 12.9574 12.0868 11.7642 12.9566 10.5711C13.3774 9.99234 13.7804 9.39831 14.1604 8.79409C14.39 8.42186 14.8465 7.58054 14.793 6.86159Z" fill="#FFCD71"/>
<path d="M9.32211 3.42681C9.32211 4.01064 8.91657 4.48484 8.41667 4.48484C7.91676 4.48484 7.51123 4.01064 7.51123 3.42681C7.51123 2.84298 7.91676 2.36877 8.41667 2.36877C8.91657 2.36877 9.32211 2.84298 9.32211 3.42681Z" fill="#5B5B5B"/>
<path d="M8.36056 4.29618C8.82963 4.29618 9.20989 3.86471 9.20989 3.33248C9.20989 2.80024 8.82963 2.36877 8.36056 2.36877C7.89149 2.36877 7.51123 2.80024 7.51123 3.33248C7.51123 3.86471 7.89149 4.29618 8.36056 4.29618Z" fill="white"/>
<path d="M8.547 4.14201C8.71885 4.14201 8.85817 3.98221 8.85817 3.78509C8.85817 3.58796 8.71885 3.42816 8.547 3.42816C8.37515 3.42816 8.23584 3.58796 8.23584 3.78509C8.23584 3.98221 8.37515 4.14201 8.547 4.14201Z" fill="#46494D"/>
<path d="M8.85804 3.60662C8.85804 3.70605 8.78917 3.78509 8.70246 3.78509C8.61574 3.78509 8.54688 3.70605 8.54688 3.60662C8.54688 3.50719 8.61574 3.42816 8.70246 3.42816C8.78917 3.42816 8.85804 3.50719 8.85804 3.60662Z" fill="white"/>
<path d="M6.49621 15.4835C7.15869 16.553 8.71772 17.6582 9.5543 18.8131C9.5543 18.7851 9.55685 18.7596 9.55685 18.7315C9.60276 17.5358 9.61806 16.284 9.09265 15.2081C8.72793 14.4611 8.126 13.8569 7.69241 13.1482C7.21546 12.3706 6.94256 11.4502 7.02162 10.5401C7.07008 9.99448 7.25372 9.45654 7.55468 9.00018C7.28178 9.23983 7.03182 9.49733 6.84053 9.80327C6.17985 10.5401 5.69043 11.8015 5.69043 12.9484C5.69043 14.0953 5.83374 14.414 6.49621 15.4835Z" fill="#FFE3AB"/>
<path d="M4.98105 6.45554C5.12898 6.21589 5.40954 6.10372 5.67224 6.00429C6.1951 5.80798 6.71796 5.61167 7.26122 5.4791C8.15136 5.25984 9.07465 5.2165 9.97754 5.05334C10.0005 4.99215 10.0209 4.93097 10.0413 4.86723C10.1102 4.64543 10.1816 4.42107 10.1943 4.18907C10.2071 3.95707 10.1612 3.71232 10.0158 3.53131C10.1408 3.8143 10.1714 4.15338 10.0337 4.43127C9.82706 4.84428 9.32461 5.0049 8.87061 5.08903C8.15646 5.21905 7.42956 5.2624 6.71796 5.39497C6.00636 5.53009 5.29221 5.76464 4.7362 6.22864C4.65968 6.29238 4.56786 6.36631 4.47094 6.34082C4.37912 6.31787 4.33066 6.22099 4.2924 6.13176C4.26435 6.06548 4.23629 5.99409 4.25415 5.9227C4.2822 5.80798 4.41228 5.75954 4.52195 5.7162C4.74895 5.62697 4.95299 5.4842 5.11878 5.30828C4.65968 5.64226 4.29751 5.64991 4.02715 5.82073C3.7976 5.96605 4.0501 6.83031 4.65713 6.79207C4.82036 6.78187 4.89433 6.59576 4.98105 6.45554Z" fill="#FFCD71"/>
<path d="M14.1498 4.03449C14.0962 3.90447 14.0401 3.77445 13.9789 3.64697C13.961 4.11607 14.007 4.59027 13.9967 5.06192C13.9585 6.71398 13.1908 8.2666 12.2394 9.61527C11.6885 10.398 11.0713 11.1348 10.5714 11.9506C10.074 12.769 9.69655 13.6893 9.69145 14.6454C9.6838 16.198 10.6377 17.5773 11.6069 18.7908C11.7013 18.9081 11.7982 19.0279 11.9002 19.1375C11.8951 19.1248 11.8926 19.112 11.8875 19.0967C11.8364 18.9489 11.4717 18.0744 11.4207 17.9826C11.0152 17.2484 10.7805 16.4198 10.7372 15.5836C10.7168 15.1884 10.7397 14.7907 10.8162 14.4032C11.0968 12.9551 12.0787 11.7619 12.9485 10.5688C13.3693 9.99004 13.7723 9.39602 14.1523 8.79179C14.387 8.41957 14.8435 7.5757 14.79 6.85675C14.7185 5.8956 14.512 4.93445 14.1498 4.03449Z" fill="#FFCD71"/>
<path d="M13.9311 11.83C13.3317 11.7586 12.7272 11.7204 12.1227 11.7127C11.5361 12.5464 11.0132 13.4183 10.822 14.41C10.7684 14.6905 10.7403 14.976 10.7378 15.2616C10.7735 15.2947 10.8092 15.3253 10.8424 15.3584C11.1331 15.6338 11.3958 15.9397 11.6203 16.2686C11.6815 16.3604 11.758 16.4624 11.8677 16.4675C11.9952 16.4726 12.0819 16.3451 12.1457 16.2329C12.7833 15.0933 13.5918 14.0531 14.1887 12.8931C14.2805 12.7146 14.3698 12.5285 14.3978 12.3322C14.4131 12.2226 14.4106 12.1053 14.3468 12.0135C14.2601 11.8784 14.0866 11.8478 13.9311 11.83Z" fill="#F49A56"/>
<path d="M12.1456 16.2298C12.1787 16.1712 12.2119 16.1151 12.2451 16.059C12.1787 16.0692 12.1124 16.0692 12.0487 16.059C11.8191 16.0182 11.6227 15.8652 11.4875 15.6766C11.3524 15.4879 11.2682 15.2661 11.1968 15.0468C11.1662 14.9551 11.1381 14.8607 11.1458 14.7639C11.156 14.667 11.2121 14.5701 11.3039 14.5395C11.5181 14.4732 11.6814 14.7944 11.9033 14.7817C11.6967 14.6695 11.5437 14.463 11.4977 14.231C11.4901 14.1902 11.4875 14.1418 11.5181 14.1137C11.5386 14.0959 11.5666 14.0908 11.5921 14.0908C11.814 14.0729 12.041 14.1061 12.2502 14.1902C12.4057 14.2514 12.569 14.3432 12.7297 14.2922C12.4465 14.1112 12.1787 13.9047 11.9339 13.6752C11.8778 13.6217 11.8217 13.5656 11.7962 13.4942C11.7707 13.4228 11.7885 13.3285 11.8548 13.2903C11.8931 13.2673 11.939 13.2673 11.9849 13.2699C12.3139 13.2801 12.6378 13.3616 12.9362 13.5019C12.7628 13.3795 12.5919 13.2597 12.4185 13.1373C12.3063 13.0583 12.1915 12.9767 12.115 12.8645C12.0869 12.8237 12.064 12.7753 12.0818 12.7294C12.092 12.7013 12.1175 12.6784 12.143 12.6605C12.3318 12.5305 12.5894 12.5535 12.8087 12.6198C13.0281 12.686 13.2398 12.7931 13.4693 12.8135C13.1301 12.6503 12.8036 12.4642 12.4925 12.2552C12.444 12.222 12.3904 12.1812 12.3828 12.1226C12.37 12.0206 12.4925 11.962 12.5945 11.9416C12.9082 11.8753 13.2296 11.8422 13.5484 11.8447C13.4744 11.8218 13.4004 11.7937 13.329 11.7682C12.9286 11.7351 12.5282 11.7147 12.1252 11.7096C11.5386 12.5433 11.0157 13.4152 10.8244 14.4069C10.7708 14.6874 10.7428 14.9729 10.7402 15.2585C10.7759 15.2916 10.8117 15.3222 10.8448 15.3553C11.1356 15.6307 11.3983 15.9366 11.6227 16.2655C11.6839 16.3573 11.7604 16.4593 11.8701 16.4644C11.9976 16.4694 12.0844 16.3394 12.1456 16.2298Z" fill="#DF8846"/>
<path d="M6.73314 17.4499C6.89128 17.0266 6.89383 16.5499 7.0239 16.1241C6.81221 15.8947 6.62857 15.6805 6.49594 15.4868C6.33271 15.2471 6.17968 14.9998 6.06745 14.7347C5.62621 14.8596 5.21047 15.0687 4.8483 15.3491C4.81769 15.372 4.78708 15.4001 4.77433 15.4358C4.75393 15.4944 4.78709 15.5556 4.82024 15.6066C5.29974 16.3587 5.96288 16.9986 6.73314 17.4499Z" fill="#F49A56"/>
<path d="M6.73357 17.4499C6.89171 17.0266 6.89426 16.5499 7.02434 16.1241C6.81264 15.8947 6.629 15.6805 6.49638 15.4868C6.33314 15.2471 6.18011 14.9998 6.06789 14.7347C5.72866 14.8316 5.40475 14.9769 5.10889 15.1681C5.25427 15.1044 5.4022 15.0457 5.55523 15.0024C5.61899 14.9845 5.68531 14.9692 5.74907 14.9845C5.81283 15.0024 5.86639 15.0661 5.85109 15.1298C5.84344 15.163 5.81538 15.191 5.79243 15.2165C5.58838 15.4179 5.38434 15.6219 5.1803 15.8233C5.36139 15.6958 5.53993 15.5684 5.72101 15.4434C5.80518 15.3848 5.9021 15.3211 6.00667 15.3389C6.09084 15.3975 6.03983 15.5276 5.98372 15.6117C5.8766 15.7723 5.76692 15.9304 5.6598 16.091C5.80008 15.9763 5.94291 15.8692 6.09084 15.7672C6.1495 15.7264 6.25152 15.6984 6.27703 15.7647C6.28723 15.7927 6.27703 15.8233 6.26683 15.8513C6.20051 16.0222 6.12655 16.1904 6.04748 16.3561C6.11124 16.2465 6.21582 16.1598 6.33824 16.1165C6.33059 16.2669 6.28723 16.4148 6.21327 16.5448C6.27703 16.4275 6.35865 16.3179 6.45047 16.221C6.49127 16.1777 6.54739 16.1343 6.6035 16.1496C6.67746 16.17 6.68767 16.2695 6.68256 16.3459C6.66471 16.6927 6.64431 17.0368 6.62645 17.3836C6.66216 17.404 6.69787 17.4269 6.73357 17.4499Z" fill="#DF8846"/>
<path d="M9.38538 1.06221C9.44149 1.05456 9.49761 1.04691 9.55627 1.04181C9.4925 0.876094 9.42364 0.712927 9.31397 0.575255C9.19409 0.424837 9.013 0.307561 8.82171 0.31266C8.5131 0.320309 8.2963 0.616044 8.17387 0.899036C8.08971 1.0928 8.03104 1.29676 7.99023 1.50326C8.39322 1.23812 8.89823 1.12849 9.38538 1.06221Z" fill="#DF8846"/>
<path d="M9.3145 0.572143C9.19462 0.421724 9.01353 0.304448 8.82224 0.309547C8.64626 0.314646 8.49832 0.414079 8.381 0.55175C8.35549 0.625685 8.34274 0.702166 8.36314 0.776101C8.40395 0.921421 8.56209 1.00555 8.71257 1.02595C8.77888 1.03615 8.84775 1.0336 8.91406 1.0183C9.12066 0.96986 9.26349 0.78375 9.3196 0.577243C9.31705 0.577243 9.3145 0.574692 9.3145 0.572143Z" fill="#F49A56"/>
<path d="M11.3062 1.10946C11.3113 1.11201 11.3164 1.11201 11.319 1.11456C11.2756 0.790781 11.171 0.477196 11.0027 0.199303C10.967 0.140665 10.9262 0.082027 10.8675 0.0437849C10.8037 0.00554271 10.7272 -0.00210525 10.6533 0.000444223C10.1176 0.0182906 9.68405 0.50524 9.58203 1.03553C10.1585 0.966695 10.7476 0.951397 11.3062 1.10946Z" fill="#DF8846"/>
<path d="M11.0052 0.199302C10.9695 0.140664 10.9287 0.0820266 10.87 0.0437846C10.8062 0.00554268 10.7297 -0.00210524 10.6558 0.000444221C10.4084 0.00809261 10.1865 0.117717 10.0054 0.280883C10.0105 0.405807 10.0666 0.525633 10.1508 0.617414C10.2655 0.744887 10.4339 0.823919 10.6047 0.826468C10.7756 0.829017 10.9491 0.744886 11.046 0.604666C11.0817 0.551127 11.1072 0.492491 11.1276 0.431304C11.0894 0.352271 11.0485 0.273237 11.0052 0.199302Z" fill="#F49A56"/>
<path d="M12.4617 1.71123C13.2141 2.28996 13.7625 3.10069 14.1247 3.97771C14.3262 3.69727 14.5889 3.44997 14.645 3.11599C14.7139 2.70553 14.4129 2.28996 14.0201 2.15229C13.7217 2.04776 13.3901 2.08601 13.0968 2.21093C13.1274 1.97638 13.1402 1.73673 13.1351 1.49963C13.13 1.27527 13.0994 1.03053 12.9438 0.86736C12.8265 0.744985 12.653 0.688898 12.4847 0.673602C12.0792 0.63536 11.6634 0.82657 11.416 1.1478C11.7935 1.27273 12.1455 1.46903 12.4617 1.71123Z" fill="#DF8846"/>
<path d="M13.1354 1.56293C13.1354 1.54253 13.1379 1.52214 13.1354 1.49919C13.1303 1.27484 13.0997 1.03009 12.9441 0.866927C12.8267 0.744553 12.6533 0.688466 12.485 0.67317C12.3447 0.660422 12.2044 0.67572 12.0692 0.713962C12.0667 0.719061 12.0616 0.721607 12.059 0.726706C11.9698 0.882223 12.0641 1.07598 12.1687 1.2213C12.2682 1.36152 12.3804 1.49919 12.5283 1.58588C12.6763 1.67511 12.865 1.70825 13.0231 1.63686C13.0665 1.61902 13.1022 1.59097 13.1354 1.56293Z" fill="#F49A56"/>
<path d="M14.0228 2.15297C13.8672 2.09943 13.704 2.08414 13.5407 2.09943C13.5152 2.17847 13.5152 2.2677 13.5331 2.34928C13.5611 2.4742 13.6198 2.58893 13.6835 2.70111C13.8748 3.03764 14.135 3.38182 14.5125 3.4634C14.5788 3.35632 14.6272 3.24415 14.6502 3.11922C14.7165 2.70621 14.4156 2.29065 14.0228 2.15297Z" fill="#F49A56"/>
<path d="M14.1733 4.10019C14.4692 4.85229 14.6579 5.64262 14.7498 6.4457C14.9742 6.23155 15.1859 5.997 15.293 5.70891C15.4614 5.25255 15.3262 4.70696 14.987 4.35769C14.8543 4.22256 14.6911 4.11039 14.5049 4.07469C14.3952 4.05175 14.2805 4.06195 14.1733 4.10019Z" fill="#DF8846"/>
<path d="M14.9896 4.35816C14.8824 4.24598 14.7498 4.1542 14.6044 4.10321C14.5687 4.1542 14.5687 4.23068 14.5713 4.29697C14.5968 4.72783 14.6299 5.18418 14.8901 5.52836C14.9539 5.61249 15.0508 5.69408 15.1502 5.66603C15.2064 5.65074 15.2472 5.6074 15.2829 5.5615C15.3084 5.52836 15.3313 5.49267 15.3543 5.45698C15.4053 5.06436 15.2676 4.6437 14.9896 4.35816Z" fill="#F49A56"/>
<path d="M15.395 7.43225C15.3466 7.22319 15.2854 7.00904 15.1527 6.84077C15.0584 6.7184 14.9181 6.62662 14.7676 6.59857C14.7778 6.6878 14.7855 6.77449 14.7931 6.86372C14.8314 7.36342 14.6222 7.9192 14.4131 8.33986C14.6197 8.29652 14.8212 8.23788 15.0176 8.16395C15.1604 8.11041 15.3083 8.03903 15.3797 7.9039C15.4588 7.75858 15.4307 7.58777 15.395 7.43225Z" fill="#DF8846"/>
<path d="M15.1523 6.83935C15.1268 6.80876 15.0987 6.77817 15.0681 6.75012C15.0579 6.77562 15.0528 6.80366 15.0477 6.82916C15.0248 6.97193 15.0044 7.11725 14.9865 7.26257C14.9559 7.50222 14.9432 7.77247 15.0962 7.96113C15.1191 7.98917 15.1472 8.01467 15.1804 8.02741C15.2033 8.03761 15.2288 8.03761 15.2518 8.03761C15.3028 7.99937 15.3512 7.95603 15.3819 7.89994C15.4584 7.75972 15.4303 7.58635 15.3946 7.43083C15.3461 7.22178 15.2849 7.01017 15.1523 6.83935Z" fill="#F49A56"/>
<path d="M14.1551 8.79656C13.7955 9.37019 13.4155 9.93107 13.0176 10.4792C13.0278 10.4767 13.038 10.4716 13.0507 10.469C13.3287 10.3823 13.6119 10.2905 13.8439 10.1146C14.2852 9.78066 14.4459 9.14074 14.2571 8.6283C14.2189 8.69203 14.1857 8.74812 14.1551 8.79656Z" fill="#DF8846"/>
<path d="M14.3085 8.8158C14.0994 9.07584 13.9234 9.36139 13.7907 9.66733C13.7627 9.73361 13.7346 9.80755 13.755 9.87638C13.7805 9.96052 13.8622 10.0013 13.954 10.0141C14.2626 9.70812 14.3927 9.23901 14.3085 8.8158Z" fill="#F49A56"/>
<path opacity="0.5" d="M10.2019 5.19612C10.2096 5.18338 10.2146 5.17064 10.2222 5.1579C10.2146 5.16809 10.2045 5.17828 10.1943 5.18848C10.1969 5.19103 10.1994 5.19357 10.2019 5.19612Z" fill="#FFCD71"/>
<path opacity="0.5" d="M13.4032 2.68451C13.2859 2.52644 13.1609 2.37347 13.0282 2.22815C12.9696 2.2307 12.9084 2.24855 12.8523 2.27149C12.1789 2.53409 11.6203 3.03123 11.1766 3.60231C10.8042 4.08417 10.5083 4.6739 10.2227 5.21439C11.1051 4.17676 12.1764 3.15106 13.5026 2.85022C13.4567 2.80433 13.4287 2.74569 13.4032 2.68451Z" fill="#F49A56"/>
<path opacity="0.5" d="M14.4079 4.8604C14.4105 4.83491 14.4105 4.80941 14.413 4.78647C14.3442 4.55446 14.2651 4.32756 14.1758 4.10321C12.7731 4.22813 11.4901 4.94709 10.3755 5.84195C10.3704 5.85725 10.3679 5.86999 10.3628 5.88529C11.5564 5.12555 12.9975 4.75587 14.4079 4.8604Z" fill="#F49A56"/>
<path opacity="0.5" d="M14.7929 6.86092C14.7776 6.66717 14.7572 6.47595 14.7317 6.28219C14.4282 6.14197 14.0915 6.06549 13.7574 6.01705C12.5357 5.83859 11.2706 5.989 10.1229 6.44026C10.0336 6.60343 9.93156 6.76404 9.81934 6.91701C11.2502 6.62382 12.7601 6.7258 14.1348 7.22295C14.3516 7.30198 14.5837 7.40906 14.7036 7.60027C14.7725 7.35297 14.8107 7.10057 14.7929 6.86092Z" fill="#F49A56"/>
<path opacity="0.5" d="M9.35791 7.46402C9.28649 7.53795 9.21508 7.61188 9.14111 7.68327C9.59511 7.69857 10.0491 7.82094 10.4699 7.99686C11.0362 8.23396 11.5539 8.56284 12.0768 8.88662C12.3701 9.06763 12.671 9.25119 12.9006 9.50869C13.0587 9.68715 13.1786 9.89366 13.2806 10.1104C13.5816 9.6795 13.8774 9.24355 14.1555 8.79994C14.1937 8.73875 14.2396 8.66227 14.2881 8.57558C12.7731 7.798 11.0591 7.41303 9.35791 7.46402Z" fill="#F49A56"/>
<path opacity="0.5" d="M10.9796 9.16097C10.722 8.92642 9.33197 8.25081 8.68669 8.08765C8.57446 8.18198 8.45969 8.27376 8.34746 8.36299C8.16638 8.50321 7.98274 8.64343 7.8042 8.78875C8.51325 8.96721 9.13303 9.47965 9.6967 9.9768C10.3573 10.5606 11.0281 11.17 11.4311 11.9552C11.5101 12.1133 11.579 12.2739 11.6428 12.4396C11.9182 11.9909 12.2294 11.5575 12.5457 11.1317C12.2447 10.3618 11.602 9.7295 10.9796 9.16097Z" fill="#F49A56"/>
<path d="M33.8441 25.0103C33.8747 24.5407 33.9664 24.0762 34.1505 23.643C34.3557 23.1603 34.9353 21.9528 33.9103 21.9484C33.904 21.9484 33.8978 21.9484 33.8915 21.9484C32.5008 21.9484 31.2705 22.5678 30.5161 23.5182C30.3826 23.6862 30.1817 23.7859 29.9677 23.7859H28.9507C28.5645 23.7859 28.252 24.1006 28.252 24.4881V27.1029C28.252 27.491 28.5652 27.8051 28.9507 27.8051H30.11C30.3115 27.8051 30.5024 27.8935 30.6359 28.0458C31.3965 28.9141 32.572 29.4708 33.8915 29.4708C33.992 29.4708 34.0912 29.4677 34.1898 29.4614C34.8068 29.4219 35.0682 28.6439 34.6022 28.2358C34.0881 27.785 33.9826 27.0271 33.8996 26.3851C33.8429 25.9394 33.8142 25.473 33.8441 25.0103Z" fill="#FFDAC0"/>
<path d="M19.2778 19.2046C20.749 22.7598 21.1608 26.7533 20.4601 30.5386C17.4204 29.1851 15.4507 27.0166 15.4507 24.5723C15.4507 22.4614 16.9194 20.5562 19.2778 19.2046Z" fill="#FD9A9A"/>
<path d="M24.1877 17.474C25.1642 17.2928 26.193 17.1831 27.2562 17.153C27.225 17.1762 27.1944 17.2 27.1638 17.2239C25.9204 18.2087 25.3507 19.9741 25.7818 21.5045C26.0682 22.5219 26.7445 23.409 26.9342 24.4491C27.1245 25.4973 26.7976 26.5605 26.6485 27.6156C26.4419 29.0776 26.5861 30.5872 27.0546 31.9865C25.2278 31.9182 23.5083 31.6116 21.981 31.1195C21.9554 30.3471 22.0072 29.5716 22.1363 28.8093C22.3653 27.457 22.8363 26.1173 22.7159 24.7513C22.6217 23.6861 22.1694 22.6548 22.2461 21.5891C22.3191 20.5785 22.8576 19.6701 23.3816 18.8049C23.6505 18.3617 23.9195 17.9179 24.1877 17.474Z" fill="#FD9A9A"/>
<path d="M34.5887 19.0651C33.8992 19.2833 33.266 19.5203 33.0488 19.5993C31.6151 20.119 28.9797 21.3026 29.2442 22.7313C29.3871 23.4987 30.3903 23.8272 30.7715 24.5068C31.4061 25.6396 31.2401 26.8947 30.6349 28.0125C30.2506 28.7234 30.1564 29.5798 30.4178 30.3246C30.4583 30.4406 30.5912 30.6963 30.7734 30.9747C31.0018 31.3251 30.7871 31.7953 30.3735 31.8467C29.9436 31.9 29.5056 31.9395 29.0608 31.9652C28.5429 30.833 28.1786 29.6475 28.3314 28.4307C28.4737 27.3009 29.0601 26.2114 28.9011 25.0842C28.7557 24.0566 28.0132 23.2034 27.7949 22.1897C27.5515 21.0619 28.0026 19.8695 28.7395 18.9849C29.2929 18.321 29.9917 17.8031 30.7291 17.3467H30.7297C32.1329 17.5467 33.4425 17.8897 34.6155 18.3492C34.9474 18.479 34.9287 18.9573 34.5887 19.0651Z" fill="#FD9A9A"/>
<path d="M16.6382 26.0353C16.6938 26.1024 16.7711 26.1581 16.8479 26.1976C17.0176 26.2854 17.2129 26.2973 17.3894 26.2227C17.4362 26.2033 17.4693 26.1607 17.4549 26.1067C17.4431 26.0629 17.3869 26.0215 17.3395 26.0409C17.2958 26.0591 17.2509 26.0729 17.2041 26.081C17.1929 26.0829 17.1916 26.0829 17.2016 26.0817C17.1954 26.0823 17.1898 26.0829 17.1835 26.0835C17.1748 26.0842 17.1661 26.0848 17.1567 26.0848C17.1367 26.0854 17.1168 26.0848 17.0968 26.0829C17.0912 26.0823 17.0856 26.0817 17.0806 26.081C17.0918 26.0823 17.0924 26.0823 17.0812 26.081C17.0737 26.0792 17.0656 26.0779 17.0575 26.0766C17.04 26.0729 17.0226 26.0679 17.0051 26.0622C16.997 26.0597 16.9889 26.0566 16.9808 26.0535C16.9577 26.0453 16.9895 26.0585 16.9727 26.0503C16.9577 26.0434 16.9433 26.0365 16.929 26.029C16.9034 26.0152 16.8784 25.9989 16.8547 25.982C16.8504 25.9789 16.846 25.9751 16.841 25.972C16.8647 25.9895 16.8441 25.9745 16.8391 25.9701C16.831 25.9632 16.8223 25.9563 16.8148 25.9488C16.7992 25.9343 16.783 25.9193 16.7693 25.9024C16.7368 25.8635 16.6701 25.8685 16.637 25.9024C16.5995 25.9406 16.6058 25.9958 16.6382 26.0353Z" fill="#46494D"/>
<path d="M28.7394 18.9842C28.0026 19.8688 27.5515 21.0612 27.7948 22.1891C28.0132 23.2028 28.7556 24.056 28.901 25.0835C29.0601 26.2107 28.4736 27.3003 28.3314 28.43C28.1785 29.6469 28.5429 30.8324 29.0607 31.9646C28.6608 31.9884 28.2553 32.0003 27.8447 32.0003C27.5796 32.0003 27.3163 31.9953 27.0548 31.9853H27.0542C26.5856 30.586 26.4415 29.0764 26.648 27.6144C26.7972 26.5593 27.1241 25.496 26.9338 24.4478C26.7441 23.4078 26.0678 22.5207 25.7814 21.5032C25.3503 19.9729 25.9199 18.2075 27.1634 17.2226C27.194 17.1988 27.2245 17.175 27.2557 17.1518C27.451 17.1461 27.6476 17.1436 27.8447 17.1436C28.838 17.1436 29.8038 17.2138 30.7291 17.3461C29.9916 17.8025 29.2928 18.3203 28.7394 18.9842Z" fill="#FFDAC0"/>
<path d="M22.2458 21.5868C22.1691 22.6526 22.6214 23.6839 22.7156 24.749C22.836 26.1151 22.365 27.4548 22.136 28.807C22.0068 29.5694 21.9551 30.3449 21.9806 31.1172C21.4497 30.9455 20.9412 30.7517 20.4601 30.5373C21.1608 26.752 20.749 22.7585 19.2778 19.2033C20.6511 18.4153 22.3257 17.8153 24.1874 17.4717C23.9191 17.9156 23.6502 18.3595 23.3813 18.8027C22.8572 19.6678 22.3188 20.5762 22.2458 21.5868Z" fill="#FFDAC0"/>
<path d="M18.3721 24.2555C18.3721 24.7902 17.9319 25.2234 17.3868 25.2234C16.8416 25.2234 16.4014 24.7902 16.4014 24.2555C16.4014 23.7207 16.8416 23.2875 17.3868 23.2875C17.9319 23.2875 18.3721 23.7207 18.3721 24.2555Z" fill="#5B5B5B"/>
<path d="M18.2197 24.3461C18.2197 24.847 17.8134 25.2532 17.3123 25.2532C16.8112 25.2532 16.4048 24.847 16.4048 24.3461C16.4048 23.8452 16.8112 23.439 17.3123 23.439C17.8134 23.439 18.2197 23.8452 18.2197 24.3461Z" fill="white"/>
<path d="M17.4546 24.6332C17.4546 24.8397 17.2887 25.0055 17.0821 25.0055C16.8756 25.0055 16.7097 24.8397 16.7097 24.6332C16.7097 24.4268 16.8756 24.2609 17.0821 24.2609C17.2853 24.2609 17.4546 24.4268 17.4546 24.6332Z" fill="#46494D"/>
<path d="M17.5425 24.3583C17.5425 24.4835 17.4409 24.5884 17.3122 24.5884C17.187 24.5884 17.082 24.4869 17.082 24.3583C17.082 24.233 17.1836 24.1281 17.3122 24.1281C17.4409 24.1281 17.5425 24.233 17.5425 24.3583Z" fill="white"/>
<path d="M20.6409 26.5825C20.4394 26.4026 20.2616 26.1995 20.1256 25.9625C19.2758 24.4861 21.1912 24.231 22.1583 24.0141C22.3966 23.9608 22.6306 23.8874 22.8727 23.8573C23.6338 23.762 24.3345 24.3281 24.3657 25.1099C24.3875 25.6691 24.3189 26.3268 24.0344 26.9819C23.7181 27.7097 22.8309 27.9856 22.1552 27.5743C21.6629 27.274 21.092 26.9857 20.6409 26.5825Z" fill="#D97070"/>
<path opacity="0.25" d="M21.1577 25.8032C21.3206 25.8445 21.474 25.9035 21.625 25.9668C21.776 26.0307 21.9233 26.1016 22.068 26.1774C22.2128 26.2533 22.3538 26.3354 22.4923 26.4238C22.6302 26.5134 22.7655 26.6069 22.8916 26.7178C22.7287 26.6764 22.5753 26.6175 22.4236 26.5548C22.2727 26.4909 22.1254 26.42 21.9807 26.3436C21.8365 26.2671 21.6949 26.1856 21.5564 26.0966C21.4191 26.0075 21.2837 25.9141 21.1577 25.8032Z" fill="#FFDAC0"/>
<path opacity="0.25" d="M21.3896 25.1115C21.5812 25.0977 21.7709 25.1027 21.9587 25.114C22.1471 25.124 22.3343 25.1435 22.5208 25.1686C22.7074 25.1936 22.8933 25.2244 23.078 25.2638C23.2626 25.3027 23.4467 25.3479 23.6283 25.4118C23.4367 25.4256 23.247 25.4206 23.0593 25.4093C22.8708 25.3993 22.6837 25.3798 22.4971 25.3548C22.3105 25.329 22.1246 25.299 21.9399 25.2588C21.7546 25.22 21.5706 25.1748 21.3896 25.1115Z" fill="#FFDAC0"/>
<path d="M19.7557 24.3219C19.6933 24.4611 19.6378 24.5833 19.5922 24.7037C19.5467 24.8234 19.5142 24.9382 19.4968 25.0523C19.4924 25.0805 19.4849 25.1093 19.4861 25.1381C19.4849 25.167 19.4805 25.1958 19.4805 25.2247C19.4818 25.2535 19.4837 25.283 19.483 25.3131C19.4818 25.3281 19.4843 25.3431 19.4868 25.3582L19.4924 25.404C19.4943 25.4673 19.5136 25.5281 19.523 25.5964C19.5354 25.6635 19.5573 25.73 19.5673 25.8089C19.5342 25.7901 19.5036 25.7682 19.4737 25.745C19.4443 25.7212 19.4113 25.6986 19.3882 25.6691C19.3402 25.6108 19.2884 25.55 19.2584 25.4767C19.2428 25.4403 19.2216 25.4052 19.2135 25.3657C19.2029 25.3268 19.1948 25.2874 19.186 25.2472C19.1779 25.167 19.1736 25.0836 19.1892 25.0034C19.2141 24.8422 19.2852 24.693 19.3845 24.5752C19.4837 24.4586 19.6072 24.3639 19.7557 24.3219Z" fill="#D97070"/>
<path d="M31.1797 24.1762C31.3151 24.0658 31.4586 23.9737 31.6046 23.8853C31.7506 23.7981 31.9003 23.7173 32.0525 23.642C32.2048 23.5668 32.3601 23.4979 32.518 23.4352C32.6771 23.3737 32.8374 23.316 33.0071 23.2766C32.8724 23.3869 32.7282 23.4797 32.5829 23.5674C32.4369 23.6546 32.2871 23.7355 32.1349 23.8101C31.9827 23.8847 31.8273 23.9542 31.6695 24.0163C31.5097 24.079 31.3494 24.1361 31.1797 24.1762Z" fill="#E9A385"/>
<path d="M31.2876 25.9838C31.4511 25.9462 31.6145 25.9286 31.778 25.9155C31.9415 25.9035 32.1043 25.8985 32.2678 25.9004C32.4312 25.9023 32.5941 25.9104 32.7569 25.9261C32.9198 25.943 33.0832 25.9644 33.2454 26.0051C33.082 26.0427 32.9185 26.0603 32.7551 26.0734C32.5916 26.0854 32.4287 26.0904 32.2653 26.0879C32.1018 26.086 31.939 26.0778 31.7761 26.0622C31.6133 26.0459 31.4504 26.0245 31.2876 25.9838Z" fill="#E9A385"/>
<path d="M31.3345 25.0699C31.5148 25.0029 31.6976 24.9533 31.881 24.9107C32.0645 24.8668 32.2498 24.8323 32.4357 24.8035C32.6216 24.7747 32.8088 24.7515 32.9966 24.7371C33.1844 24.722 33.3741 24.7132 33.5656 24.7226C33.3853 24.7903 33.2025 24.8392 33.019 24.8819C32.8356 24.9258 32.6503 24.9602 32.4644 24.9891C32.2785 25.0179 32.0913 25.0411 31.9035 25.0549C31.7157 25.0706 31.5266 25.0794 31.3345 25.0699Z" fill="#E9A385"/>
<path d="M33.131 28.6266C32.9613 28.5871 32.801 28.5294 32.6419 28.468C32.4834 28.4053 32.3287 28.3363 32.1764 28.2617C32.0242 28.1871 31.8745 28.1062 31.7285 28.0191C31.5825 27.9307 31.439 27.8379 31.3042 27.7282C31.4739 27.7677 31.6349 27.8248 31.7933 27.8868C31.9518 27.9495 32.1066 28.0185 32.2588 28.0937C32.411 28.1689 32.5608 28.2492 32.7068 28.3369C32.8521 28.4241 32.9956 28.5169 33.131 28.6266Z" fill="#E9A385"/>
<path d="M33.6691 27.2635C33.4769 27.2729 33.2879 27.2641 33.1001 27.2491C32.9117 27.2347 32.7251 27.2115 32.5392 27.1833C32.3533 27.1544 32.168 27.1199 31.9845 27.076C31.8005 27.0334 31.6177 26.9845 31.438 26.9168C31.6302 26.9068 31.8192 26.9156 32.007 26.9312C32.1954 26.9456 32.382 26.9688 32.5679 26.9977C32.7538 27.0271 32.9391 27.0616 33.1226 27.1049C33.306 27.1469 33.4888 27.1958 33.6691 27.2635Z" fill="#E9A385"/>
<path opacity="0.19" d="M30.3836 31.8433C29.9537 31.8965 29.5157 31.936 29.0708 31.9617C28.6709 31.9856 28.2654 31.9975 27.8548 31.9975C27.5897 31.9975 27.3264 31.9925 27.065 31.9824H27.0643C25.2375 31.9141 23.518 31.6075 21.9907 31.1154C21.4597 30.9436 20.9512 30.7499 20.4702 30.5355C17.7655 29.3312 15.9081 27.4818 15.5312 25.3672C16.2681 26.9984 17.9084 28.4071 20.1108 29.3876C20.5918 29.602 21.1003 29.7957 21.6313 29.9675C23.1586 30.4596 24.8781 30.7662 26.705 30.8345H26.7056C26.967 30.8446 27.2303 30.8496 27.4955 30.8496C27.906 30.8496 28.3115 30.8377 28.7115 30.8139C29.1563 30.7881 29.5943 30.7487 30.0242 30.6954C30.2232 30.6709 30.3761 30.5487 30.4559 30.3901C30.514 30.5223 30.6313 30.7393 30.7835 30.9712C31.0118 31.3217 30.7972 31.7918 30.3836 31.8433Z" fill="#46494D"/>
<path opacity="0.19" d="M30.645 28.0093C30.3804 28.4989 30.2531 29.0582 30.2862 29.6017C30.1758 29.4155 30.0978 29.2575 30.0685 29.1735C29.807 28.4287 29.9012 27.5724 30.2856 26.8614C30.6836 26.1254 30.892 25.3305 30.8065 24.55C31.4117 25.6709 31.242 26.9066 30.645 28.0093Z" fill="#46494D"/>
<path opacity="0.19" d="M34.5983 19.0611C33.9089 19.2792 33.2756 19.5162 33.0585 19.5952C31.7932 20.0541 29.5926 21.029 29.2738 22.2339C29.0873 22.0452 28.9425 21.8371 28.8945 21.5794C28.6299 20.1506 31.2654 18.967 32.6991 18.4473C32.8701 18.3852 33.2999 18.2248 33.8122 18.053C34.0898 18.1439 34.3612 18.2417 34.6251 18.3451C34.9571 18.4749 34.9384 18.9532 34.5983 19.0611Z" fill="#46494D"/>
<path d="M31.3375 2.83837C31.2729 2.75901 31.199 2.68334 31.1104 2.63166C31.0366 2.58921 30.9535 2.56337 30.8722 2.53938C30.3257 2.3825 29.7552 2.28837 29.1865 2.32159C28.6178 2.35481 28.0509 2.52092 27.5875 2.85129C27.4268 2.96572 27.2736 3.10968 27.2256 3.29978C27.2016 3.39575 27.2053 3.49911 27.2219 3.59693C27.281 3.9679 27.4988 4.31119 27.809 4.52343L32.0281 4.69692C31.9007 4.04172 31.7622 3.35515 31.3375 2.83837Z" fill="#F49A56"/>
<path d="M32.0023 4.56615C31.9451 4.27638 31.8823 3.98477 31.7918 3.70424C31.7752 3.73746 31.7568 3.76883 31.7291 3.79467C31.646 3.87403 31.4853 3.87588 31.4355 3.77252C31.4299 3.82974 31.3505 3.85558 31.2989 3.82974C31.2472 3.80205 31.2213 3.74299 31.2065 3.68762C31.1179 3.75591 30.9923 3.77068 30.8889 3.72454C30.7874 3.6784 30.7135 3.5732 30.708 3.46246C30.6452 3.6138 30.4569 3.70054 30.3018 3.64518C30.1947 3.60826 30.1172 3.50675 30.0931 3.39601C30.0599 3.53813 29.9436 3.66363 29.7977 3.68024C29.6519 3.69685 29.5097 3.58981 29.4654 3.45507C29.4506 3.56212 29.3934 3.66179 29.2973 3.70977C29.157 3.77806 28.9558 3.68578 28.9447 3.53075C28.9133 3.68762 28.7804 3.83343 28.6216 3.83528C28.4905 3.83712 28.3723 3.71346 28.3741 3.59165C28.3243 3.75591 28.2006 3.89987 28.0344 3.94601C27.8424 3.99954 27.6097 3.89618 27.5506 3.70608C27.4934 3.52336 27.5931 3.33326 27.691 3.17085L27.3826 3.03058C27.3106 3.10994 27.2534 3.19853 27.2275 3.30189C27.2035 3.39786 27.2072 3.50122 27.2238 3.59903C27.2829 3.97001 27.5008 4.3133 27.811 4.52554L31.7992 4.6898C31.8694 4.65474 31.9377 4.61413 32.0023 4.56615Z" fill="#D17B39"/>
<path d="M31.3375 2.83837C31.2729 2.75901 31.199 2.68334 31.1104 2.63166C31.0366 2.58921 30.9535 2.56337 30.8722 2.53938C30.3257 2.3825 29.7552 2.28837 29.1865 2.32159C28.6178 2.35481 28.0509 2.52092 27.5875 2.85129C27.4268 2.96572 27.2736 3.10968 27.2256 3.29978C27.2016 3.39575 27.2053 3.49911 27.2219 3.59693C27.244 3.73719 27.2884 3.87377 27.353 3.99927C27.3604 3.80364 27.4342 3.60985 27.5598 3.4585C27.7093 3.27948 27.9291 3.1632 28.1599 3.14105C28.4442 3.11337 28.7507 3.22042 29.011 3.10045C29.1015 3.058 29.1791 2.99156 29.2677 2.94173C29.4542 2.83837 29.6758 2.8236 29.8881 2.83652C30.3035 2.86052 30.7134 2.98233 31.0753 3.19089C31.2784 3.30716 31.4889 3.45297 31.7123 3.48619C31.6182 3.25364 31.4982 3.03401 31.3375 2.83837Z" fill="#46494D"/>
<path d="M26.5081 4.03183C26.2515 3.90448 25.9505 3.90079 25.7012 4.0226C25.5424 4.10012 25.4077 4.22562 25.2839 4.35851C25.0088 4.65381 24.7743 5.00817 24.6488 5.41421C24.6174 5.51756 24.5915 5.62646 24.5989 5.73719C24.6192 6.07125 24.9073 6.3075 25.1658 6.48837L27.0731 4.70548C26.9753 4.41018 26.7648 4.15918 26.5081 4.03183Z" fill="#F49A56"/>
<path d="M27.0706 4.70588C27.0336 4.59145 26.9782 4.4844 26.9099 4.38843C26.9062 4.45672 26.9081 4.52685 26.8896 4.59329C26.8619 4.6948 26.7437 4.78893 26.6533 4.73172C26.6293 4.81661 26.5 4.8443 26.4428 4.77786C26.4299 4.89229 26.3357 4.99195 26.2212 5.01041C26.1067 5.02886 25.9849 4.96242 25.9387 4.85722C25.9406 4.96057 25.9406 5.075 25.8741 5.15621C25.8076 5.23742 25.6507 5.24296 25.6174 5.14329C25.647 5.21896 25.6396 5.31863 25.575 5.36846C25.5104 5.41829 25.3903 5.37953 25.3885 5.29833C25.3903 5.38138 25.3922 5.46628 25.3589 5.54195C25.3257 5.61762 25.25 5.68222 25.1688 5.67299C25.13 5.6693 25.0949 5.64161 25.0746 5.60839C25.0746 5.63608 25.0746 5.66192 25.0764 5.6896C25.0783 5.78188 25.0635 5.89631 24.9767 5.92769C24.89 5.95906 24.8032 5.87416 24.7662 5.78926C24.7164 5.67299 24.709 5.5401 24.7459 5.42014L24.6481 5.40537C24.6462 5.40906 24.6462 5.41091 24.6444 5.4146C24.613 5.51796 24.5871 5.62685 24.5945 5.73759C24.6148 6.07165 24.9029 6.30789 25.1614 6.48876L27.0706 4.70588Z" fill="#D17B39"/>
<path d="M24.6739 5.99743C24.7275 5.77042 24.8493 5.48434 24.9435 5.31085C25.0174 5.17612 25.1245 5.04139 25.2759 5.01001C25.3737 4.99156 25.4771 5.0174 25.5694 4.98602C25.7024 4.94173 25.767 4.79777 25.8612 4.69441C25.983 4.56152 26.1621 4.48955 26.3412 4.4674C26.5203 4.44525 26.7031 4.4674 26.8804 4.49508C26.9118 4.50062 26.9469 4.50246 26.9782 4.49693C26.9524 4.45079 26.9247 4.40834 26.8933 4.36589C26.8859 4.35666 26.8804 4.34743 26.873 4.3382C26.8102 4.257 26.7382 4.18686 26.6588 4.1278C26.6496 4.12042 26.6404 4.11304 26.6293 4.1075C26.5887 4.07981 26.548 4.05398 26.5037 4.03183C26.2471 3.90448 25.9461 3.90079 25.6968 4.0226C25.538 4.10012 25.4033 4.22562 25.2795 4.35851C25.0044 4.65381 24.7699 5.00817 24.6444 5.41421C24.613 5.51756 24.5871 5.62646 24.5945 5.73719C24.6038 5.83317 24.6315 5.91807 24.6739 5.99743Z" fill="#46494D"/>
<path d="M24.8405 6.6591C24.5451 6.5539 24.2441 6.469 23.9376 6.4044C23.5 6.31397 23.0347 6.26782 22.6138 6.42286C22.1946 6.57789 21.8383 6.97839 21.8641 7.42504C21.8826 7.74987 22.0894 8.03225 22.3054 8.27588C22.5214 8.5195 22.7615 8.75759 22.8723 9.06396C22.9369 9.24114 22.9535 9.4294 23.0033 9.61027C23.055 9.80406 23.1437 9.99047 23.2618 10.1529C23.3523 10.2784 23.465 10.3928 23.609 10.4482C23.6681 10.4703 23.7308 10.4833 23.7955 10.4888C24.0429 10.5072 24.2884 10.4187 24.4934 10.2802C24.6983 10.1418 24.8682 9.95725 25.0289 9.76899C25.3815 9.35188 25.6954 8.90524 25.9668 8.43091L24.8405 6.6591Z" fill="#F49A56"/>
<path d="M24.8404 6.65872C24.545 6.55352 24.2441 6.46862 23.9375 6.40402C23.7271 6.35973 23.511 6.32835 23.2968 6.32281C23.4501 6.38188 23.6126 6.42433 23.7455 6.51845C23.8194 6.57198 23.8877 6.67164 23.8397 6.751C23.8212 6.78053 23.7898 6.80083 23.7584 6.81745C23.5203 6.94849 23.2599 7.03892 22.9922 7.08691C23.2027 7.06845 23.4132 7.04999 23.6255 7.03154C23.7123 7.02416 23.8028 7.01677 23.884 7.04815C23.9652 7.07953 24.0336 7.16258 24.0188 7.24748C24.0022 7.34345 23.8988 7.39328 23.8083 7.42835C23.6846 7.47634 23.5609 7.52432 23.439 7.57231C23.6089 7.55754 23.7788 7.54278 23.9468 7.52801C23.9929 7.52432 24.0409 7.52063 24.0834 7.53724C24.1259 7.55385 24.161 7.59815 24.1517 7.64429C24.1462 7.67197 24.1259 7.69412 24.1037 7.71258C23.9449 7.851 23.7031 7.88422 23.5812 8.05402C23.7344 7.98019 23.8988 7.9359 24.0686 7.92113C24.1296 7.9156 24.196 7.91744 24.2422 7.9562C24.2921 7.99865 24.3013 8.07248 24.2847 8.13338C24.2662 8.19613 24.2274 8.24781 24.1868 8.29949C24.0631 8.46006 23.9394 8.62063 23.8138 8.77935C23.9523 8.65754 24.1 8.54865 24.257 8.45268C24.3179 8.41576 24.3936 8.37885 24.4601 8.40469C24.5432 8.43791 24.5616 8.55234 24.5321 8.6354C24.5007 8.71845 24.4361 8.78489 24.3918 8.86241C24.4712 8.77751 24.5746 8.71291 24.6853 8.67969C24.7444 8.66123 24.8201 8.65754 24.8571 8.70738C24.8995 8.76644 24.8534 8.84764 24.8091 8.90486C24.6244 9.1411 24.4398 9.37549 24.2551 9.61174C24.473 9.46593 24.6909 9.32013 24.9088 9.17432C25.0158 9.10234 25.1377 9.02667 25.2651 9.04697C25.1839 9.20201 25.0934 9.3515 24.9955 9.49546C24.7574 9.84429 24.4545 10.1728 24.0576 10.3186C24.1739 10.3445 24.2902 10.3481 24.4047 10.3371C24.4361 10.3205 24.4656 10.302 24.4933 10.2817C24.6983 10.1433 24.8681 9.95871 25.0288 9.77046C25.3814 9.35335 25.6953 8.9067 25.9667 8.43238L24.8404 6.65872Z" fill="#D17B39"/>
<path d="M24.9789 9.82372C24.7721 9.96953 24.5302 10.071 24.2773 10.0729C24.0132 10.0729 23.74 9.94554 23.6089 9.71483C23.3854 9.31987 23.631 8.78094 23.4058 8.38598C23.2599 8.13312 22.9608 8.01316 22.7632 7.79722C22.5398 7.55175 22.4696 7.17524 22.5915 6.86517C22.6949 6.5994 22.9349 6.39638 23.21 6.3244C23.0051 6.32625 22.8038 6.35393 22.6118 6.42407C22.1927 6.5791 21.8363 6.9796 21.8622 7.42625C21.8806 7.75108 22.0874 8.03346 22.3035 8.27708C22.5195 8.52071 22.7595 8.75879 22.8703 9.06517C22.9349 9.24235 22.9515 9.4306 23.0014 9.61148C23.0531 9.80527 23.1417 9.99168 23.2599 10.1541C23.3504 10.2796 23.463 10.394 23.607 10.4494C23.6661 10.4715 23.7289 10.4845 23.7935 10.49C24.0409 10.5085 24.2865 10.4199 24.4914 10.2814C24.6779 10.1559 24.833 9.99352 24.9789 9.82372Z" fill="#46494D"/>
<path d="M33.8415 7.71066C33.8174 7.71251 34.0926 8.22375 33.8415 7.71066C34.1166 7.32492 34.231 6.92442 34.1073 6.54791C33.6236 5.06771 32.248 3.76654 30.1025 3.76654C27.7779 3.76654 24.4414 5.93147 24.4414 7.49103C24.4414 9.05059 27.3827 9.71871 29.5283 9.71871C30.7321 9.71871 32.1741 9.16687 33.125 8.4323C33.125 8.4323 33.7288 7.92106 33.8415 7.71066Z" fill="#F49A56"/>
<path d="M33.3372 7.55041C33.1745 7.64009 32.9617 7.68466 32.7805 7.63638C32.6982 7.61463 32.6242 7.5717 32.5623 7.51376C32.5136 7.46779 32.5865 7.39398 32.635 7.43965C32.7266 7.52571 32.845 7.55699 32.9672 7.55042C33.0183 7.54773 33.0687 7.53823 33.1211 7.52394C33.1435 7.51781 33.1657 7.51059 33.188 7.5029C33.1972 7.49956 33.2065 7.49621 33.2156 7.49257C33.2198 7.49092 33.224 7.48927 33.2283 7.48762C33.2175 7.49183 33.2269 7.48801 33.2317 7.48602C33.2498 7.47795 33.2681 7.47019 33.2857 7.46045C33.344 7.42793 33.396 7.51803 33.3372 7.55041Z" fill="#46494D"/>
<path d="M32.6531 7.28469C32.6789 7.38241 32.6611 7.50087 32.6053 7.58441C32.575 7.62959 32.5359 7.66579 32.4899 7.694C32.4666 7.70829 32.4315 7.69931 32.4191 7.67484C32.406 7.64918 32.4133 7.61888 32.4381 7.60374C32.4414 7.60183 32.4635 7.58467 32.4651 7.58535C32.4649 7.58505 32.4572 7.59188 32.4618 7.58803C32.4637 7.58652 32.466 7.58483 32.4677 7.58302C32.472 7.57935 32.4763 7.57567 32.4804 7.5717C32.4868 7.56557 32.4931 7.55913 32.4992 7.55239C32.5018 7.54929 32.5044 7.54618 32.507 7.54307C32.5067 7.54324 32.5114 7.53815 32.5112 7.53785C32.5117 7.53875 32.5048 7.54678 32.5103 7.53914C32.5202 7.52503 32.5289 7.51036 32.5364 7.49484C32.5377 7.49165 32.5388 7.48786 32.5408 7.48509C32.5353 7.49226 32.5375 7.49337 32.539 7.48893C32.5395 7.48704 32.5405 7.48527 32.541 7.48337C32.5436 7.47621 32.5462 7.46876 32.5482 7.46117C32.5522 7.44725 32.5525 7.43106 32.5575 7.4177C32.5574 7.41817 32.556 7.43101 32.5566 7.42304C32.5568 7.42132 32.557 7.41959 32.5572 7.41787C32.5575 7.4149 32.5578 7.41193 32.5581 7.40895C32.5588 7.40254 32.5591 7.39599 32.5593 7.38944C32.5597 7.3776 32.5595 7.3661 32.5588 7.35448C32.5585 7.34983 32.5581 7.34488 32.5578 7.34023C32.5577 7.33791 32.5572 7.33575 32.5571 7.33343C32.5566 7.32693 32.5592 7.34901 32.5579 7.33898C32.5564 7.32943 32.5552 7.3197 32.5526 7.31036C32.5455 7.28403 32.5626 7.25255 32.5899 7.24673C32.6176 7.24153 32.6458 7.25651 32.6531 7.28469Z" fill="#46494D"/>
<path d="M31.5981 5.87099C31.5981 6.1626 31.8382 6.39884 32.1354 6.39884C32.4327 6.39884 32.6728 6.1626 32.6728 5.87099C32.6728 5.57938 32.4327 5.34314 32.1354 5.34314C31.8382 5.34314 31.5981 5.57938 31.5981 5.87099Z" fill="#5B5B5B"/>
<path d="M31.6812 5.92059C31.6812 6.19375 31.9027 6.41522 32.176 6.41522C32.4493 6.41522 32.6708 6.19375 32.6708 5.92059C32.6708 5.64744 32.4493 5.42596 32.176 5.42596C31.9027 5.42596 31.6812 5.64744 31.6812 5.92059Z" fill="white"/>
<path d="M32.0986 6.07741C32.0986 6.18999 32.1891 6.28043 32.3017 6.28043C32.4144 6.28043 32.5048 6.18999 32.5048 6.07741C32.5048 5.96483 32.4144 5.87439 32.3017 5.87439C32.191 5.87439 32.0986 5.96483 32.0986 6.07741Z" fill="#46494D"/>
<path d="M32.0503 5.92799C32.0503 5.99628 32.1057 6.0535 32.1758 6.0535C32.2442 6.0535 32.3014 5.99813 32.3014 5.92799C32.3014 5.8597 32.246 5.80249 32.1758 5.80249C32.1057 5.80249 32.0503 5.8597 32.0503 5.92799Z" fill="white"/>
<path d="M31.3893 4.67427C31.5296 4.45833 31.6755 4.23686 31.8767 4.11135C31.3616 3.89357 30.7689 3.76807 30.1023 3.76807C30.0469 3.76807 29.9897 3.76991 29.9325 3.7736C29.1053 4.51555 28.6603 5.36639 28.6104 6.30212C28.5126 8.17729 29.4062 9.09457 29.9399 9.64272C29.9583 9.66118 29.9731 9.67779 29.9897 9.6944C30.5676 9.63349 31.1751 9.46369 31.7438 9.22376C31.0348 8.30648 30.1467 6.5882 31.3893 4.67427Z" fill="#46494D"/>
<path d="M31.5948 9.286C31.1166 8.66771 29.8499 6.76301 31.2587 4.5907C31.3861 4.39322 31.5191 4.1902 31.7019 4.04624C31.2477 3.87829 30.738 3.77862 30.173 3.77124C30.1527 3.7897 30.1306 3.80631 30.1084 3.82476C29.8425 4.05547 28.8399 4.91184 28.7661 6.31083C28.6627 8.27828 29.6838 9.14204 30.1823 9.66989C30.6513 9.6016 31.1332 9.46871 31.5948 9.286Z" fill="white"/>
<path d="M26.4705 5.00103C26.1825 5.56948 26.0052 6.18408 25.9572 6.80421C25.8908 7.67166 26.0828 8.55203 26.4927 9.29397C27.2128 9.51545 28.0363 9.64649 28.8155 9.69632L28.5791 9.39364C27.9144 8.53911 26.9931 6.73039 28.2043 4.14465C27.6005 4.36059 27.0042 4.65774 26.4705 5.00103Z" fill="#46494D"/>
<path d="M26.7383 4.83769C26.3893 5.44306 26.1659 6.12041 26.1124 6.81621C26.0441 7.69658 26.2509 8.60279 26.7088 9.35581C27.3088 9.52191 27.968 9.62712 28.605 9.68064C28.5552 9.61604 28.5053 9.55145 28.4555 9.48869C28.0991 9.03098 26.7088 7.12628 27.9976 4.22125C27.5637 4.39105 27.1371 4.60145 26.7383 4.83769Z" fill="white"/>
<path opacity="0.35" d="M26.9028 8.21922C26.3839 8.14355 25.8614 8.05127 25.3795 7.8464C25.0416 7.70245 24.7222 7.49389 24.4747 7.22443C24.4544 7.31486 24.4434 7.40345 24.4434 7.49204C24.4434 9.0516 27.3847 9.71972 29.5302 9.71972C30.7341 9.71972 32.1761 9.16788 33.127 8.43332C32.514 8.59573 31.6492 8.53852 30.9833 8.53852C29.6915 8.53852 28.2857 8.4204 26.9028 8.21922Z" fill="#999999"/>
<path d="M30.851 10.1746C30.7494 9.51202 30.6017 8.85498 30.4152 8.21085C30.3986 8.15364 30.3764 8.04105 30.3192 8.0632C29.673 8.33266 29.095 7.9377 29.0877 7.94323C29.0784 7.95062 28.6556 8.6778 28.4377 9.03216C28.3085 9.24441 28.1755 9.4585 28.1109 9.69843C28.0463 9.93836 28.0555 10.2097 28.194 10.4164C28.2882 10.5567 28.4359 10.6563 28.5873 10.732C29.1541 11.0125 29.8244 11.0125 30.4411 10.8686C30.5648 10.839 30.694 10.8021 30.7753 10.7061C30.8971 10.564 30.8787 10.3573 30.851 10.1746Z" fill="#F49A56"/>
<path d="M30.8507 10.1752C30.7861 9.75811 30.703 9.34468 30.6051 8.93311C30.5553 8.82975 30.5183 8.7227 30.5128 8.60828C30.5091 8.98848 30.5054 9.36868 30.4408 9.74334C30.426 9.83378 30.3928 9.94082 30.3042 9.96851C30.2506 9.98512 30.1915 9.96482 30.1454 9.93159C30.0013 9.82455 29.9773 9.62153 29.9681 9.4425C29.9589 9.29301 29.9515 9.14166 29.9423 8.99217C29.9275 9.20995 29.9109 9.42958 29.8887 9.64552C29.8776 9.75995 29.861 9.87992 29.7909 9.97035C29.7761 9.98881 29.7576 10.0073 29.7355 10.0146C29.7041 10.0239 29.6708 10.0128 29.6431 9.99619C29.5711 9.9519 29.5305 9.87069 29.5157 9.78764C29.501 9.70458 29.5102 9.61968 29.5194 9.53663C29.5397 9.3576 29.5582 9.17858 29.5785 8.99955C29.5527 9.25978 29.477 9.51079 29.3902 9.75811C29.3717 9.81163 29.3514 9.86515 29.3126 9.90576C29.2739 9.94636 29.2092 9.96851 29.1594 9.94267C29.1132 9.91868 29.0911 9.86331 29.08 9.81347C29.0338 9.61599 29.0597 9.40928 29.1003 9.2118C29.152 8.9571 29.2259 8.70794 29.3219 8.46616C29.2369 8.71901 29.0966 8.95525 28.9157 9.15089C28.8898 9.17858 28.8584 9.20811 28.8196 9.20811C28.7458 9.20811 28.7218 9.11029 28.7255 9.03646C28.7366 8.82606 28.8012 8.61935 28.9083 8.43848L28.7753 8.47354C28.6572 8.67103 28.5316 8.88328 28.4411 9.03093C28.3119 9.24317 28.1789 9.45727 28.1143 9.6972C28.0497 9.93713 28.0589 10.2084 28.1974 10.4152C28.2916 10.5554 28.4393 10.6551 28.5907 10.7308C29.1575 11.0113 29.8278 11.0113 30.4445 10.8673C30.5682 10.8378 30.6974 10.8009 30.7787 10.7049C30.8969 10.5646 30.8784 10.3579 30.8507 10.1752Z" fill="#D17B39"/>
<path d="M30.4405 10.8667C30.5642 10.8371 30.6934 10.8002 30.7747 10.7042C30.8965 10.5658 30.8781 10.3573 30.8504 10.1745C30.7488 9.51197 30.6011 8.85492 30.4146 8.21079C30.3999 8.15912 30.3795 8.06499 30.3371 8.0613C30.4035 8.40274 30.47 8.74418 30.5346 9.08562C30.5956 9.40123 30.6565 9.7279 30.579 10.0398C30.5476 10.1672 30.4903 10.2927 30.3888 10.3776C30.2688 10.4791 30.1044 10.5086 29.9493 10.516C29.6281 10.5271 29.3049 10.4495 29.0206 10.2964C28.8969 10.2299 28.7787 10.1469 28.6975 10.0324C28.5387 9.80727 28.5516 9.50089 28.6181 9.23327C28.6735 9.0118 28.7584 8.79771 28.8433 8.58546C28.9283 8.37321 29.0132 8.16096 29.0981 7.94871C29.0908 7.94502 29.0871 7.94318 29.0852 7.94318C29.076 7.95056 28.6532 8.67774 28.4353 9.0321C28.306 9.24435 28.1731 9.45844 28.1085 9.69837C28.0438 9.93831 28.0531 10.2096 28.1916 10.4163C28.2857 10.5566 28.4334 10.6563 28.5848 10.7319C29.1535 11.0106 29.8238 11.0106 30.4405 10.8667Z" fill="#46494D"/>
<path d="M20.3059 2.14928C20.3059 2.64564 19.9056 3.04618 19.4139 3.04618C18.9223 3.04618 18.522 2.64564 18.522 2.14928C18.522 1.65292 18.9223 1.25238 19.4139 1.25238C19.9056 1.25238 20.3059 1.65292 20.3059 2.14928Z" fill="#CEEEFF" stroke="#CEEEFF" stroke-width="0.5"/>
<path d="M20.4061 2.314C20.4061 2.59372 20.1805 2.81937 19.9035 2.81937C19.6266 2.81937 19.401 2.59372 19.401 2.314C19.401 2.03428 19.6266 1.80863 19.9035 1.80863C20.1805 1.80863 20.4061 2.03428 20.4061 2.314Z" stroke="white" stroke-width="0.3"/>
<path d="M2.03444 11.3268C2.03444 11.8231 1.63408 12.2237 1.14247 12.2237C0.650853 12.2237 0.250488 11.8231 0.250488 11.3268C0.250488 10.8304 0.650853 10.4299 1.14247 10.4299C1.63408 10.4299 2.03444 10.8304 2.03444 11.3268Z" fill="#CEEEFF" stroke="#CEEEFF" stroke-width="0.5"/>
<path d="M2.13461 11.4901C2.13461 11.7699 1.909 11.9955 1.63205 11.9955C1.3551 11.9955 1.12949 11.7699 1.12949 11.4901C1.12949 11.2104 1.3551 10.9848 1.63205 10.9848C1.909 10.9848 2.13461 11.2104 2.13461 11.4901Z" stroke="white" stroke-width="0.3"/>
<path d="M35.5024 14.4697C35.2164 14.3449 35.0842 14.0102 35.2091 13.7213C35.3341 13.4324 35.6679 13.3011 35.9539 13.4258C36.2399 13.5506 36.3721 13.8853 36.2471 14.1742C36.1222 14.4631 35.7884 14.5945 35.5024 14.4697Z" fill="#CEEEFF" stroke="#CEEEFF" stroke-width="0.5"/>
<path d="M35.3558 14.5151C35.196 14.4454 35.1221 14.2584 35.192 14.0969C35.2618 13.9354 35.4483 13.862 35.6081 13.9318C35.7679 14.0015 35.8419 14.1885 35.772 14.35C35.7022 14.5115 35.5156 14.5848 35.3558 14.5151Z" stroke="white" stroke-width="0.3"/>
</svg>
