<svg width="135" height="40" viewBox="0 0 135 40" fill="none" xmlns="http://www.w3.org/2000/svg">
<g clip-path="url(#clip0_11638_137152)">
<path d="M130 40H5C2.25 40 0 37.75 0 35V5C0 2.25 2.25 0 5 0H130C132.75 0 135 2.25 135 5V35C135 37.75 132.75 40 130 40Z" fill="#070C11"/>
<path d="M130 0.8C132.32 0.8 134.2 2.68 134.2 5V35C134.2 37.32 132.32 39.2 130 39.2H5C2.68 39.2 0.8 37.32 0.8 35V5C0.8 2.68 2.68 0.8 5 0.8H130ZM130 0H5C2.25 0 0 2.25 0 5V35C0 37.75 2.25 40 5 40H130C132.75 40 135 37.75 135 35V5C135 2.25 132.75 0 130 0Z" fill="#A6A6A6"/>
<path d="M47.4201 10.2411C47.4201 11.0811 47.1701 11.7511 46.6701 12.2411C46.1101 12.8311 45.3701 13.1311 44.4701 13.1311C43.6001 13.1311 42.8701 12.8311 42.2601 12.2311C41.6501 11.6311 41.3501 10.8811 41.3501 10.0011C41.3501 9.11109 41.6501 8.37109 42.2601 7.77109C42.8701 7.17109 43.6001 6.87109 44.4701 6.87109C44.9001 6.87109 45.3101 6.95109 45.7001 7.12109C46.0901 7.29109 46.4001 7.51109 46.6401 7.79109L46.1101 8.32109C45.7101 7.85109 45.1701 7.61109 44.4701 7.61109C43.8401 7.61109 43.2901 7.83109 42.8301 8.28109C42.3701 8.72109 42.1401 9.30109 42.1401 10.0111C42.1401 10.7211 42.3701 11.3011 42.8301 11.7411C43.2901 12.1811 43.8401 12.4111 44.4701 12.4111C45.1401 12.4111 45.7001 12.1911 46.1501 11.7411C46.4401 11.4511 46.6101 11.0411 46.6501 10.5211H44.4701V9.79109H47.3801C47.4001 9.95109 47.4201 10.1011 47.4201 10.2411Z" fill="white" stroke="white" stroke-width="0.2" stroke-miterlimit="10"/>
<path d="M52.0303 7.74H49.3003V9.64H51.7603V10.36H49.3003V12.26H52.0303V13H48.5303V7H52.0303V7.74Z" fill="white" stroke="white" stroke-width="0.2" stroke-miterlimit="10"/>
<path d="M55.2801 13H54.5101V7.74H52.8301V7H56.9501V7.74H55.2701V13H55.2801Z" fill="white" stroke="white" stroke-width="0.2" stroke-miterlimit="10"/>
<path d="M59.9399 13V7H60.7099V13H59.9399Z" fill="white" stroke="white" stroke-width="0.2" stroke-miterlimit="10"/>
<path d="M64.1302 13H63.3602V7.74H61.6802V7H65.8002V7.74H64.1202V13H64.1302Z" fill="white" stroke="white" stroke-width="0.2" stroke-miterlimit="10"/>
<path d="M73.6101 12.2211C73.0201 12.8311 72.2901 13.1311 71.4101 13.1311C70.5301 13.1311 69.8001 12.8311 69.2101 12.2211C68.6201 11.6111 68.3301 10.8711 68.3301 10.0011C68.3301 9.13109 68.6201 8.38109 69.2101 7.78109C69.8001 7.17109 70.5301 6.87109 71.4101 6.87109C72.2801 6.87109 73.0101 7.17109 73.6101 7.78109C74.2001 8.39109 74.5001 9.13109 74.5001 10.0011C74.4901 10.8811 74.2001 11.6211 73.6101 12.2211ZM69.7801 11.7211C70.2201 12.1711 70.7701 12.3911 71.4101 12.3911C72.0501 12.3911 72.6001 12.1711 73.0401 11.7211C73.4801 11.2711 73.7101 10.7011 73.7101 10.0011C73.7101 9.30109 73.4901 8.73109 73.0401 8.28109C72.6001 7.83109 72.0501 7.60109 71.4101 7.60109C70.7701 7.60109 70.2201 7.82109 69.7801 8.27109C69.3401 8.73109 69.1101 9.30109 69.1101 10.0011C69.1101 10.7011 69.3401 11.2711 69.7801 11.7211Z" fill="white" stroke="white" stroke-width="0.2" stroke-miterlimit="10"/>
<path d="M75.5801 13V7H76.5201L79.4401 11.67H79.4701L79.4401 10.51V7H80.2101V13H79.4101L76.3601 8.11H76.3301L76.3601 9.27V13H75.5801Z" fill="white" stroke="white" stroke-width="0.2" stroke-miterlimit="10"/>
<path d="M68.14 21.7508C65.79 21.7508 63.87 23.5408 63.87 26.0008C63.87 28.4508 65.79 30.2508 68.14 30.2508C70.49 30.2508 72.41 28.4508 72.41 26.0008C72.41 23.5408 70.49 21.7508 68.14 21.7508ZM68.14 28.5808C66.85 28.5808 65.74 27.5208 65.74 26.0008C65.74 24.4708 66.85 23.4208 68.14 23.4208C69.43 23.4208 70.54 24.4708 70.54 26.0008C70.54 27.5208 69.42 28.5808 68.14 28.5808ZM58.82 21.7508C56.47 21.7508 54.55 23.5408 54.55 26.0008C54.55 28.4508 56.47 30.2508 58.82 30.2508C61.17 30.2508 63.09 28.4508 63.09 26.0008C63.09 23.5408 61.17 21.7508 58.82 21.7508ZM58.82 28.5808C57.53 28.5808 56.42 27.5208 56.42 26.0008C56.42 24.4708 57.53 23.4208 58.82 23.4208C60.11 23.4208 61.22 24.4708 61.22 26.0008C61.22 27.5208 60.11 28.5808 58.82 28.5808ZM47.74 23.0608V24.8608H52.06C51.93 25.8708 51.59 26.6208 51.08 27.1308C50.45 27.7608 49.47 28.4508 47.75 28.4508C45.09 28.4508 43.01 26.3108 43.01 23.6508C43.01 20.9908 45.09 18.8508 47.75 18.8508C49.18 18.8508 50.23 19.4108 51 20.1408L52.27 18.8708C51.19 17.8408 49.76 17.0508 47.74 17.0508C44.1 17.0508 41.04 20.0108 41.04 23.6608C41.04 27.3008 44.1 30.2708 47.74 30.2708C49.71 30.2708 51.19 29.6308 52.35 28.4208C53.54 27.2308 53.91 25.5508 53.91 24.2008C53.91 23.7808 53.88 23.3908 53.81 23.0708H47.74V23.0608ZM93.05 24.4608C92.7 23.5108 91.62 21.7508 89.41 21.7508C87.22 21.7508 85.4 23.4708 85.4 26.0008C85.4 28.3808 87.2 30.2508 89.62 30.2508C91.57 30.2508 92.7 29.0608 93.16 28.3708L91.71 27.4008C91.23 28.1108 90.57 28.5808 89.62 28.5808C88.67 28.5808 87.99 28.1408 87.56 27.2908L93.25 24.9408L93.05 24.4608ZM87.25 25.8808C87.2 24.2408 88.52 23.4008 89.47 23.4008C90.21 23.4008 90.84 23.7708 91.05 24.3008L87.25 25.8808ZM82.63 30.0008H84.5V17.5008H82.63V30.0008ZM79.57 22.7008H79.5C79.08 22.2008 78.28 21.7508 77.26 21.7508C75.13 21.7508 73.18 23.6208 73.18 26.0208C73.18 28.4008 75.13 30.2608 77.26 30.2608C78.27 30.2608 79.08 29.8108 79.5 29.2908H79.56V29.9008C79.56 31.5308 78.69 32.4008 77.29 32.4008C76.15 32.4008 75.44 31.5808 75.15 30.8908L73.52 31.5708C73.99 32.7008 75.23 34.0808 77.29 34.0808C79.48 34.0808 81.33 32.7908 81.33 29.6508V22.0108H79.56V22.7008H79.57ZM77.42 28.5808C76.13 28.5808 75.05 27.5008 75.05 26.0208C75.05 24.5208 76.13 23.4308 77.42 23.4308C78.69 23.4308 79.69 24.5308 79.69 26.0208C79.7 27.5008 78.7 28.5808 77.42 28.5808ZM101.81 17.5008H97.34V30.0008H99.21V25.2608H101.82C103.89 25.2608 105.92 23.7608 105.92 21.3808C105.92 19.0008 103.87 17.5008 101.81 17.5008ZM101.85 23.5208H99.2V19.2308H101.85C103.25 19.2308 104.04 20.3908 104.04 21.3708C104.04 22.3508 103.25 23.5208 101.85 23.5208ZM113.39 21.7308C112.04 21.7308 110.64 22.3308 110.06 23.6408L111.72 24.3308C112.07 23.6408 112.73 23.4108 113.42 23.4108C114.39 23.4108 115.37 23.9908 115.38 25.0208V25.1508C115.04 24.9608 114.32 24.6708 113.43 24.6708C111.64 24.6708 109.83 25.6508 109.83 27.4808C109.83 29.1508 111.29 30.2308 112.93 30.2308C114.18 30.2308 114.88 29.6708 115.31 29.0108H115.37V29.9808H117.17V25.1908C117.18 22.9708 115.52 21.7308 113.39 21.7308ZM113.16 28.5808C112.55 28.5808 111.7 28.2708 111.7 27.5208C111.7 26.5608 112.76 26.1908 113.68 26.1908C114.5 26.1908 114.89 26.3708 115.38 26.6108C115.24 27.7608 114.24 28.5808 113.16 28.5808ZM123.74 22.0008L121.6 27.4208H121.54L119.32 22.0008H117.31L120.64 29.5808L118.74 33.7908H120.69L125.82 22.0008H123.74ZM106.94 30.0008H108.81V17.5008H106.94V30.0008Z" fill="white"/>
<path d="M10.4395 7.53875C10.1495 7.84875 9.97949 8.32875 9.97949 8.93875V31.0588C9.97949 31.6788 10.1495 32.1588 10.4395 32.4587L10.5095 32.5287L22.8995 20.1488V19.9988V19.8488L10.5095 7.46875L10.4395 7.53875Z" fill="url(#paint0_linear_11638_137152)"/>
<path d="M27.0294 24.2788L22.8994 20.1487V19.9987V19.8488L27.0294 15.7188L27.1194 15.7688L32.0094 18.5487C33.4094 19.3387 33.4094 20.6388 32.0094 21.4388L27.1194 24.2187L27.0294 24.2788Z" fill="url(#paint1_linear_11638_137152)"/>
<path d="M27.1195 24.23L22.8995 20L10.4395 32.46C10.8995 32.95 11.6595 33.01 12.5195 32.52L27.1195 24.23Z" fill="url(#paint2_linear_11638_137152)"/>
<path d="M27.1197 15.7795L12.5097 7.4795C11.6497 6.9895 10.8897 7.0495 10.4297 7.5395L22.8997 19.9995L27.1197 15.7795Z" fill="url(#paint3_linear_11638_137152)"/>
<path opacity="0.2" d="M27.0295 24.1289L12.5095 32.3789C11.6995 32.8389 10.9695 32.8089 10.5095 32.3889L10.4395 32.4589L10.5095 32.5289C10.9795 32.9489 11.6995 32.9789 12.5095 32.5189L27.1195 24.2189L27.0295 24.1289Z" fill="#070C11"/>
<path opacity="0.12" d="M10.4395 32.318C10.1495 32.008 9.97949 31.528 9.97949 30.918V31.068C9.97949 31.688 10.1495 32.168 10.4395 32.468L10.5095 32.398L10.4395 32.318Z" fill="#070C11"/>
<path opacity="0.12" d="M32.0095 21.3L27.0195 24.13L27.1095 24.22L31.9995 21.44C32.6995 21.04 33.0495 20.52 33.0495 20C32.9995 20.47 32.6495 20.94 32.0095 21.3Z" fill="#070C11"/>
<path opacity="0.25" d="M12.5097 7.61847L32.0097 18.6985C32.6397 19.0585 32.9997 19.5185 33.0597 19.9985C33.0597 19.4785 32.7097 18.9485 32.0097 18.5585L12.5097 7.47847C11.1097 6.68847 9.96973 7.34847 9.96973 8.94847V9.09847C9.96973 7.48847 11.1197 6.82847 12.5097 7.61847Z" fill="white"/>
</g>
<defs>
<linearGradient id="paint0_linear_11638_137152" x1="21.7991" y1="8.70855" x2="5.01669" y2="25.491" gradientUnits="userSpaceOnUse">
<stop stop-color="#00A0FF"/>
<stop offset="0.00657445" stop-color="#00A1FF"/>
<stop offset="0.2601" stop-color="#00BEFF"/>
<stop offset="0.5122" stop-color="#00D2FF"/>
<stop offset="0.7604" stop-color="#00DFFF"/>
<stop offset="1" stop-color="#00E3FF"/>
</linearGradient>
<linearGradient id="paint1_linear_11638_137152" x1="33.8337" y1="20.0003" x2="9.63682" y2="20.0003" gradientUnits="userSpaceOnUse">
<stop stop-color="#FFE000"/>
<stop offset="0.4087" stop-color="#FFBD00"/>
<stop offset="0.7754" stop-color="#FFA500"/>
<stop offset="1" stop-color="#FF9C00"/>
</linearGradient>
<linearGradient id="paint2_linear_11638_137152" x1="24.8264" y1="22.2962" x2="2.06805" y2="45.0545" gradientUnits="userSpaceOnUse">
<stop stop-color="#FF3A44"/>
<stop offset="1" stop-color="#C31162"/>
</linearGradient>
<linearGradient id="paint3_linear_11638_137152" x1="7.29689" y1="0.175799" x2="17.4595" y2="10.3383" gradientUnits="userSpaceOnUse">
<stop stop-color="#32A071"/>
<stop offset="0.0685" stop-color="#2DA771"/>
<stop offset="0.4762" stop-color="#15CF74"/>
<stop offset="0.8009" stop-color="#06E775"/>
<stop offset="1" stop-color="#00F076"/>
</linearGradient>
<clipPath id="clip0_11638_137152">
<rect width="135" height="40" fill="white"/>
</clipPath>
</defs>
</svg>
