<svg width="24" height="24" viewBox="0 0 24 24" fill="none" xmlns="http://www.w3.org/2000/svg">
<g clip-path="url(#clip0_11638_132425)">
<path d="M12.0905 11.7564C11.1523 10.1315 9.30923 10.6424 7.0127 9.9641C3.64373 8.96804 1.97393 10.4193 2.30608 11.9729C2.63681 13.5274 4.85789 13.7959 5.61214 15.2665C5.61446 15.2705 5.61755 15.2759 5.61987 15.2799C5.62219 15.2839 5.62528 15.2893 5.6276 15.2933C6.44453 16.7312 5.45763 18.7448 6.57613 19.8712C7.69464 20.9976 9.81553 20.3835 10.8208 17.0065C11.5052 14.7053 12.9369 13.4326 12.0905 11.7564Z" fill="#A0ACBD"/>
<path d="M7.79857 9.18408C8.85955 9.65333 10.3981 8.70668 11.2351 7.06966C12.0721 5.43264 11.8905 3.72517 10.8295 3.25591C9.76854 2.78666 8.22995 3.73332 7.39297 5.37033C6.556 7.00735 6.73759 8.71482 7.79857 9.18408Z" fill="#A0ACBD"/>
<path d="M14.8652 19.1958C16.6887 19.3839 18.3181 18.6053 18.5047 17.4566C18.6912 16.3079 17.3642 15.2242 15.5407 15.036C13.7172 14.8478 12.0878 15.6265 11.9013 16.7752C11.7147 17.9239 13.0417 19.0076 14.8652 19.1958Z" fill="#A0ACBD"/>
<path d="M12.3202 9.31724C13.0777 10.2492 14.9506 10.0182 16.5035 8.80117C18.0564 7.58418 18.7011 5.84211 17.9436 4.91014C17.1861 3.97817 15.3132 4.20922 13.7603 5.42621C12.2074 6.64319 11.5627 8.38527 12.3202 9.31724Z" fill="#A0ACBD"/>
<path d="M18.2885 13.804C20.1514 13.1608 21.3655 11.7107 21.0002 10.5652C20.6349 9.41965 18.8286 9.01244 16.9656 9.65566C15.1027 10.2989 13.8887 11.749 14.254 12.8945C14.6193 14.04 16.4256 14.4472 18.2885 13.804Z" fill="#A0ACBD"/>
</g>
<defs>
<clipPath id="clip0_11638_132425">
<rect width="17.4" height="17.4" fill="white" transform="translate(15.1277) rotate(60)"/>
</clipPath>
</defs>
</svg>
