<svg width="181" height="60" viewBox="0 0 181 60" fill="none" xmlns="http://www.w3.org/2000/svg">
<circle cx="30" cy="30" r="30" fill="url(#paint0_linear_11638_137665)"/>
<mask id="mask0_11638_137665" style="mask-type:alpha" maskUnits="userSpaceOnUse" x="0" y="0" width="60" height="60">
<circle cx="30" cy="30" r="30" fill="url(#paint1_linear_11638_137665)"/>
</mask>
<g mask="url(#mask0_11638_137665)">
<g filter="url(#filter0_d_11638_137665)">
<path d="M28.2273 42.0035C27.8048 41.6233 27.3433 41.2276 26.8257 40.9708C26.2241 41.4166 24.6723 42.6171 25.6328 44.2079C25.7787 44.4512 26.0849 44.5421 26.3389 44.4178C27.1916 43.9954 27.9032 43.2861 28.7334 42.4777C28.5674 42.3177 28.3978 42.1593 28.2273 42.0035Z" fill="#CD9979"/>
<path d="M27.2923 31.1149L29.3179 29.0135C30.7212 27.6934 32.1915 26.2295 31.2582 24.7863C31.1124 24.5582 30.8045 24.5031 30.5718 24.642C30.038 24.9657 29.5191 25.4534 28.8787 25.8291C28.2665 26.1855 21.8602 32.7636 20.1963 34.8106L22.9918 36.5295L27.2923 31.1149Z" fill="#F6C69C"/>
<path d="M27.212 38.0453L27.1199 38.5744C26.9389 38.7734 24.5841 39.7217 25.7168 41.5966C25.8628 41.8399 26.1689 41.9308 26.4229 41.8065C27.5976 41.2229 28.5007 40.4808 29.8198 39.3097C30.156 37.6914 29.6436 34.4871 29.0103 33.853C26.1946 33.7317 23.638 33.8164 21.5185 34.2507L22.5362 38.306L27.212 38.0453Z" fill="#F6C69C"/>
<path d="M15.8035 51.7468L14.1267 57.1141C12.1563 55.911 9.15324 53.4094 7.41455 51.2523L9.86288 47.5046C13.6517 42.1062 17.3516 37.3689 20.8531 34.1404L24.1301 34.2985L24.2829 42.7639C22.1102 46.9265 19.4881 50.2876 15.8035 51.7468Z" fill="#F6C69C"/>
<path d="M27.1287 40.2793L27.0366 40.8084C26.8556 41.0073 25.7062 39.4619 26.8388 41.3368C26.9848 41.5802 27.0366 43.2207 27.0366 43.2207C28.2113 42.6371 28.4174 42.7147 29.7365 41.5437C30.0727 39.9254 29.5603 36.721 28.927 36.0869C26.1113 35.9656 23.5547 36.0503 21.4352 36.4847L22.4529 40.5399L27.1287 40.2793Z" fill="#F6C69C"/>
<path d="M26.8785 41.8105L26.9288 42.241C26.8353 42.4381 25.3267 44.0175 26.6287 45.1933C26.7977 45.3454 27.0554 45.3441 27.2201 45.1874C27.9889 44.4612 28.7693 43.3929 29.5746 42.2828C29.4631 40.9584 28.1942 38.9474 27.5605 38.6111L22.2975 39.0618L23.3379 43.12L26.8785 41.8105Z" fill="#F6C69C"/>
<path d="M30.5529 24.6291C30.8292 24.5014 31.0063 24.8118 30.6773 25.2956C30.317 25.8219 29.5993 26.3524 29.2903 26.23C28.8775 26.0664 28.8436 25.8584 28.8436 25.8584C28.8436 25.8584 29.9788 24.8942 30.5529 24.6291Z" fill="#FFE2D0"/>
<path d="M29.4823 41.7702C29.4617 41.7772 29.4039 41.6783 29.3133 41.4934C29.2227 41.3085 29.0966 41.0365 28.9354 40.7081C28.7705 40.3813 28.5679 39.9969 28.2949 39.609C28.1597 39.4155 28.0033 39.2228 27.8232 39.045C27.7814 38.998 27.7314 38.9569 27.6849 38.9142C27.6385 38.8715 27.5885 38.8304 27.5374 38.7919L27.5077 38.768C27.5051 38.7669 27.5051 38.7669 27.5051 38.7669L27.4989 38.7675L27.4477 38.7685C27.3815 38.7696 27.3126 38.7697 27.2444 38.7761C26.6935 38.8011 26.1655 38.8443 25.6856 38.8792C25.2057 38.914 24.7718 38.9458 24.4072 38.9686C23.6779 39.0141 23.2257 39.0235 23.2207 38.982C23.2167 38.9378 23.6604 38.8491 24.3845 38.7468C24.7453 38.6951 25.1785 38.6417 25.6592 38.589C26.139 38.5388 26.6674 38.4867 27.2308 38.4606C27.3006 38.4578 27.3704 38.4551 27.4429 38.4534C27.4915 38.4514 27.5417 38.453 27.5903 38.451C27.61 38.4466 27.6199 38.4597 27.6335 38.4711L27.6725 38.5018L27.7226 38.5429C27.7804 38.5871 27.8346 38.6329 27.8852 38.6804C27.9358 38.7278 27.9901 38.7736 28.0361 38.8253C28.2293 39.0234 28.391 39.2335 28.5289 39.4432C28.8048 39.8627 28.9921 40.2714 29.1348 40.6168C29.274 40.9639 29.3702 41.2514 29.4257 41.4497C29.4813 41.6481 29.503 41.7632 29.4823 41.7702Z" fill="#CD9979"/>
<path d="M29.8182 39.3107C29.796 39.314 29.7608 39.1875 29.7122 38.9554C29.6625 38.7259 29.6032 38.3892 29.5183 37.9785C29.4772 37.7737 29.4256 37.5495 29.362 37.3175C29.2958 37.0845 29.217 36.8374 29.0996 36.6054C29.0391 36.4902 28.9703 36.3808 28.8847 36.2922C28.7974 36.1998 28.7038 36.1475 28.5762 36.1061C28.4485 36.0646 28.3065 36.0448 28.16 36.0293C28.0134 36.0138 27.8601 36.0078 27.7059 36.0045C27.0859 35.9991 26.4845 36.0466 25.9389 36.0889C25.3933 36.1312 24.9006 36.1762 24.4863 36.2036C23.6558 36.2637 23.1414 36.2637 23.1374 36.2195C23.1334 36.1753 23.6419 36.0971 24.4637 35.9818C24.8741 35.9254 25.3661 35.8589 25.9126 35.7987C26.4606 35.7422 27.0645 35.6804 27.7109 35.6872C27.8713 35.69 28.0323 35.699 28.1939 35.7144C28.3545 35.7324 28.5121 35.7583 28.6719 35.8095C28.7508 35.8377 28.8287 35.8686 28.9057 35.9174C28.9801 35.9651 29.0479 36.0223 29.1022 36.0834C29.2161 36.2076 29.2934 36.3416 29.3592 36.4741C29.4863 36.7434 29.559 37.0064 29.6165 37.2542C29.6715 37.501 29.7113 37.7326 29.739 37.9413C29.796 38.3622 29.8233 38.7045 29.8347 38.9401C29.8424 39.1773 29.8395 39.3099 29.8182 39.3107Z" fill="#CD9979"/>
<path d="M19.5663 35.8577C19.5346 35.8391 19.6833 35.5057 19.9774 34.9959C20.0498 34.8695 20.136 34.7303 20.2305 34.5853C20.279 34.5133 20.3285 34.4387 20.3853 34.3608L20.4052 34.3322C20.4119 34.3227 20.4175 34.3158 20.4334 34.2978C20.4631 34.267 20.4904 34.2504 20.5151 34.2328C20.5661 34.2013 20.6156 34.1814 20.6641 34.1641C20.859 34.0924 21.0595 34.0532 21.2687 34.0145C21.477 33.9784 21.692 33.948 21.9122 33.9197C22.7951 33.8165 23.5943 33.7835 24.1718 33.7751C24.7518 33.7678 25.1091 33.7877 25.1115 33.8282C25.1139 33.8687 24.7578 33.9161 24.1823 33.9739C23.6085 34.0354 22.8121 34.1 21.9426 34.1994C21.726 34.2261 21.512 34.2538 21.311 34.2867C21.1099 34.3195 20.9141 34.3544 20.7464 34.4096C20.7051 34.4237 20.6665 34.4388 20.6366 34.4543C20.6222 34.4607 20.6093 34.4708 20.6083 34.4735C20.6093 34.4708 20.5991 34.482 20.5924 34.4915L20.5709 34.5164C20.5156 34.5827 20.4645 34.6537 20.4117 34.721C20.3115 34.8576 20.2195 34.9884 20.1352 35.107C19.8092 35.583 19.5996 35.8801 19.5663 35.8577Z" fill="#CD9979"/>
<path d="M26.8767 41.8044L26.9255 42.2312C27.0592 42.3116 27.2503 42.3904 27.467 42.4336C27.709 42.4809 27.9372 42.4709 28.0968 42.4369C28.2564 42.4028 28.3465 42.3473 28.3414 42.3058C28.3282 42.2154 27.9581 42.2056 27.5274 42.12C27.3542 42.0879 27.193 42.0483 27.0623 42.0148C27.1064 41.9776 27.1516 41.9377 27.1978 41.8952C27.3831 41.7162 27.5144 41.5219 27.5855 41.3676C27.6566 41.2134 27.6716 41.1038 27.6347 41.0831C27.5495 41.0402 26.8767 41.8044 26.8767 41.8044Z" fill="#CD9979"/>
<path d="M14.1265 57.1134L15.8026 51.7467C19.4883 50.2849 22.1104 46.9238 24.2831 42.7612L13.7802 50.9058L14.1265 57.1134Z" fill="#CD9979"/>
</g>
<path d="M32.459 22.8322C32.4229 22.924 32.3859 23.0147 32.3593 23.1082C32.3349 23.1943 32.3097 23.2793 32.2845 23.3642C32.2632 23.4386 32.302 23.5278 32.3709 23.554C32.3993 23.5646 32.4288 23.5687 32.4602 23.5676C32.5104 23.5644 32.55 23.5345 32.5869 23.5013C32.6475 23.449 32.7094 23.3957 32.7666 23.3389C32.7939 23.3114 32.8233 23.2842 32.8506 23.2567C32.8999 23.208 32.9479 23.1603 32.962 23.0898C32.9727 23.0331 32.964 22.9827 32.9292 22.9404C32.897 22.9014 32.8425 22.8729 32.7866 22.8843C32.721 22.8962 32.6727 22.9201 32.6226 22.9676C32.6085 22.9808 32.5965 22.9941 32.5833 23.0083C32.5547 23.0368 32.5258 23.0673 32.4973 23.0957C32.4398 23.1547 32.3853 23.215 32.3318 23.2764C32.4319 23.322 32.5328 23.3688 32.6329 23.4144C32.6445 23.3275 32.6573 23.2396 32.6709 23.1528C32.6848 23.0584 32.6923 22.9636 32.6955 22.8685C32.697 22.8156 32.6529 22.7639 32.5999 22.7582C32.5786 22.7568 32.5569 22.7575 32.5363 22.7648C32.5088 22.7738 32.4701 22.8048 32.459 22.8322Z" fill="#3A3A3A"/>
<g filter="url(#filter1_d_11638_137665)">
<path d="M40.0886 11.4289C39.7822 11.8424 39.4398 12.2313 39.0281 12.5362C38.2149 13.1383 38.3699 12.8895 37.2167 13.9257C36.0636 14.962 33.9768 18.7229 33.6224 19.2969C33.4475 19.5103 33.0711 20.1049 32.9734 20.291C32.9734 20.291 32.1494 21.722 32.3889 22.5982C32.5274 23.1061 33.193 23.5578 33.8128 23.3744C34.5218 23.1653 35.0826 22.7574 35.5456 22.2723C35.889 23.1232 36.8351 23.6509 37.5587 23.7029C38.2823 23.755 38.9118 23.3363 39.2706 22.9823C39.5809 23.3244 40.4846 23.4606 41.1945 23.145C41.9044 22.8294 42.0683 22.1686 42.2149 22.0393C42.3615 21.9099 43.2505 21.4937 43.4642 21.349C44.5117 20.6396 44.8968 18.9758 45.1531 18.0382C45.9992 16.9906 46.9216 16.007 47.9109 15.0985C50.2195 12.941 53.5882 10.6204 53.5882 10.6204C52.1911 8.84749 48.4699 5.32505 44.7087 3.43702C44.4986 3.70099 43.2849 5.76223 42.0172 8.06031C41.281 9.39505 40.8217 10.3789 40.0886 11.4289Z" fill="white"/>
</g>
<path d="M43.4665 12.7993C42.9166 12.5171 40.9878 12.162 39.2881 12.3213C41.2533 10.2675 43.0238 5.66422 44.5111 3.73437C50.1059 6.76193 53.1334 10.9403 53.1334 10.9403L50.4245 13.1003L48.1291 15.0823C45.208 15.1172 45.4671 13.8262 43.4665 12.7993Z" fill="#F79452"/>
<path d="M51.9137 10.4935L52.6109 11.3566L53.5911 10.6244C53.5911 10.6244 53.1043 10.0379 52.7542 9.67515L51.9137 10.4935Z" fill="#DC7B3A"/>
<path d="M43.8632 20.1492C43.6441 20.5266 43.2233 21.0974 42.1324 21.6645C41.7936 22.1213 41.6962 22.3461 41.1705 22.6653C40.6448 22.9846 39.2702 22.9795 39.2702 22.9795C39.6774 23.4044 40.6315 23.4564 41.3414 23.1408C42.0513 22.8252 42.2152 22.1644 42.3618 22.0351C42.5083 21.9057 43.3974 21.4895 43.6111 21.3448C44.6474 20.6866 45.1234 18.8062 45.2998 18.0348L44.8135 17.3871C44.8135 17.3871 44.0822 19.7717 43.8632 20.1492Z" fill="#D1D1D1"/>
<path d="M45.6124 16.6227L46.1511 17.1023L47.6624 15.5067L47.3247 14.987L45.6124 16.6227Z" fill="#D1D1D1"/>
<path d="M49.8227 12.5532L50.4246 13.102L52.6116 11.3551L51.9145 10.492L49.8227 12.5532Z" fill="#D78B58"/>
<path d="M44.813 17.3876L45.2998 18.0352L46.1515 17.1039C46.1515 17.1039 45.8104 16.7613 45.6127 16.6244L44.813 17.3876Z" fill="#D1D1D1"/>
<path d="M47.272 15.0404L47.6625 15.5086L50.4245 13.1007C50.4245 13.1007 50.019 12.6899 49.8225 12.5518L47.272 15.0404Z" fill="#DC7B3A"/>
<path d="M49.8225 12.5499L51.914 10.4888C51.6016 10.0229 50.6944 9.3926 50.1495 9.10687C49.6045 8.82114 48.9694 8.49919 48.2587 8.4439C47.7958 8.40787 47.2424 8.58791 47.1188 9.04293C47.027 9.38086 47.3097 10.1574 47.5039 10.4472C48.0118 11.2052 48.9494 11.9723 49.8225 12.5499Z" fill="#FFBC8F"/>
<path d="M45.3666 12.5163C45.6603 12.6114 45.9684 12.6931 46.2738 12.6504C46.5791 12.6076 46.8823 12.4124 46.9698 12.1119C47.0714 11.7618 46.8637 11.4026 46.6543 11.1062C45.5863 9.5924 44.055 8.16381 42.5096 7.16305C41.9061 8.20515 41.5324 8.95659 41.1117 9.73819C42.318 11.2619 43.5321 11.9225 45.3666 12.5163Z" fill="#FFBC8F"/>
</g>
<path d="M77.6241 29.4409C78.0327 29.5118 78.7297 29.63 79.4988 29.63C80.8448 29.63 82.3109 29.299 83.3444 28.5424C84.4019 27.7622 85.0749 26.5327 85.0749 25.114C85.0749 23.8373 84.474 22.7733 83.3204 22.0876C82.5032 21.6147 81.4216 21.331 79.4027 21.331L72.5047 21.3547H72.3605C72.1682 21.3547 72.024 21.3783 72.024 21.5438C72.024 21.7566 72.3125 21.7566 72.4567 21.7566H72.8893C73.5863 21.7566 73.8026 21.8985 73.8987 22.064C73.9468 22.1586 74.0189 22.3713 74.0189 23.2225V36.0376C74.0189 36.6287 73.9708 36.936 73.8507 37.0779C73.6344 37.338 72.697 37.338 72.3605 37.338C72.2884 37.338 72 37.338 72 37.5508C72 37.5981 72.024 37.6453 72.0481 37.669C72.0961 37.7399 72.1923 37.7399 72.2884 37.7399C72.4086 37.7399 72.5047 37.7163 72.6009 37.7163H72.6249L78.1529 37.6926C78.3692 37.6926 78.5615 37.7163 78.7778 37.7163C78.9941 37.7399 79.2104 37.7399 79.4508 37.7399C79.7873 37.7399 79.7873 37.5744 79.7873 37.5271C79.7873 37.4562 79.7152 37.3143 79.3787 37.3143H78.922C78.7297 37.3143 78.0087 37.2907 77.7924 37.0306C77.6482 36.8414 77.6241 36.5577 77.6241 36.2031V29.4409ZM77.6241 22.9152C77.6241 22.6314 77.6482 22.2768 77.9847 21.993C78.1048 21.8985 78.225 21.8512 78.3692 21.8039C78.5134 21.7566 78.6817 21.7566 78.8499 21.7566C79.4508 21.7566 79.9315 21.8512 80.3401 22.2058C81.1332 22.8915 81.2053 24.1919 81.2053 25.2559C81.2053 26.3672 81.1332 27.7385 80.0997 28.5661C79.5469 28.9917 78.922 29.1099 77.9366 29.1099H77.6241V22.9152Z" fill="#0086BF"/>
<path d="M91.5804 31.0723C93.4792 31.0487 93.9839 31.025 94.8492 30.9777C94.8251 29.7246 94.2243 28.8261 93.7436 28.3296C93.1667 27.7385 92.1813 27.1947 90.6431 27.1947C89.7298 27.1947 88.8164 27.3839 88.0233 27.7858C86.3649 28.637 85.2353 30.4339 85.2353 32.6092C85.2353 33.6259 85.4996 34.6426 86.0284 35.5174C86.8696 36.9124 88.504 38 90.619 38C91.4362 38 92.1813 37.8345 92.8543 37.4562C93.4551 37.1252 93.9839 36.6523 94.4406 35.9903C94.6809 35.6356 94.9453 35.1154 94.9453 34.7608C94.9453 34.7135 94.9453 34.6898 94.9213 34.6662C94.8972 34.6426 94.8251 34.6426 94.7771 34.6662C94.6328 34.7371 94.4406 35.2809 94.2483 35.612C94.1041 35.8484 93.9358 36.0376 93.7436 36.2267C92.9744 36.9833 92.2053 37.1488 91.7006 37.1488C91.4843 37.1488 90.6671 37.1015 89.9941 36.4631C89.7298 36.2267 89.5375 35.9193 89.3692 35.612C88.8885 34.7135 88.8164 33.6495 88.8164 32.3727C88.8164 31.9235 88.8405 31.4979 88.8885 31.096C89.7057 31.096 89.922 31.096 91.5804 31.0723ZM88.9366 30.694C88.9366 30.2684 88.9847 29.8665 89.0568 29.4645C89.1289 29.1099 89.225 28.7789 89.3692 28.4478C89.5615 28.0459 89.922 27.4548 90.6911 27.4548C91.292 27.4548 91.5083 27.8095 91.6525 28.235C91.8448 28.8261 91.941 29.8901 91.8929 30.694H88.9366Z" fill="#0086BF"/>
<path d="M100.512 27.8331H102.771C103.131 27.8331 103.348 27.8095 103.348 27.4784C103.348 27.4312 103.348 27.3366 103.228 27.3366C103.203 27.3366 103.155 27.3602 103.131 27.3602C103.035 27.3839 102.963 27.4075 102.867 27.4075C102.579 27.4312 102.266 27.4548 101.833 27.4548C101.545 27.4548 100.704 27.4312 100.536 27.242C100.464 27.1711 100.464 27.0529 100.439 26.9346C100.391 26.6036 100.391 26.3435 100.391 26.0834V25.5633C100.391 25.3505 100.391 25.1377 100.367 24.8776C100.367 24.8067 100.343 24.7121 100.247 24.7121C100.151 24.7121 100.007 24.9013 99.9588 24.9722C99.7184 25.3032 99.3099 25.8943 98.6609 26.4145C97.9399 27.0056 97.0266 27.4075 96.1613 27.4548C95.9931 27.4548 95.7527 27.4784 95.7527 27.6439C95.7527 27.8095 95.945 27.8331 96.0411 27.8331H96.5459C96.9064 27.8331 97.1227 27.8331 97.2188 27.9277C97.315 28.0223 97.339 28.306 97.339 28.4006V35.6592C97.339 36.1085 97.363 36.5814 97.6755 37.0542C98.06 37.5981 98.8051 37.9764 100.175 37.9764C101.737 37.9764 102.771 37.4562 103.42 36.8651C103.732 36.5577 103.876 36.3922 103.876 36.2031C103.876 36.1321 103.876 36.0612 103.78 36.0612C103.684 36.0612 103.564 36.1794 103.324 36.3922C103.035 36.6523 102.579 37.1015 102.002 37.1015C101.425 37.1015 100.824 36.6759 100.68 35.7302C100.536 34.7844 100.512 29.7483 100.512 28.306V27.8331Z" fill="#0086BF"/>
<path d="M111 29.9138C111 28.9444 110.88 29.4645 110.88 28.0459C110.88 27.4548 110.928 27.7149 110.928 27.1238C110.928 27.0529 110.928 27.0056 110.904 26.9346C110.88 26.8164 110.808 26.7928 110.76 26.7928C110.688 26.7928 110.664 26.8873 110.64 26.9346C110.592 27.0529 110.472 27.3129 110.303 27.4312C110.183 27.5257 110.015 27.5494 109.871 27.5494C109.703 27.5494 109.486 27.4784 108.982 27.3602C108.645 27.2656 108.237 27.1711 107.78 27.1711C106.939 27.1711 106.001 27.4784 105.328 28.1878C104.727 28.8025 104.415 29.6537 104.415 30.5285C104.415 31.6161 104.848 32.3964 105.593 32.9875C106.17 33.4367 106.915 33.7677 107.828 34.0751C108.044 34.146 108.261 34.217 108.477 34.2879C108.885 34.4298 109.318 34.5716 109.631 34.8554C109.871 35.0681 110.087 35.3992 110.087 35.8957C110.087 36.7469 109.534 37.6453 108.309 37.6453C107.179 37.6453 106.049 37.0306 105.376 36.0612C105.112 35.6592 104.92 35.2337 104.824 34.7608C104.8 34.5953 104.751 34.3588 104.607 34.3588C104.583 34.3588 104.487 34.4061 104.487 34.6898C104.487 35.1154 104.511 35.5174 104.511 35.943C104.511 36.936 104.487 37.1015 104.463 37.1961C104.439 37.4089 104.391 37.5981 104.391 37.7872C104.391 37.8345 104.439 37.9527 104.535 37.9527C104.655 37.9527 104.655 37.7872 104.751 37.6453C104.824 37.5035 104.968 37.2907 105.376 37.2907C105.689 37.2907 105.929 37.4089 106.482 37.5981C107.059 37.7872 107.588 37.9764 108.309 37.9764C108.717 37.9764 109.126 37.9291 109.51 37.8108C109.919 37.6926 110.303 37.4798 110.64 37.1961C111.649 36.3449 111.842 35.21 111.842 34.3352C111.842 33.6732 111.722 33.0821 111.217 32.491C110.52 31.6871 109.438 31.3088 108.116 30.8122C107.059 30.4103 106.554 30.2211 106.266 29.8428C106.145 29.6773 106.001 29.4172 106.001 29.0626C106.001 28.8025 106.073 28.5424 106.194 28.3296C106.386 28.0223 106.818 27.5257 107.828 27.5257C108.285 27.5257 108.717 27.6203 109.126 27.8095C109.462 27.975 109.775 28.235 110.015 28.5424C110.183 28.7552 110.424 29.1572 110.664 29.9138C110.688 30.0083 110.736 30.1502 110.856 30.1502C110.976 30.1502 111 30.0083 111 29.9138Z" fill="#0086BF"/>
<path d="M124.256 29.2517V36.1794C124.256 36.5577 124.256 36.8887 123.871 37.0779C123.559 37.2434 122.886 37.338 122.598 37.338C122.477 37.338 122.261 37.338 122.261 37.5271C122.261 37.7163 122.501 37.7163 122.646 37.7163C123.078 37.7163 124.905 37.669 125.65 37.669C126.611 37.669 127.573 37.7399 128.534 37.7399C128.775 37.7399 128.991 37.7399 129.231 37.7636C129.424 37.7872 129.64 37.8345 129.88 37.8345C129.928 37.8345 130.096 37.8345 130.096 37.6926C130.096 37.6453 130.072 37.5981 130.048 37.5744C129.952 37.4562 129.808 37.4325 129.64 37.4089C129.448 37.3853 129.279 37.3616 129.087 37.338C128.823 37.2907 128.486 37.1961 128.27 37.0306C127.813 36.6759 127.885 35.8957 127.885 35.1864V23.5535C127.885 23.0097 127.861 22.3004 128.174 21.993C128.366 21.8039 128.678 21.733 129.087 21.7093C129.351 21.6857 129.616 21.6857 129.904 21.6384C129.976 21.6384 130.096 21.6147 130.096 21.4729C130.096 21.331 129.928 21.331 129.88 21.331C129.207 21.331 128.606 21.4019 127.957 21.4019C127.933 21.4019 127.885 21.4019 127.861 21.4019H124.112C123.655 21.4019 123.607 21.3783 123.319 21.3547C123.054 21.331 122.79 21.331 122.501 21.331C122.381 21.331 122.333 21.331 122.261 21.4256C122.237 21.4729 122.213 21.4965 122.213 21.5438C122.213 21.7803 122.453 21.7803 122.574 21.7803H123.03C123.295 21.7803 123.655 21.7803 123.92 22.064C124.184 22.3477 124.256 22.9388 124.256 23.388V28.6843H118.464V23.1043C118.464 22.7024 118.488 22.2531 118.704 22.0403C118.848 21.8985 119.113 21.8275 119.377 21.8275L120.242 21.8039C120.338 21.8039 120.386 21.7803 120.435 21.733C120.459 21.6857 120.483 21.6384 120.483 21.5675C120.483 21.331 120.194 21.331 120.002 21.331C119.473 21.331 118.247 21.4019 117.622 21.4019L114.21 21.3783C114.113 21.3783 114.041 21.3783 113.873 21.3547C113.657 21.3074 113.464 21.2601 113.248 21.2601C113.104 21.2601 112.791 21.3074 112.791 21.4729C112.791 21.6857 112.984 21.6857 113.104 21.6857C113.561 21.6857 114.33 21.733 114.594 21.9221C114.834 22.1113 114.834 22.3713 114.834 22.5369V35.8011C114.834 36.5341 114.858 36.8414 114.738 36.9833C114.594 37.1488 113.825 37.267 113.633 37.2907C113.44 37.3143 113.272 37.338 113.08 37.338C112.96 37.338 112.743 37.338 112.743 37.5271C112.743 37.7399 113.008 37.7399 113.104 37.7399C114.041 37.7399 114.594 37.7163 115.82 37.669C116.853 37.6217 117.238 37.6217 117.43 37.6217L119.425 37.6926C119.473 37.6926 119.497 37.6926 119.545 37.6926C119.786 37.6926 120.002 37.7163 120.242 37.7163C120.29 37.7163 120.459 37.7163 120.459 37.5744C120.459 37.3616 120.122 37.338 120.002 37.338C119.786 37.338 119.569 37.3143 119.377 37.2907C119.209 37.267 118.8 37.1961 118.632 36.936C118.464 36.6996 118.464 36.1558 118.464 35.2809V29.2517H124.256Z" fill="#0086BF"/>
<path d="M137.489 31.0723C139.387 31.0487 139.892 31.025 140.757 30.9777C140.733 29.7246 140.132 28.8261 139.652 28.3296C139.075 27.7385 138.09 27.1947 136.551 27.1947C135.638 27.1947 134.725 27.3839 133.932 27.7858C132.273 28.637 131.143 30.4339 131.143 32.6092C131.143 33.6259 131.408 34.6426 131.937 35.5174C132.778 36.9124 134.412 38 136.527 38C137.344 38 138.09 37.8345 138.763 37.4562C139.363 37.1252 139.892 36.6523 140.349 35.9903C140.589 35.6356 140.854 35.1154 140.854 34.7608C140.854 34.7135 140.854 34.6898 140.829 34.6662C140.805 34.6426 140.733 34.6426 140.685 34.6662C140.541 34.7371 140.349 35.2809 140.157 35.612C140.012 35.8484 139.844 36.0376 139.652 36.2267C138.883 36.9833 138.114 37.1488 137.609 37.1488C137.393 37.1488 136.575 37.1015 135.902 36.4631C135.638 36.2267 135.446 35.9193 135.277 35.612C134.797 34.7135 134.725 33.6495 134.725 32.3727C134.725 31.9235 134.749 31.4979 134.797 31.096C135.614 31.096 135.83 31.096 137.489 31.0723ZM134.845 30.694C134.845 30.2684 134.893 29.8665 134.965 29.4645C135.037 29.1099 135.133 28.7789 135.277 28.4478C135.47 28.0459 135.83 27.4548 136.599 27.4548C137.2 27.4548 137.417 27.8095 137.561 28.235C137.753 28.8261 137.849 29.8901 137.801 30.694H134.845Z" fill="#0086BF"/>
<path d="M147.809 32.1599C146.463 32.1836 145.213 32.6092 144.3 33.1293C143.507 33.5786 142.617 34.3352 142.617 35.7302C142.617 36.4159 142.81 36.9597 143.314 37.3853C143.531 37.5744 143.771 37.7163 144.035 37.8108C144.324 37.9291 144.66 37.9764 144.973 37.9764C145.646 37.9764 146.174 37.7872 146.655 37.4562C147.256 37.0306 147.641 36.5341 147.881 36.0376C147.929 36.4631 148.121 37.1488 148.458 37.4798C148.866 37.8581 149.467 37.8818 149.828 37.8818C150.429 37.8818 150.909 37.8581 151.51 37.5744C151.967 37.3616 152.303 37.0779 152.447 36.9597C152.64 36.7705 152.832 36.5814 152.832 36.4395C152.832 36.3449 152.76 36.2976 152.712 36.2976C152.664 36.2976 152.616 36.3449 152.592 36.3686C152.568 36.3922 152.544 36.4159 152.52 36.4395C152.399 36.5577 152.279 36.6523 152.135 36.7469C151.991 36.8651 151.774 37.007 151.51 37.007C151.222 37.007 150.981 36.8414 150.861 36.3922C150.765 36.0376 150.789 35.6356 150.789 34.7371V30.5994C150.789 29.9611 150.789 29.3463 150.525 28.7552C150.332 28.3533 150.092 28.0932 149.756 27.8567C148.986 27.3129 147.953 27.1711 146.631 27.1711C145.477 27.1711 144.636 27.3129 143.795 27.9986C143.074 28.5897 142.761 29.2281 142.761 29.7955C142.761 30.6467 143.434 31.3088 144.348 31.3088C145.045 31.3088 145.598 30.8832 145.598 30.0793C145.598 29.8901 145.549 29.4882 145.213 29.2517C144.973 29.0862 144.684 29.0626 144.492 29.0389C144.324 29.0153 144.155 28.9917 144.155 28.7079C144.155 28.4478 144.42 28.0932 144.66 27.8804C144.973 27.5967 145.333 27.4548 145.91 27.4548C147.112 27.4548 147.472 28.1641 147.616 28.637C147.761 29.1335 147.761 29.7719 147.785 30.4339C147.785 30.8359 147.809 31.2615 147.809 31.6634V32.1599ZM147.809 33.7441C147.809 35.0445 147.737 35.4701 147.665 35.7775C147.472 36.4395 147.064 36.7232 146.631 36.7232C146.415 36.7232 146.006 36.6523 145.742 36.1794C145.549 35.8484 145.477 35.3282 145.477 34.9499C145.477 34.146 145.718 33.5076 146.439 32.9875C146.727 32.7747 147.184 32.5382 147.809 32.4673V33.7441Z" fill="#0086BF"/>
<path d="M154.715 36.3449C154.715 37.0542 154.619 37.1725 154.595 37.1961C154.402 37.4089 154.114 37.3616 153.297 37.3853C153.225 37.3853 153.056 37.3853 153.056 37.5508C153.056 37.7163 153.273 37.7163 153.393 37.7163C155.003 37.7163 155.532 37.6453 156.277 37.6453C156.686 37.6453 157.118 37.6453 157.527 37.669C158.296 37.6926 158.512 37.7163 158.849 37.7163C159.257 37.7163 159.666 37.7636 159.666 37.5271C159.666 37.4798 159.642 37.4089 159.594 37.3853C159.522 37.338 159.45 37.338 159.354 37.338C159.065 37.338 158.825 37.3616 158.536 37.3616C158.368 37.3616 158.2 37.3616 158.08 37.1725C158.032 37.1015 157.96 36.936 157.96 36.274V21.0473C157.262 21.3074 156.782 21.4256 156.109 21.5438C155.724 21.6147 155.34 21.6857 154.931 21.733C154.474 21.7803 154.018 21.8275 153.585 21.8512C153.225 21.8748 153.032 21.8748 152.984 21.9458C152.96 21.9694 152.96 22.0167 152.96 22.064C152.96 22.2295 153.08 22.2295 153.225 22.2295C154.114 22.2295 154.426 22.2531 154.571 22.395C154.691 22.5369 154.715 22.8206 154.715 23.3408V36.3449Z" fill="#0086BF"/>
<path d="M165.055 27.8331H167.314C167.675 27.8331 167.891 27.8095 167.891 27.4784C167.891 27.4312 167.891 27.3366 167.771 27.3366C167.747 27.3366 167.699 27.3602 167.675 27.3602C167.579 27.3839 167.507 27.4075 167.411 27.4075C167.122 27.4312 166.81 27.4548 166.377 27.4548C166.089 27.4548 165.247 27.4312 165.079 27.242C165.007 27.1711 165.007 27.0529 164.983 26.9346C164.935 26.6036 164.935 26.3435 164.935 26.0834V25.5633C164.935 25.3505 164.935 25.1377 164.911 24.8776C164.911 24.8067 164.887 24.7121 164.791 24.7121C164.695 24.7121 164.55 24.9013 164.502 24.9722C164.262 25.3032 163.853 25.8943 163.205 26.4145C162.483 27.0056 161.57 27.4075 160.705 27.4548C160.537 27.4548 160.296 27.4784 160.296 27.6439C160.296 27.8095 160.489 27.8331 160.585 27.8331H161.089C161.45 27.8331 161.666 27.8331 161.762 27.9277C161.859 28.0223 161.883 28.306 161.883 28.4006V35.6592C161.883 36.1085 161.907 36.5814 162.219 37.0542C162.604 37.5981 163.349 37.9764 164.719 37.9764C166.281 37.9764 167.314 37.4562 167.963 36.8651C168.276 36.5577 168.42 36.3922 168.42 36.2031C168.42 36.1321 168.42 36.0612 168.324 36.0612C168.228 36.0612 168.108 36.1794 167.867 36.3922C167.579 36.6523 167.122 37.1015 166.545 37.1015C165.969 37.1015 165.368 36.6759 165.223 35.7302C165.079 34.7844 165.055 29.7483 165.055 28.306V27.8331Z" fill="#0086BF"/>
<path d="M173.189 22.3241C173.189 21.0946 173.189 21 172.996 21C172.708 21 172.179 21.2837 171.002 21.4965C170.569 21.5675 169.583 21.6857 169.055 21.7093C168.382 21.733 168.262 21.733 168.262 21.8985C168.262 22.0403 168.334 22.0403 168.959 22.0403C169.583 22.0403 169.896 22.1349 169.992 22.4659C170.064 22.6787 170.088 23.1989 170.088 25.3741V34.9736C170.088 36.5814 170.064 36.9597 170.04 37.1725C170.04 37.2434 170.016 37.3143 169.968 37.3616C169.872 37.4562 169.535 37.5035 168.67 37.5035C168.622 37.5035 168.502 37.5035 168.502 37.6217C168.502 37.7636 168.67 37.7636 168.766 37.7636C170.497 37.7636 171.602 37.6926 172.708 37.6926C173.189 37.6926 173.645 37.7163 174.246 37.7163C174.342 37.7163 174.487 37.7163 174.487 37.5508C174.487 37.5035 174.463 37.4089 174.27 37.4089C174.054 37.4089 173.838 37.4089 173.621 37.3853C173.549 37.3853 173.453 37.3616 173.381 37.3143C173.333 37.2907 173.309 37.267 173.285 37.2197C173.261 37.1725 173.261 37.1252 173.261 37.0542V30.5994C173.261 29.7483 173.213 29.3463 173.501 28.8734C173.958 28.1168 174.583 28.0459 174.943 28.0459C175.616 28.0459 176.001 28.3533 176.145 28.6606C176.289 28.9207 176.361 29.4409 176.361 31.2615V36.6523C176.361 36.7232 176.361 37.1015 176.289 37.2197C176.241 37.3143 176.073 37.4325 175.712 37.4325C175.544 37.4325 175.4 37.4089 175.208 37.4089C175.136 37.4089 175.039 37.4089 175.039 37.5508C175.039 37.6217 175.063 37.7163 175.376 37.7163C175.664 37.7163 175.953 37.6926 176.217 37.6926C177.227 37.6926 176.578 37.7163 177.972 37.7399C178.26 37.7399 178.572 37.7399 178.861 37.7399C179.486 37.7399 180.111 37.7636 180.784 37.7636C180.856 37.7636 181 37.7636 181 37.6217C181 37.4562 180.832 37.4562 180.784 37.4562C180.375 37.4562 179.87 37.4325 179.678 37.267C179.558 37.1488 179.534 36.8651 179.534 36.5577V31.0487C179.534 29.7483 179.462 29.0153 178.933 28.2587C178.5 27.6439 177.9 27.1711 176.265 27.1711C175.712 27.1711 175.111 27.242 174.559 27.5257C174.246 27.6912 173.982 27.9277 173.742 28.1641C173.525 28.3769 173.357 28.5897 173.189 28.8498V22.3241Z" fill="#0086BF"/>
<defs>
<filter id="filter0_d_11638_137665" x="3.9555" y="22.0957" width="31.0548" height="39.4658" filterUnits="userSpaceOnUse" color-interpolation-filters="sRGB">
<feFlood flood-opacity="0" result="BackgroundImageFix"/>
<feColorMatrix in="SourceAlpha" type="matrix" values="0 0 0 0 0 0 0 0 0 0 0 0 0 0 0 0 0 0 127 0" result="hardAlpha"/>
<feOffset dy="0.988301"/>
<feGaussianBlur stdDeviation="1.72953"/>
<feColorMatrix type="matrix" values="0 0 0 0 0 0 0 0 0 0 0 0 0 0 0 0 0 0 0.3 0"/>
<feBlend mode="normal" in2="BackgroundImageFix" result="effect1_dropShadow_11638_137665"/>
<feBlend mode="normal" in="SourceGraphic" in2="effect1_dropShadow_11638_137665" result="shape"/>
</filter>
<filter id="filter1_d_11638_137665" x="28.8862" y="0.966258" width="28.1613" height="27.1884" filterUnits="userSpaceOnUse" color-interpolation-filters="sRGB">
<feFlood flood-opacity="0" result="BackgroundImageFix"/>
<feColorMatrix in="SourceAlpha" type="matrix" values="0 0 0 0 0 0 0 0 0 0 0 0 0 0 0 0 0 0 127 0" result="hardAlpha"/>
<feOffset dy="0.988301"/>
<feGaussianBlur stdDeviation="1.72953"/>
<feColorMatrix type="matrix" values="0 0 0 0 0 0 0 0 0 0 0 0 0 0 0 0 0 0 0.3 0"/>
<feBlend mode="normal" in2="BackgroundImageFix" result="effect1_dropShadow_11638_137665"/>
<feBlend mode="normal" in="SourceGraphic" in2="effect1_dropShadow_11638_137665" result="shape"/>
</filter>
<linearGradient id="paint0_linear_11638_137665" x1="0.238117" y1="0.0215592" x2="60.6277" y2="56.8397" gradientUnits="userSpaceOnUse">
<stop stop-color="#0075F1"/>
<stop offset="0.460785" stop-color="#0075F1"/>
<stop offset="0.461974" stop-color="#FFD500"/>
<stop offset="1" stop-color="#FFD500"/>
</linearGradient>
<linearGradient id="paint1_linear_11638_137665" x1="0.238117" y1="0.0215592" x2="60.6277" y2="56.8397" gradientUnits="userSpaceOnUse">
<stop stop-color="#0075F1"/>
<stop offset="0.460785" stop-color="#0075F1"/>
<stop offset="0.461974" stop-color="#FFD500"/>
<stop offset="1" stop-color="#FFD500"/>
</linearGradient>
</defs>
</svg>
