<svg width="28" height="32" viewBox="0 0 28 32" fill="none" xmlns="http://www.w3.org/2000/svg">
<path d="M13.712 31.9218C21.2852 31.9218 27.4245 31.124 27.4245 30.14C27.4245 29.1559 21.2852 28.3582 13.712 28.3582C6.13879 28.3582 -0.000488281 29.1559 -0.000488281 30.14C-0.000488281 31.124 6.13879 31.9218 13.712 31.9218Z" fill="#D0D0E1"/>
<path d="M10.9784 29.7917C10.9784 29.7917 9.83603 31.1845 10.7312 31.8428C11.6264 32.501 12.6881 30.879 12.9665 30.3655" fill="#979CAF"/>
<path d="M9.37034 3.76277C9.37034 3.76277 8.17354 -0.702566 5.19666 0.0955193C3.05731 0.669048 3.96652 4.94067 6.20334 5.74654" fill="#B9BBCC"/>
<path d="M5.19698 0.0955316C4.6274 0.248188 4.27585 0.664328 4.10596 1.2061L4.18607 1.34624C4.18607 1.34624 4.92207 0.206054 6.06968 0.566628C7.21728 0.927201 8.12815 2.35423 8.12815 2.35423L8.72835 2.18387C8.09163 0.987958 6.95474 -0.375717 5.19698 0.0955316Z" fill="#F8F8F8" fill-opacity="0.5"/>
<path d="M5.27098 1.48146C4.23051 1.95897 5.56475 4.63808 6.66557 5.08766C7.76655 5.53738 6.31161 1.00395 5.27098 1.48146Z" fill="#979CAF"/>
<path d="M2.79985 14.1069C2.79985 14.1069 -4.38451 24.7501 5.22361 28.6399C14.8317 32.5298 25.3035 30.8245 26.7044 24.2853C28.0337 18.0804 26.1209 13.8845 26.1209 13.8845" fill="#FEF2F4"/>
<path d="M26.7049 24.2853C28.0342 18.0804 26.1214 13.8845 26.1214 13.8845C26.1214 13.8845 26.3976 16.986 26.2571 19.0502C26.1166 21.1145 27.0589 24.079 22.2553 27.1019C17.4517 30.1248 15.4424 27.0287 11.6951 26.676C7.94781 26.3234 6.73775 27.3793 4.33315 25.7682C2.11445 24.2816 -0.00226602 22.714 1.50881 16.5093C0.00165692 19.883 -1.50293 25.9164 5.22411 28.6398C14.8322 32.5299 25.304 30.8245 26.7049 24.2853Z" fill="#B9BBCC"/>
<path d="M0.221191 21.8936C0.240202 24.4805 1.40591 27.0928 5.22426 28.6387C14.8325 32.5285 25.3041 30.8232 26.7051 24.2841C26.7067 24.2764 26.7079 24.2691 26.7096 24.2616C24.4931 29.1324 16.3702 30.9756 7.70082 28.3734C-0.972881 25.77 0.314285 21.7297 0.314285 21.7297L0.221191 21.8936Z" fill="#979CAF"/>
<path d="M24.928 17.9706C25.6245 17.1667 26.1258 16.3094 26.3772 15.4493C26.6526 14.7309 26.8399 13.973 26.9263 13.1827C27.5577 7.39639 22.5638 2.08793 15.7725 1.32603C9.18308 0.586716 3.32256 4.39899 2.40278 9.91155C1.77557 10.702 1.38811 11.7407 1.29592 13.0888C0.932447 18.4007 6.58144 21.5534 13.16 22.2913C13.7635 22.3591 14.3652 22.3837 14.9606 22.3703C19.0684 22.4145 22.7524 20.7034 24.928 17.9706Z" fill="#FEF2F4"/>
<path d="M8.77114 17.0154C8.77114 17.0154 7.07056 20.4 10.9729 22.1074C14.8755 23.8147 16.9009 20.5378 16.7603 18.1103L8.77114 17.0154Z" fill="#BEB9BF"/>
<path d="M13.8636 10.0952C13.8636 10.0952 13.0411 9.28165 13.481 9.22639C13.9208 9.17113 14.7743 9.27631 14.5818 9.52651C14.3094 9.88006 13.9573 10.2162 13.8636 10.0952Z" fill="#070C11"/>
<path d="M15.7718 1.32599C9.18241 0.586833 3.32188 4.39911 2.40211 9.91152C2.36363 9.95991 2.32621 10.0094 2.28955 10.0597C2.86199 9.86832 3.56948 9.43279 4.34953 9.44775C8.56274 9.52912 8.84911 11.646 10.2464 10.8323C11.6439 10.0187 12.3594 8.57318 14.2538 9.02596C16.5765 9.58102 16.9682 11.6613 18.6493 12.0878C20.3304 12.5141 21.2016 10.4866 24.6216 11.9478C26.0633 12.5638 26.2149 13.9372 26.544 14.9711C26.7284 14.3969 26.8583 13.7998 26.9256 13.1826C27.557 7.39621 22.5633 2.0879 15.7718 1.32599Z" fill="#B9BBCC"/>
<path d="M15.7715 1.32597C10.3506 0.717945 5.42372 3.19036 3.33447 7.15545L3.4938 7.28459C3.4938 7.28459 10.2192 -2.42692 22.1753 4.05088L22.0907 3.63245C20.3157 2.42113 18.1545 1.59343 15.7715 1.32597Z" fill="#D9E3EF"/>
<path d="M15.772 1.32589C15.0567 1.2456 14.3501 1.21919 13.6573 1.24254C13.5706 3.43041 13.6069 6.81998 14.8213 7.01416C16.0434 7.20956 16.9662 3.92105 17.7252 1.78493C16.9662 1.56862 16.5896 1.41764 15.772 1.32589Z" fill="#979CAF"/>
<path d="M15.0904 1.26663C14.9703 1.25884 14.8502 1.2509 14.7309 1.24602C14.6692 1.24357 14.6079 1.24296 14.5463 1.24128C14.4357 1.23823 14.3253 1.23503 14.2153 1.23442C14.1503 1.23411 14.0858 1.23564 14.0211 1.23609C13.9157 1.23701 13.81 1.23777 13.705 1.24098C13.689 1.24144 13.6732 1.24251 13.657 1.24312C13.6495 1.43272 13.643 1.63163 13.6382 1.83634C14.8476 1.78337 16.1585 1.89572 17.5674 2.23584C17.6207 2.08105 17.6732 1.92992 17.7249 1.78428C17.0452 1.59041 16.6713 1.44935 16.0133 1.35608C15.9329 1.3457 15.8528 1.3344 15.7718 1.32525C15.5974 1.30571 15.4234 1.28952 15.25 1.27624C15.1968 1.27212 15.1437 1.27014 15.0904 1.26663Z" fill="#B9BBCC"/>
<path d="M11.4361 21.3847C5.00158 18.9164 13.4214 10.7844 14.9093 11.6773C16.8278 12.8285 17.2676 23.6215 11.4361 21.3847Z" fill="#706F6B"/>
<g opacity="0.48">
<g opacity="0.48">
<path opacity="0.48" d="M15.8115 19.1696C15.0859 20.2533 13.4571 21.7864 11.314 20.487C8.826 18.9786 10.2793 15.6327 10.9711 14.2655C9.00977 16.6344 7.83169 19.8971 11.5111 21.3086C13.852 22.2065 15.1817 21.0044 15.8115 19.1696Z" fill="#070C11"/>
</g>
</g>
<path d="M11.3701 21.2458C11.3701 21.2458 14.7795 11.2076 14.8402 11.6825C14.9009 12.1573 11.9873 21.331 11.6939 21.407C11.4004 21.4832 11.3701 21.2458 11.3701 21.2458Z" fill="#EDC391"/>
<path d="M15.217 11.956C15.217 11.956 15.4189 18.8121 13.3032 21.5825C13.3032 21.5825 14.3185 21.7134 14.6657 21.3232C14.6657 21.3232 16.6167 13.7999 15.217 11.956Z" fill="#EDC391"/>
<path d="M14.2747 11.6605C11.8975 12.724 9.83818 17.8815 9.2041 19.6118C9.42226 20.0631 9.7831 20.4752 10.3208 20.8264L10.4221 20.8036C10.0211 16.5716 13.9582 12.2871 14.6104 11.6091C14.5101 11.6097 14.3976 11.6271 14.2747 11.6605Z" fill="#EDC391"/>
<path d="M22.2817 5.30801C22.2817 5.30801 24.6574 1.76654 27.1427 3.60681C28.9287 4.92927 26.8906 8.39609 24.5172 8.32251" fill="#B9BBCC"/>
<path d="M27.653 4.76532L27.7686 4.54703C27.6806 4.18279 27.4801 3.85656 27.1429 3.60682C25.3263 2.26177 23.5685 3.79169 22.7539 4.71251L22.7663 4.83081C22.7663 4.83097 25.4591 2.30375 27.653 4.76532Z" fill="#F8F8F8" fill-opacity="0.5"/>
<path d="M8.91514 8.23949C9.21555 7.49682 9.95094 7.09273 10.5576 7.33698C11.1643 7.58123 11.4125 8.3813 11.1123 9.12398C10.812 9.86649 10.0766 10.2706 9.46993 10.0263C8.86309 9.78223 8.61474 8.98201 8.91514 8.23949Z" fill="#070C11"/>
<path d="M9.83833 10.1385C9.70812 10.1385 9.57866 10.1147 9.45449 10.0648C9.19044 9.95836 8.97876 9.7422 8.8585 9.45597C8.70355 9.08685 8.71049 8.63819 8.87751 8.22511L8.91448 8.24037L8.87751 8.22511C9.18561 7.4632 9.94576 7.04843 10.5718 7.30032C10.8358 7.40672 11.0475 7.62288 11.1676 7.90896C11.3225 8.27808 11.3156 8.72673 11.1484 9.14013C10.9016 9.75075 10.3643 10.1385 9.83833 10.1385ZM10.1872 7.30703C9.69318 7.30703 9.18607 7.67585 8.9516 8.25548C8.79242 8.64888 8.78533 9.07494 8.93213 9.42437C9.04394 9.6906 9.24008 9.89135 9.48421 9.98966C10.0695 10.2255 10.7833 9.83059 11.0748 9.10959C11.234 8.71605 11.2412 8.28998 11.0944 7.94055C10.9826 7.67432 10.7866 7.47358 10.5425 7.37527C10.4275 7.32902 10.3076 7.30703 10.1872 7.30703Z" fill="#070C11"/>
<path d="M9.84568 8.18758C9.97529 7.86731 10.2817 7.6887 10.5299 7.78869C10.7783 7.88868 10.8747 8.22941 10.7451 8.54968C10.6155 8.86995 10.3092 9.04841 10.0608 8.94842C9.81264 8.84843 9.71607 8.50785 9.84568 8.18758Z" fill="white"/>
<path d="M10.2044 9.01332C10.151 9.01332 10.0981 9.00355 10.0474 8.98324C9.93691 8.93882 9.85166 8.85104 9.80066 8.72968C9.73186 8.56573 9.73609 8.36361 9.81243 8.17508C9.94913 7.83709 10.277 7.64917 10.543 7.75618C10.6535 7.80076 10.7389 7.88839 10.7898 8.0099C10.8587 8.17386 10.8544 8.37597 10.7781 8.56466C10.6673 8.83807 10.4315 9.01332 10.2044 9.01332ZM9.87867 8.20225C9.80957 8.37307 9.80519 8.55489 9.8666 8.70113C9.9099 8.80448 9.98157 8.87867 10.0739 8.91577C10.304 9.00843 10.5899 8.83822 10.7118 8.53687C10.7809 8.36605 10.7853 8.18424 10.7239 8.03784C10.6806 7.93449 10.6088 7.8603 10.5166 7.8232C10.2867 7.73069 10.0006 7.9009 9.87867 8.20225Z" fill="#070C11"/>
<path d="M26.6545 4.96889C27.417 5.82987 25.1296 7.73883 23.943 7.70204C22.7563 7.66525 25.8919 4.10791 26.6545 4.96889Z" fill="#979CAF"/>
<path d="M26.9891 5.26331C26.9381 5.19324 26.8702 5.12226 26.8005 5.07127C26.731 5.01769 26.6543 4.98197 26.5778 4.95937C26.422 4.92121 26.2604 4.94487 26.0995 5.00914C25.9426 5.07371 25.773 5.17508 25.6131 5.27858C25.4524 5.38406 25.2944 5.49718 25.1423 5.61808C24.8376 5.85913 24.5513 6.12643 24.3003 6.41953C24.178 6.56806 24.0608 6.72148 23.9698 6.88772C23.8761 7.0529 23.8085 7.22937 23.7865 7.41775L23.7861 7.42126C23.7814 7.46125 23.7455 7.4898 23.7059 7.48507C23.6733 7.4811 23.6485 7.45576 23.6433 7.42462C23.607 7.20479 23.6482 6.97779 23.7216 6.7743C23.7568 6.6708 23.8034 6.57295 23.8534 6.47784C23.9024 6.38182 23.9587 6.29084 24.0187 6.20276C24.257 5.84905 24.5528 5.54557 24.8766 5.27934C25.0391 5.14668 25.2095 5.02334 25.3907 4.91434C25.573 4.80489 25.7582 4.70887 25.982 4.64078C26.0393 4.62857 26.0949 4.61315 26.1532 4.60506L26.2426 4.59773C26.2721 4.59498 26.3017 4.59331 26.3325 4.59636C26.363 4.59819 26.3931 4.60002 26.4233 4.60292C26.4533 4.60582 26.4837 4.61513 26.5134 4.62124C26.5734 4.63193 26.6305 4.65895 26.6865 4.68123C26.7965 4.73604 26.8894 4.81557 26.963 4.90472C27.0353 4.99723 27.0893 5.09249 27.1218 5.20775C27.1326 5.24637 27.1106 5.28652 27.0724 5.29751C27.0428 5.30606 27.0122 5.29445 26.995 5.27079L26.9891 5.26331Z" fill="#070C11"/>
<path d="M4.65211 1.75441C4.67565 1.68648 4.7087 1.62588 4.75336 1.56955C4.77448 1.54054 4.80073 1.51551 4.82699 1.48971C4.85611 1.46788 4.88387 1.44177 4.91736 1.42467C5.04727 1.3456 5.21279 1.32759 5.35914 1.35293C5.39656 1.35842 5.43368 1.36529 5.46778 1.3775C5.50248 1.38865 5.53869 1.39857 5.57264 1.41155C5.63646 1.44147 5.70723 1.46727 5.76486 1.50589C5.82506 1.54207 5.88738 1.57748 5.94185 1.61946C5.99888 1.65931 6.05501 1.70098 6.10631 1.74815C6.31724 1.93058 6.50448 2.14811 6.63877 2.39587C6.70893 2.518 6.76536 2.64775 6.81137 2.78087C6.83521 2.84728 6.85407 2.91536 6.87082 2.98467C6.88757 3.05596 6.89934 3.11977 6.90779 3.20495C6.91956 3.32417 6.83355 3.43057 6.71572 3.44263C6.61281 3.45301 6.51957 3.38814 6.4897 3.29212L6.4826 3.26906C6.46933 3.22632 6.45062 3.16388 6.43191 3.11045C6.41395 3.05474 6.39298 2.99932 6.37201 2.94421C6.32825 2.83445 6.28284 2.725 6.22852 2.62012C6.12305 2.4087 5.9942 2.20933 5.83729 2.03057C5.79926 1.98462 5.75656 1.94325 5.71432 1.90096C5.67313 1.85623 5.62786 1.82036 5.5832 1.78189C5.56102 1.76189 5.53839 1.74357 5.51455 1.72877L5.44454 1.67869C5.4207 1.66373 5.39626 1.65213 5.37182 1.63809C5.34737 1.62282 5.32248 1.61336 5.29728 1.6045C5.19695 1.56344 5.09178 1.55168 4.98707 1.58054C4.88296 1.60832 4.78172 1.68541 4.70779 1.78067L4.70522 1.78387C4.69466 1.79731 4.67535 1.79975 4.66207 1.78906C4.65151 1.78067 4.64789 1.76662 4.65211 1.75441Z" fill="#070C11"/>
<path d="M7.53223 15.7858C7.53223 15.7858 9.86288 14.0774 10.6603 15.321C11.4577 16.5645 9.78624 17.975 8.32435 17.9707" fill="#706F6B"/>
<path d="M6.97363 15.9964C6.97363 15.9964 9.30429 14.288 10.1017 15.5315C10.8991 16.7751 9.22764 18.1856 7.76576 18.1813" fill="#FEF2F4"/>
<path d="M18.5174 17.9413C18.5174 17.9413 17.2949 15.3046 16.0023 16.0019C14.7098 16.6993 15.498 18.7523 16.7794 19.4649" fill="#706F6B"/>
<path d="M20.0311 6.01317C20.6609 7.07688 18.6234 7.81161 18.194 6.88209C17.7644 5.95272 19.5369 5.17875 20.0311 6.01317Z" fill="#979CAF"/>
<path d="M9.74749 4.74629C8.88354 5.62575 10.687 6.83417 11.3245 6.03639C11.9621 5.23861 10.4252 4.05644 9.74749 4.74629Z" fill="#979CAF"/>
<path d="M16.6533 24.5488C16.6533 24.5488 17.2532 21.7009 18.6685 22.084C20.0838 22.4672 19.7763 24.6472 18.688 25.6347" fill="#706F6B"/>
<path d="M16.439 24.8433C16.439 24.8433 17.0389 21.9953 18.4541 22.3785C19.8694 22.7617 19.5619 24.9416 18.4736 25.9291" fill="#FEF2F4"/>
<path d="M19.3544 22.7955L18.7344 23.5482L18.9713 22.5981C19.001 22.4787 19.1209 22.4062 19.2389 22.4364C19.3571 22.4665 19.4286 22.5879 19.3987 22.7072C19.3906 22.7404 19.3746 22.7707 19.3544 22.7955Z" fill="#46494D"/>
<path d="M18.4958 22.4026L17.9561 23.2369L18.0934 22.2495C18.1103 22.1277 18.2218 22.0427 18.3422 22.0599C18.4626 22.077 18.5466 22.1898 18.5296 22.3116C18.525 22.3449 18.5128 22.3762 18.4958 22.4026Z" fill="#46494D"/>
<path d="M7.02029 23.1409C7.02029 23.1409 6.81992 20.236 5.36557 20.4152C3.91123 20.5944 3.91439 22.7965 4.85574 23.9283" fill="#706F6B"/>
<path d="M7.0989 23.347C7.0989 23.347 6.89853 20.4421 5.44418 20.6213C3.98984 20.8005 3.99301 23.0026 4.93436 24.1344" fill="#FEF2F4"/>
<path d="M5.59797 20.5726L5.6894 21.6737L5.18501 20.6937C5.12903 20.585 5.17082 20.4511 5.27825 20.3945C5.38568 20.3378 5.518 20.3801 5.57398 20.4888C5.58771 20.5154 5.59556 20.5445 5.59797 20.5726Z" fill="#46494D"/>
<path d="M4.91777 20.9011L4.96258 21.9001L4.50285 21.0148C4.44627 20.9058 4.48776 20.7712 4.59534 20.714C4.70307 20.6567 4.83614 20.6987 4.89272 20.8075C4.90811 20.8372 4.91626 20.8697 4.91777 20.9011Z" fill="#46494D"/>
<path d="M9.53711 16.3429C9.70911 16.2349 9.88368 16.1304 10.0629 16.0311C10.153 15.9817 10.2434 15.933 10.3389 15.8885C10.3872 15.8662 10.4346 15.844 10.4884 15.825C10.5141 15.8149 10.5417 15.8056 10.5737 15.7981C10.5998 15.7889 10.6455 15.7845 10.6883 15.7834C10.7777 15.7811 10.8519 15.8526 10.854 15.9431C10.8563 16.0335 10.7857 16.1086 10.6963 16.1107C10.69 16.1109 10.6838 16.1107 10.6776 16.1101L10.6493 16.1074C10.642 16.1066 10.6375 16.0998 10.6141 16.1013L10.5851 16.1005L10.5518 16.1033C10.5077 16.106 10.4591 16.1141 10.4116 16.1219C10.3157 16.1379 10.218 16.1604 10.1207 16.1834C9.92608 16.2304 9.73099 16.2845 9.53711 16.3429Z" fill="#46494D"/>
<path d="M9.32617 15.6668C9.5101 15.5567 9.69825 15.4531 9.89424 15.3589C9.99261 15.3122 10.0926 15.2677 10.2002 15.2303C10.2541 15.2117 10.3099 15.1949 10.3728 15.1835C10.4042 15.1778 10.4386 15.174 10.4771 15.174C10.5177 15.1766 10.564 15.1783 10.6263 15.2132C10.7006 15.263 10.7209 15.3642 10.6717 15.4393C10.6225 15.5144 10.5225 15.535 10.4483 15.4853C10.465 15.4917 10.4582 15.4828 10.4466 15.4784C10.4323 15.4741 10.4136 15.4702 10.3921 15.4685C10.3493 15.4648 10.3004 15.4659 10.2508 15.4699C10.151 15.4776 10.0477 15.4943 9.94463 15.514C9.73808 15.5543 9.53107 15.6068 9.32617 15.6668Z" fill="#46494D"/>
<path d="M13.9346 10.2076C13.9288 10.2076 13.9232 10.2076 13.9174 10.2073C13.5266 10.1942 13.2465 9.64098 13.1943 9.53015C13.1432 9.42177 13.1887 9.29186 13.2959 9.24026C13.403 9.18851 13.5311 9.23446 13.5822 9.34284C13.682 9.5532 13.8582 9.77013 13.9314 9.77257C13.9327 9.77257 13.9339 9.77257 13.9353 9.77257C14.0536 9.77257 14.2684 9.6019 14.3796 9.47672C14.459 9.38742 14.595 9.38009 14.6832 9.46054C14.7715 9.54084 14.7787 9.67838 14.6992 9.76769C14.6334 9.84218 14.2902 10.2076 13.9346 10.2076Z" fill="#070C11"/>
<path d="M13.8749 10.5995C13.8663 10.5995 13.8576 10.599 13.8487 10.598C13.7308 10.5835 13.6469 10.4751 13.6613 10.3557L13.7065 9.98003C13.7209 9.8608 13.8278 9.77562 13.946 9.79043C14.0638 9.80493 14.1477 9.91332 14.1334 10.0327L14.0881 10.4084C14.0747 10.5186 13.982 10.5995 13.8749 10.5995Z" fill="#070C11"/>
<path d="M14.4424 10.9212C14.1756 10.9212 13.9373 10.7638 13.8027 10.6532C13.6356 10.7809 13.4691 10.8264 13.3063 10.7884C12.97 10.7098 12.8182 10.3042 12.8019 10.2582C12.772 10.1734 12.8158 10.0801 12.8996 10.0499C12.9832 10.0196 13.0754 10.0638 13.1054 10.1483C13.1318 10.2218 13.2387 10.4384 13.3791 10.4707C13.4863 10.4952 13.6085 10.4019 13.6921 10.319C13.723 10.2883 13.7652 10.2708 13.8082 10.2724C13.8516 10.2734 13.8927 10.2918 13.9223 10.3237C13.999 10.4054 14.2473 10.6133 14.4729 10.5936C14.5957 10.5826 14.7025 10.5055 14.7994 10.3576C14.8486 10.2825 14.9485 10.2619 15.0228 10.3117C15.0971 10.3614 15.1174 10.4626 15.0683 10.5378C14.9154 10.7712 14.7241 10.8994 14.4994 10.9188C14.4803 10.9205 14.4613 10.9212 14.4424 10.9212Z" fill="#070C11"/>
<path d="M11.1748 3.08456C11.6753 3.00484 12.0434 2.69974 11.997 2.40311C11.9506 2.10648 11.5073 1.93065 11.0068 2.01037C10.5063 2.09009 10.1382 2.39519 10.1846 2.69182C10.231 2.98845 10.6743 3.16429 11.1748 3.08456Z" fill="#D9E3EF"/>
<path d="M3.31789 9.2209C3.14 9.18731 2.98112 9.1232 2.82677 9.0516C2.67347 8.97848 2.52787 8.89284 2.3874 8.79896C2.24678 8.70538 2.10993 8.6057 1.97912 8.49624C1.84846 8.38663 1.72202 8.27016 1.6081 8.13368C1.58125 8.10163 1.58532 8.05354 1.61701 8.02652C1.63617 8.01003 1.66167 8.00515 1.68445 8.01095C1.8554 8.05568 2.01397 8.1204 2.16832 8.192C2.32252 8.26375 2.47054 8.34542 2.61493 8.43289C2.75948 8.52021 2.89889 8.61577 3.03046 8.72385C3.16112 8.83346 3.28726 8.95039 3.39423 9.09816C3.41943 9.13297 3.41204 9.18167 3.37764 9.20716C3.35983 9.22029 3.33795 9.22456 3.31789 9.2209Z" fill="#070C11"/>
<path d="M2.98292 10.0008C2.82947 10.0411 2.68251 10.0458 2.53706 10.0419C2.39192 10.0362 2.24933 10.0161 2.10856 9.98613C1.96764 9.95667 1.82807 9.92018 1.69047 9.87225C1.55287 9.82447 1.41677 9.76829 1.2849 9.68876C1.24854 9.66693 1.23677 9.6193 1.25835 9.58266C1.27012 9.56282 1.28958 9.54999 1.31055 9.54618C1.46173 9.5187 1.60854 9.51442 1.75399 9.5187C1.89944 9.52282 2.04278 9.53824 2.18491 9.56083C2.32719 9.58297 2.46766 9.61472 2.60541 9.66113C2.74302 9.70921 2.87896 9.76585 3.00857 9.85821C3.04418 9.8837 3.05278 9.93347 3.02773 9.96949C3.01641 9.98552 3.00027 9.99621 2.98292 10.0008Z" fill="#070C11"/>
<path d="M2.98809 10.9944C2.82061 11.0767 2.64997 11.1229 2.47857 11.1605C2.30702 11.1962 2.13426 11.2173 1.96074 11.2286C1.78723 11.2402 1.61296 11.2448 1.43779 11.2377C1.26262 11.2306 1.08669 11.2151 0.9088 11.1764C0.868364 11.1675 0.842563 11.1272 0.851315 11.0863C0.856746 11.061 0.874399 11.0411 0.896428 11.0319C1.06511 10.9628 1.23576 10.9172 1.40716 10.8796C1.57856 10.8422 1.75087 10.8166 1.92393 10.7978C2.09684 10.7787 2.27065 10.7694 2.44568 10.7749C2.62085 10.7821 2.79678 10.7981 2.97572 10.85C3.01646 10.8619 3.04 10.9048 3.02838 10.946C3.02204 10.968 3.0068 10.9851 2.98809 10.9944Z" fill="#070C11"/>
<path d="M26.0022 12.0237C26.1412 11.9063 26.2913 11.8234 26.4441 11.7487C26.5976 11.6758 26.7556 11.6168 26.9166 11.5672C27.0775 11.5173 27.2406 11.4741 27.4074 11.4419C27.5741 11.4098 27.7434 11.3856 27.9201 11.3837C27.9616 11.3833 27.9957 11.417 27.9961 11.459C27.9964 11.4845 27.9839 11.5074 27.965 11.5214C27.822 11.6262 27.6717 11.7086 27.5187 11.7832C27.3657 11.8577 27.2093 11.9211 27.0505 11.9779C26.892 12.035 26.7302 12.0826 26.5641 12.1163C26.3974 12.1484 26.2278 12.172 26.0472 12.1614C26.0046 12.1589 25.9722 12.122 25.9748 12.0789C25.976 12.0566 25.9865 12.0369 26.0022 12.0237Z" fill="#070C11"/>
<path d="M26.1958 12.8575C26.3435 12.7993 26.489 12.7775 26.634 12.7642C26.7788 12.7528 26.9227 12.756 27.0661 12.7691C27.2094 12.7818 27.3523 12.8016 27.4944 12.8329C27.6366 12.8642 27.7782 12.9039 27.9184 12.9674C27.957 12.9848 27.9742 13.0306 27.957 13.0697C27.9477 13.0909 27.9297 13.1059 27.9094 13.1121C27.7624 13.1573 27.6169 13.1787 27.4721 13.1917C27.3271 13.2046 27.183 13.2062 27.0392 13.2005C26.8954 13.1952 26.7523 13.1802 26.61 13.1504C26.4678 13.1188 26.3262 13.0785 26.1869 13.0022C26.1486 12.9811 26.1342 12.9328 26.1551 12.8938C26.1643 12.8766 26.1791 12.8641 26.1958 12.8575Z" fill="#070C11"/>
<path d="M25.9937 13.8279C26.1799 13.8209 26.3543 13.8482 26.5262 13.8838C26.6974 13.921 26.8638 13.9723 27.0273 14.0328C27.1907 14.0929 27.3519 14.1598 27.5095 14.2378C27.6668 14.3158 27.8218 14.4016 27.9691 14.5096C28.0025 14.5342 28.0101 14.5817 27.9858 14.6156C27.9707 14.6365 27.9466 14.6475 27.9229 14.6469C27.7409 14.6414 27.5667 14.6136 27.3948 14.5779C27.2231 14.5422 27.0552 14.4954 26.8893 14.4419C26.7235 14.3887 26.5607 14.3263 26.4028 14.25C26.2454 14.172 26.0907 14.0856 25.9475 13.965C25.915 13.9375 25.9106 13.8886 25.9377 13.8557C25.9521 13.8383 25.9727 13.8287 25.9937 13.8279Z" fill="#070C11"/>
<path d="M20.2464 9.88628C20.1752 9.08713 19.5897 8.482 18.939 8.53497C18.2881 8.58794 17.8182 9.27871 17.8895 10.078C17.9607 10.877 18.5459 11.4821 19.1968 11.4292C19.8478 11.3762 20.3176 10.6853 20.2464 9.88628Z" fill="#070C11"/>
<path d="M19.1179 11.4741C18.4796 11.4741 17.9196 10.8693 17.8496 10.0829C17.8099 9.63809 17.9338 9.20714 18.1892 8.90045C18.3873 8.66277 18.6524 8.51912 18.9358 8.49607C19.6087 8.44096 20.2131 9.0641 20.2861 9.88401C20.3257 10.3287 20.2019 10.7596 19.9465 11.0662C19.7484 11.304 19.4833 11.4477 19.1999 11.4706C19.1723 11.473 19.145 11.4741 19.1179 11.4741ZM19.0178 8.57346C18.9926 8.57346 18.9674 8.57453 18.9421 8.57652C18.6802 8.59774 18.4345 8.73131 18.2503 8.95251C18.0084 9.24286 17.8915 9.65213 17.9292 10.0758C17.9983 10.8517 18.5662 11.4411 19.1936 11.3903C19.4555 11.3691 19.7013 11.2355 19.8856 11.0143C20.1274 10.7241 20.2445 10.3147 20.2068 9.89134C20.1401 9.14669 19.6152 8.57346 19.0178 8.57346Z" fill="#070C11"/>
<path d="M19.3724 9.558C19.3417 9.21331 19.1007 8.9515 18.8344 8.97318C18.5679 8.99486 18.3768 9.29177 18.4075 9.63647C18.4383 9.98116 18.6793 10.2428 18.9456 10.2213C19.2119 10.1996 19.4031 9.90285 19.3724 9.558Z" fill="white"/>
<path d="M18.9152 10.2603C18.6432 10.2603 18.4031 9.99085 18.3721 9.64127C18.3539 9.43839 18.4087 9.24375 18.5222 9.10758C18.6062 9.00668 18.7133 8.94821 18.8318 8.93859C19.118 8.91447 19.3759 9.19261 19.4083 9.55624C19.4264 9.75927 19.3716 9.95376 19.2582 10.0899C19.1741 10.1908 19.0672 10.2491 18.9487 10.2588C18.9376 10.2598 18.9264 10.2603 18.9152 10.2603ZM18.8654 9.00973C18.8561 9.00973 18.8469 9.01003 18.8375 9.0108C18.7385 9.01889 18.6483 9.0685 18.5768 9.15429C18.4756 9.27581 18.427 9.45091 18.4433 9.6347C18.4721 9.9591 18.6961 10.2069 18.9428 10.1866C19.0418 10.1785 19.1319 10.1289 19.2034 10.0431C19.3046 9.92155 19.3532 9.74645 19.3369 9.56265C19.3092 9.25077 19.1007 9.00973 18.8654 9.00973Z" fill="#070C11"/>
<path d="M18.7943 18.0831C18.7943 18.0831 17.3613 15.5578 16.1299 16.3611C14.8986 17.1644 15.8512 19.1443 17.1862 19.7472" fill="#FEF2F4"/>
<path d="M15.7606 16.607C15.8605 16.6641 15.9521 16.7223 16.0447 16.7841C16.1366 16.8456 16.2267 16.9102 16.3136 16.9791C16.4003 17.0481 16.4845 17.1213 16.5604 17.2033C16.6333 17.2853 16.7092 17.3796 16.7223 17.4906C16.6826 17.3882 16.5938 17.3237 16.5085 17.2656C16.4204 17.2088 16.3264 17.1616 16.2303 17.1187C16.1342 17.0761 16.0359 17.038 15.9365 17.003C15.838 16.9684 15.7354 16.9354 15.6384 16.909C15.5518 16.8853 15.5003 16.7953 15.5237 16.7075C15.5469 16.6199 15.6361 16.5678 15.7229 16.5915C15.736 16.595 15.7491 16.6006 15.7606 16.607Z" fill="#46494D"/>
<path d="M16.2099 16.1287C16.3661 16.2325 16.5186 16.3372 16.6703 16.4458C16.7459 16.5 16.821 16.5551 16.8945 16.6126C16.9664 16.6711 17.0441 16.7269 17.1004 16.8021C17.0265 16.7477 16.9393 16.7181 16.8549 16.6836C16.7698 16.6506 16.6835 16.6204 16.5969 16.5909C16.424 16.5322 16.2486 16.4767 16.0747 16.4247L16.0743 16.4245C15.988 16.3987 15.9387 16.3068 15.9643 16.2195C15.9898 16.1322 16.0806 16.0823 16.1669 16.1082C16.1822 16.113 16.1971 16.1203 16.2099 16.1287Z" fill="#46494D"/>
</svg>
